<?xml version="1.0" encoding="UTF-8"?>
<svg width="52px" height="52px" viewBox="0 0 52 52" version="1.1" xmlns="http://www.w3.org/2000/svg" xmlns:xlink="http://www.w3.org/1999/xlink">
    <title>Artboard 1</title>
    <defs>
        <path d="M0,0 L52,0 L52,52 L0,52 L0,0 Z" id="path-1"></path>
        <polygon id="path-2" points="0 0 47.1145106 0 47.1145106 42.2325312 0 42.2325312"></polygon>
        <polygon id="path-4" points="0 0 3.24112585 0 3.24112585 3.25147438 0 3.25147438"></polygon>
    </defs>
    <g id="Artboard-1" stroke="none" fill="none" transform="translate(0, -0)" xlink:href="#path-1" fill-rule="evenodd">
        <g id="Grupo" stroke-width="1" transform="translate(0, 4.8832)">
            <mask id="mask-3" fill="white">
                <use xlink:href="#path-2"></use>
            </mask>
            <g id="Clip-2"></g>
            <path d="M37.3630702,40.6162656 C37.3630702,39.7237344 36.6394572,39 35.746566,39 C34.8538788,39 34.1302657,39.7237344 34.1302657,40.6162656 C34.1302657,41.5087969 34.8538788,42.2325313 35.746566,42.2325313 C36.6394572,42.2325313 37.3630702,41.5087969 37.3630702,40.6162656 M27.6116298,40.6162656 C27.6116298,39.7237344 26.8878128,39 25.9951256,39 C25.1024384,39 24.3786214,39.7237344 24.3786214,40.6162656 C24.3786214,41.5087969 25.1024384,42.2325313 25.9951256,42.2325313 C26.8878128,42.2325313 27.6116298,41.5087969 27.6116298,40.6162656 M17.8601894,40.6162656 C17.8601894,39.7237344 17.1363724,39 16.2436852,39 C15.350998,39 14.627181,39.7237344 14.627181,40.6162656 C14.627181,41.5087969 15.350998,42.2325313 16.2436852,42.2325313 C17.1363724,42.2325313 17.8601894,41.5087969 17.8601894,40.6162656 M32.4872481,35.7412656 C32.4872481,34.8487344 31.763635,34.125 30.8709478,34.125 C29.9782605,34.125 29.2544436,34.8487344 29.2544436,35.7412656 C29.2544436,36.6337969 29.9782605,37.3575313 30.8709478,37.3575313 C31.763635,37.3575313 32.4872481,36.6337969 32.4872481,35.7412656 M27.6116298,35.7412656 C27.6116298,34.8487344 26.8878128,34.125 25.9951256,34.125 C25.1024384,34.125 24.3786214,34.8487344 24.3786214,35.7412656 C24.3786214,36.6337969 25.1024384,37.3575313 25.9951256,37.3575313 C26.8878128,37.3575313 27.6116298,36.6337969 27.6116298,35.7412656 M22.7358077,35.7412656 C22.7358077,34.8487344 22.0121946,34.125 21.1195074,34.125 C20.2266162,34.125 19.5030032,34.8487344 19.5030032,35.7412656 C19.5030032,36.6337969 20.2266162,37.3575313 21.1195074,37.3575313 C22.0121946,37.3575313 22.7358077,36.6337969 22.7358077,35.7412656 M47.1145106,30.8662656 C47.1145106,29.9737344 46.3908976,29.25 45.4982103,29.25 C44.6053192,29.25 43.8817061,29.9737344 43.8817061,30.8662656 C43.8817061,31.7587969 44.6053192,32.4825313 45.4982103,32.4825313 C46.3908976,32.4825313 47.1145106,31.7587969 47.1145106,30.8662656 M27.6116298,30.8662656 C27.6116298,29.9737344 26.8878128,29.25 25.9951256,29.25 C25.1024384,29.25 24.3786214,29.9737344 24.3786214,30.8662656 C24.3786214,31.7587969 25.1024384,32.4825313 25.9951256,32.4825313 C26.8878128,32.4825313 27.6116298,31.7587969 27.6116298,30.8662656 M8.10854509,30.8662656 C8.10854509,29.9737344 7.38493205,29.25 6.49224482,29.25 C5.59935364,29.25 4.87574059,29.9737344 4.87574059,30.8662656 C4.87574059,31.7587969 5.59935364,32.4825313 6.49224482,32.4825313 C7.38493205,32.4825313 8.10854509,31.7587969 8.10854509,30.8662656 M42.2388924,25.9912656 C42.2388924,25.0987344 41.5150754,24.375 40.6223882,24.375 C39.7297009,24.375 39.0058839,25.0987344 39.0058839,25.9912656 C39.0058839,26.8837969 39.7297009,27.6075313 40.6223882,27.6075313 C41.5150754,27.6075313 42.2388924,26.8837969 42.2388924,25.9912656 M12.9843673,25.9912656 C12.9843673,25.0987344 12.2607542,24.375 11.367863,24.375 C10.4751758,24.375 9.75156276,25.0987344 9.75156276,25.9912656 C9.75156276,26.8837969 10.4751758,27.6075313 11.367863,27.6075313 C12.2607542,27.6075313 12.9843673,26.8837969 12.9843673,25.9912656 M47.1145106,21.1162656 C47.1145106,20.2237344 46.3908976,19.5 45.4982103,19.5 C44.6053192,19.5 43.8817061,20.2237344 43.8817061,21.1162656 C43.8817061,22.0087969 44.6053192,22.7325312 45.4982103,22.7325312 C46.3908976,22.7325312 47.1145106,22.0087969 47.1145106,21.1162656 M42.2388924,21.1162656 C42.2388924,20.2237344 41.5150754,19.5 40.6223882,19.5 C39.7297009,19.5 39.0058839,20.2237344 39.0058839,21.1162656 C39.0058839,22.0087969 39.7297009,22.7325312 40.6223882,22.7325312 C41.5150754,22.7325312 42.2388924,22.0087969 42.2388924,21.1162656 M37.3630702,21.1162656 C37.3630702,20.2237344 36.6394572,19.5 35.746566,19.5 C34.8538788,19.5 34.1302657,20.2237344 34.1302657,21.1162656 C34.1302657,22.0087969 34.8538788,22.7325312 35.746566,22.7325312 C36.6394572,22.7325312 37.3630702,22.0087969 37.3630702,21.1162656 M27.6065311,21.1040781 C27.6065311,20.2137813 26.8847536,19.4920781 25.9943098,19.4920781 C25.103866,19.4920781 24.3820885,20.2137813 24.3820885,21.1040781 C24.3820885,21.994375 25.103866,22.7160781 25.9943098,22.7160781 C26.8847536,22.7160781 27.6065311,21.994375 27.6065311,21.1040781 M17.8601894,21.1162656 C17.8601894,20.2237344 17.1363724,19.5 16.2436852,19.5 C15.350998,19.5 14.627181,20.2237344 14.627181,21.1162656 C14.627181,22.0087969 15.350998,22.7325312 16.2436852,22.7325312 C17.1363724,22.7325312 17.8601894,22.0087969 17.8601894,21.1162656 M12.9841633,21.1162656 C12.9841633,20.2237344 12.2605503,19.5 11.367863,19.5 C10.4751758,19.5 9.75156276,20.2237344 9.75156276,21.1162656 C9.75156276,22.0087969 10.4751758,22.7323281 11.367863,22.7323281 C12.2605503,22.7323281 12.9841633,22.0087969 12.9841633,21.1162656 M8.10854509,21.1162656 C8.10854509,20.2237344 7.38493205,19.5 6.49224482,19.5 C5.59935364,19.5 4.87574059,20.2237344 4.87574059,21.1162656 C4.87574059,22.0087969 5.59935364,22.7325312 6.49224482,22.7325312 C7.38493205,22.7325312 8.10854509,22.0087969 8.10854509,21.1162656 M3.23292687,21.1162656 C3.23292687,20.2237344 2.50910988,19.5 1.61642265,19.5 C0.723735415,19.5 -8.15798248e-05,20.2237344 -8.15798248e-05,21.1162656 C-8.15798248e-05,22.0087969 0.723735415,22.7325312 1.61642265,22.7325312 C2.50910988,22.7325312 3.23292687,22.0087969 3.23292687,21.1162656 M42.2388924,16.2412656 C42.2388924,15.3487344 41.5150754,14.625 40.6223882,14.625 C39.7297009,14.625 39.0058839,15.3487344 39.0058839,16.2412656 C39.0058839,17.1337969 39.7297009,17.8575312 40.6223882,17.8575312 C41.5150754,17.8575312 42.2388924,17.1337969 42.2388924,16.2412656 M12.9843673,16.2412656 C12.9843673,15.3487344 12.2607542,14.625 11.367863,14.625 C10.4751758,14.625 9.75156276,15.3487344 9.75156276,16.2412656 C9.75156276,17.1337969 10.4751758,17.8575312 11.367863,17.8575312 C12.2607542,17.8575312 12.9843673,17.1337969 12.9843673,16.2412656 M47.1145106,11.3662656 C47.1145106,10.4737344 46.3908976,9.75 45.4982103,9.75 C44.6053192,9.75 43.8817061,10.4737344 43.8817061,11.3662656 C43.8817061,12.2587969 44.6053192,12.9825312 45.4982103,12.9825312 C46.3908976,12.9825312 47.1145106,12.2587969 47.1145106,11.3662656 M27.6116298,11.3662656 C27.6116298,10.4737344 26.8878128,9.75 25.9951256,9.75 C25.1024384,9.75 24.3786214,10.4737344 24.3786214,11.3662656 C24.3786214,12.2587969 25.1024384,12.9825312 25.9951256,12.9825312 C26.8878128,12.9825312 27.6116298,12.2587969 27.6116298,11.3662656 M8.10854509,11.3662656 C8.10854509,10.4737344 7.38493205,9.75 6.49224482,9.75 C5.59935364,9.75 4.87574059,10.4737344 4.87574059,11.3662656 C4.87574059,12.2587969 5.59935364,12.9825312 6.49224482,12.9825312 C7.38493205,12.9825312 8.10854509,12.2587969 8.10854509,11.3662656 M32.4872481,6.49126562 C32.4872481,5.59873437 31.763635,4.875 30.8709478,4.875 C29.9782605,4.875 29.2544436,5.59873437 29.2544436,6.49126562 C29.2544436,7.38379687 29.9782605,8.10753125 30.8709478,8.10753125 C31.763635,8.10753125 32.4872481,7.38379687 32.4872481,6.49126562 M27.6114259,6.49126562 C27.6114259,5.59873437 26.8878128,4.875 25.9951256,4.875 C25.1024384,4.875 24.3786214,5.59873437 24.3786214,6.49126562 C24.3786214,7.38379687 25.1024384,8.10732812 25.9951256,8.10732812 C26.8878128,8.10732812 27.6114259,7.38379687 27.6114259,6.49126562 M22.7358077,6.49126562 C22.7358077,5.59873437 22.0121946,4.875 21.1195074,4.875 C20.2266162,4.875 19.5030032,5.59873437 19.5030032,6.49126562 C19.5030032,7.38379687 20.2266162,8.10753125 21.1195074,8.10753125 C22.0121946,8.10753125 22.7358077,7.38379687 22.7358077,6.49126562 M37.3630702,1.61626562 C37.3630702,0.723734375 36.6394572,0 35.746566,0 C34.8538788,0 34.1302657,0.723734375 34.1302657,1.61626562 C34.1302657,2.50879687 34.8538788,3.23253125 35.746566,3.23253125 C36.6394572,3.23253125 37.3630702,2.50879687 37.3630702,1.61626562 M27.6116298,1.61626562 C27.6116298,0.723734375 26.8878128,0 25.9951256,0 C25.1024384,0 24.3786214,0.723734375 24.3786214,1.61626562 C24.3786214,2.50879687 25.1024384,3.23253125 25.9951256,3.23253125 C26.8878128,3.23253125 27.6116298,2.50879687 27.6116298,1.61626562 M17.8601894,1.61626562 C17.8601894,0.723734375 17.1363724,0 16.2436852,0 C15.350998,0 14.627181,0.723734375 14.627181,1.61626562 C14.627181,2.50879687 15.350998,3.23253125 16.2436852,3.23253125 C17.1363724,3.23253125 17.8601894,2.50879687 17.8601894,1.61626562" id="Fill-1" fill="#10161F" mask="url(#mask-3)"></path>
        </g>
        <path d="M26.573547,52 L25.4185806,52 C24.7796066,51.519 24.2411798,50.8679844 24.3986288,50.0837188 C24.5589332,49.2864531 25.271533,48.7150625 26.0912062,48.7621875 C26.8656027,48.806875 27.5447548,49.4138125 27.6161371,50.2766875 C27.6712035,50.9411094 27.1543953,51.5543438 26.573547,52" id="Fill-3" fill="#000000"></path>
        <g id="Grupo" stroke-width="1" transform="translate(48.7589, 24.3731)">
            <mask id="mask-5" fill="white">
                <use xlink:href="#path-4"></use>
            </mask>
            <g id="Clip-6"></g>
            <path d="M3.24116664,1.04953592 L3.24116664,2.20430154 C2.75943777,2.84170779 2.10679917,3.38202029 1.32485655,3.22358279 C0.52619007,3.06209842 -0.0438489551,2.34831717 0.00265154498,1.53114529 C0.0467046503,0.755410916 0.656921739,0.077989041 1.51820074,0.00425466597 C2.18266841,-0.052620334 2.79676054,0.469410916 3.24116664,1.04953592" id="Fill-5" fill="#000000" mask="url(#mask-5)"></path>
        </g>
        <path d="M26.6055466,0 L27.2131124,0.60165625 C27.8522903,1.23439062 27.671591,2.28109375 27.0919663,2.81104687 C26.4674728,3.38203125 25.5213508,3.38040625 24.8995086,2.81145313 C24.3158049,2.27764062 24.1369411,1.23560937 24.7787704,0.601046875 L25.3865401,0 L26.6055466,0 Z" id="Fill-7" fill="#000000"></path>
        <path d="M17.8601079,6.49945156 C17.8601079,7.39198281 17.1364948,8.11571719 16.2436036,8.11571719 C15.3509164,8.11571719 14.6273034,7.39198281 14.6273034,6.49945156 C14.6273034,5.60692031 15.3509164,4.88318594 16.2436036,4.88318594 C17.1364948,4.88318594 17.8601079,5.60692031 17.8601079,6.49945156" id="Fill-9" fill="#000000"></path>
        <path d="M27.611589,6.49945156 C27.611589,7.39198281 26.887976,8.11571719 25.9950848,8.11571719 C25.1023976,8.11571719 24.3787845,7.39198281 24.3787845,6.49945156 C24.3787845,5.60692031 25.1023976,4.88318594 25.9950848,4.88318594 C26.887976,4.88318594 27.611589,5.60692031 27.611589,6.49945156" id="Fill-11" fill="#000000"></path>
        <path d="M37.3630702,6.49945156 C37.3630702,7.39198281 36.6394572,8.11571719 35.746566,8.11571719 C34.8538788,8.11571719 34.1302657,7.39198281 34.1302657,6.49945156 C34.1302657,5.60692031 34.8538788,4.88318594 35.746566,4.88318594 C36.6394572,4.88318594 37.3630702,5.60692031 37.3630702,6.49945156" id="Fill-13" fill="#000000"></path>
        <path d="M22.7358484,11.3744516 C22.7358484,12.2669828 22.0122354,12.9907172 21.1193442,12.9907172 C20.226657,12.9907172 19.5030439,12.2669828 19.5030439,11.3744516 C19.5030439,10.4819203 20.226657,9.75818594 21.1193442,9.75818594 C22.0122354,9.75818594 22.7358484,10.4819203 22.7358484,11.3744516" id="Fill-15" fill="#000000"></path>
        <path d="M27.6114871,11.3743906 C27.6114871,12.2669219 26.887874,12.9904531 25.9951868,12.9904531 C25.1022956,12.9904531 24.3786826,12.2669219 24.3786826,11.3743906 C24.3786826,10.4818594 25.1022956,9.75832812 25.9951868,9.75832812 C26.887874,9.75832812 27.6114871,10.4818594 27.6114871,11.3743906" id="Fill-17" fill="#000000"></path>
        <path d="M32.4873296,11.3744516 C32.4873296,12.2669828 31.7637166,12.9907172 30.8708254,12.9907172 C29.9781382,12.9907172 29.2545251,12.2669828 29.2545251,11.3744516 C29.2545251,10.4819203 29.9781382,9.75818594 30.8708254,9.75818594 C31.7637166,9.75818594 32.4873296,10.4819203 32.4873296,11.3744516" id="Fill-19" fill="#000000"></path>
        <path d="M8.10860628,16.2494516 C8.10860628,17.1419828 7.38499323,17.8657172 6.49210205,17.8657172 C5.59941482,17.8657172 4.87580178,17.1419828 4.87580178,16.2494516 C4.87580178,15.3569203 5.59941482,14.6331859 6.49210205,14.6331859 C7.38499323,14.6331859 8.10860628,15.3569203 8.10860628,16.2494516" id="Fill-21" fill="#000000"></path>
        <path d="M27.611589,16.2494516 C27.611589,17.1419828 26.887976,17.8657172 25.9950848,17.8657172 C25.1023976,17.8657172 24.3787845,17.1419828 24.3787845,16.2494516 C24.3787845,15.3569203 25.1023976,14.6331859 25.9950848,14.6331859 C26.887976,14.6331859 27.611589,15.3569203 27.611589,16.2494516" id="Fill-23" fill="#000000"></path>
        <path d="M47.1145514,16.2494516 C47.1145514,17.1419828 46.3909384,17.8657172 45.4980472,17.8657172 C44.60536,17.8657172 43.8817469,17.1419828 43.8817469,16.2494516 C43.8817469,15.3569203 44.60536,14.6331859 45.4980472,14.6331859 C46.3909384,14.6331859 47.1145514,15.3569203 47.1145514,16.2494516" id="Fill-25" fill="#000000"></path>
        <path d="M12.9843673,21.1244516 C12.9843673,22.0169828 12.2607542,22.7407172 11.367863,22.7407172 C10.4751758,22.7407172 9.75156276,22.0169828 9.75156276,21.1244516 C9.75156276,20.2319203 10.4751758,19.5081859 11.367863,19.5081859 C12.2607542,19.5081859 12.9843673,20.2319203 12.9843673,21.1244516" id="Fill-27" fill="#000000"></path>
        <path d="M42.2388108,21.1244516 C42.2388108,22.0169828 41.5151978,22.7407172 40.6223066,22.7407172 C39.7296194,22.7407172 39.0060063,22.0169828 39.0060063,21.1244516 C39.0060063,20.2319203 39.7296194,19.5081859 40.6223066,19.5081859 C41.5151978,19.5081859 42.2388108,20.2319203 42.2388108,21.1244516" id="Fill-29" fill="#000000"></path>
        <path d="M3.23286569,25.9994516 C3.23286569,26.8919828 2.50925264,27.6157172 1.61636146,27.6157172 C0.72367423,27.6157172 6.11848685e-05,26.8919828 6.11848685e-05,25.9994516 C6.11848685e-05,25.1069203 0.72367423,24.3831859 1.61636146,24.3831859 C2.50925264,24.3831859 3.23286569,25.1069203 3.23286569,25.9994516" id="Fill-31" fill="#000000"></path>
        <path d="M8.10860628,25.9994516 C8.10860628,26.8919828 7.38499323,27.6157172 6.49210205,27.6157172 C5.59941482,27.6157172 4.87580178,26.8919828 4.87580178,25.9994516 C4.87580178,25.1069203 5.59941482,24.3831859 6.49210205,24.3831859 C7.38499323,24.3831859 8.10860628,25.1069203 8.10860628,25.9994516" id="Fill-33" fill="#000000"></path>
        <path d="M12.9842449,25.9993906 C12.9842449,26.8919219 12.2606319,27.6154531 11.3679446,27.6154531 C10.4750534,27.6154531 9.75144039,26.8919219 9.75144039,25.9993906 C9.75144039,25.1068594 10.4750534,24.3833281 11.3679446,24.3833281 C12.2606319,24.3833281 12.9842449,25.1068594 12.9842449,25.9993906" id="Fill-35" fill="#000000"></path>
        <path d="M17.8601079,25.9994516 C17.8601079,26.8919828 17.1364948,27.6157172 16.2436036,27.6157172 C15.3509164,27.6157172 14.6273034,26.8919828 14.6273034,25.9994516 C14.6273034,25.1069203 15.3509164,24.3831859 16.2436036,24.3831859 C17.1364948,24.3831859 17.8601079,25.1069203 17.8601079,25.9994516" id="Fill-37" fill="#000000"></path>
        <path d="M37.3630702,25.9994516 C37.3630702,26.8919828 36.6394572,27.6157172 35.746566,27.6157172 C34.8538788,27.6157172 34.1302657,26.8919828 34.1302657,25.9994516 C34.1302657,25.1069203 34.8538788,24.3831859 35.746566,24.3831859 C36.6394572,24.3831859 37.3630702,25.1069203 37.3630702,25.9994516" id="Fill-39" fill="#000000"></path>
        <path d="M42.2388108,25.9994516 C42.2388108,26.8919828 41.5151978,27.6157172 40.6223066,27.6157172 C39.7296194,27.6157172 39.0060063,26.8919828 39.0060063,25.9994516 C39.0060063,25.1069203 39.7296194,24.3831859 40.6223066,24.3831859 C41.5151978,24.3831859 42.2388108,25.1069203 42.2388108,25.9994516" id="Fill-41" fill="#000000"></path>
        <path d="M47.1145514,25.9994516 C47.1145514,26.8919828 46.3909384,27.6157172 45.4980472,27.6157172 C44.60536,27.6157172 43.8817469,26.8919828 43.8817469,25.9994516 C43.8817469,25.1069203 44.60536,24.3831859 45.4980472,24.3831859 C46.3909384,24.3831859 47.1145514,25.1069203 47.1145514,25.9994516" id="Fill-43" fill="#000000"></path>
        <path d="M12.9843673,30.8744516 C12.9843673,31.7669828 12.2607542,32.4907172 11.367863,32.4907172 C10.4751758,32.4907172 9.75156276,31.7669828 9.75156276,30.8744516 C9.75156276,29.9819203 10.4751758,29.2581859 11.367863,29.2581859 C12.2607542,29.2581859 12.9843673,29.9819203 12.9843673,30.8744516" id="Fill-45" fill="#000000"></path>
        <path d="M42.2388108,30.8744516 C42.2388108,31.7669828 41.5151978,32.4907172 40.6223066,32.4907172 C39.7296194,32.4907172 39.0060063,31.7669828 39.0060063,30.8744516 C39.0060063,29.9819203 39.7296194,29.2581859 40.6223066,29.2581859 C41.5151978,29.2581859 42.2388108,29.9819203 42.2388108,30.8744516" id="Fill-47" fill="#000000"></path>
        <path d="M8.10860628,35.7494516 C8.10860628,36.6419828 7.38499323,37.3657172 6.49210205,37.3657172 C5.59941482,37.3657172 4.87580178,36.6419828 4.87580178,35.7494516 C4.87580178,34.8569203 5.59941482,34.1331859 6.49210205,34.1331859 C7.38499323,34.1331859 8.10860628,34.8569203 8.10860628,35.7494516" id="Fill-49" fill="#000000"></path>
        <path d="M27.611589,35.7494516 C27.611589,36.6419828 26.887976,37.3657172 25.9950848,37.3657172 C25.1023976,37.3657172 24.3787845,36.6419828 24.3787845,35.7494516 C24.3787845,34.8569203 25.1023976,34.1331859 25.9950848,34.1331859 C26.887976,34.1331859 27.611589,34.8569203 27.611589,35.7494516" id="Fill-51" fill="#000000"></path>
        <path d="M47.1145514,35.7494516 C47.1145514,36.6419828 46.3909384,37.3657172 45.4980472,37.3657172 C44.60536,37.3657172 43.8817469,36.6419828 43.8817469,35.7494516 C43.8817469,34.8569203 44.60536,34.1331859 45.4980472,34.1331859 C46.3909384,34.1331859 47.1145514,34.8569203 47.1145514,35.7494516" id="Fill-53" fill="#000000"></path>
        <path d="M22.7358484,40.6244516 C22.7358484,41.5169828 22.0122354,42.2407172 21.1193442,42.2407172 C20.226657,42.2407172 19.5030439,41.5169828 19.5030439,40.6244516 C19.5030439,39.7319203 20.226657,39.0081859 21.1193442,39.0081859 C22.0122354,39.0081859 22.7358484,39.7319203 22.7358484,40.6244516" id="Fill-55" fill="#000000"></path>
        <path d="M27.611589,40.6244516 C27.611589,41.5169828 26.887976,42.2407172 25.9950848,42.2407172 C25.1023976,42.2407172 24.3787845,41.5169828 24.3787845,40.6244516 C24.3787845,39.7319203 25.1023976,39.0081859 25.9950848,39.0081859 C26.887976,39.0081859 27.611589,39.7319203 27.611589,40.6244516" id="Fill-57" fill="#000000"></path>
        <path d="M32.4873296,40.6244516 C32.4873296,41.5169828 31.7637166,42.2407172 30.8708254,42.2407172 C29.9781382,42.2407172 29.2545251,41.5169828 29.2545251,40.6244516 C29.2545251,39.7319203 29.9781382,39.0081859 30.8708254,39.0081859 C31.7637166,39.0081859 32.4873296,39.7319203 32.4873296,40.6244516" id="Fill-59" fill="#000000"></path>
        <path d="M17.8601079,45.4994516 C17.8601079,46.3919828 17.1364948,47.1157172 16.2436036,47.1157172 C15.3509164,47.1157172 14.6273034,46.3919828 14.6273034,45.4994516 C14.6273034,44.6069203 15.3509164,43.8831859 16.2436036,43.8831859 C17.1364948,43.8831859 17.8601079,44.6069203 17.8601079,45.4994516" id="Fill-61" fill="#000000"></path>
        <path d="M27.611589,45.4994516 C27.611589,46.3919828 26.887976,47.1157172 25.9950848,47.1157172 C25.1023976,47.1157172 24.3787845,46.3919828 24.3787845,45.4994516 C24.3787845,44.6069203 25.1023976,43.8831859 25.9950848,43.8831859 C26.887976,43.8831859 27.611589,44.6069203 27.611589,45.4994516" id="Fill-63" fill="#000000"></path>
        <path d="M37.3630702,45.4994516 C37.3630702,46.3919828 36.6394572,47.1157172 35.746566,47.1157172 C34.8538788,47.1157172 34.1302657,46.3919828 34.1302657,45.4994516 C34.1302657,44.6069203 34.8538788,43.8831859 35.746566,43.8831859 C36.6394572,43.8831859 37.3630702,44.6069203 37.3630702,45.4994516" id="Fill-65" fill="#000000"></path>
        <path d="M27.6065719,25.9872031 C27.6065719,26.8775 26.8847944,27.5992031 25.9943506,27.5992031 C25.1039068,27.5992031 24.3821293,26.8775 24.3821293,25.9872031 C24.3821293,25.0969062 25.1039068,24.3752031 25.9943506,24.3752031 C26.8847944,24.3752031 27.6065719,25.0969062 27.6065719,25.9872031" id="Fill-67" fill="#000000"></path>
    </g>
</svg>