<?xml version="1.0" encoding="UTF-8"?>
<svg width="53px" height="53px" viewBox="0 0 53 53" version="1.1" xmlns="http://www.w3.org/2000/svg" xmlns:xlink="http://www.w3.org/1999/xlink">
    <title>Artboard 1</title>
    <defs>
        <path d="M0,0 L53,0 L53,53 L0,53 L0,0 Z" id="path-1"></path>
        <polygon id="path-2" points="0 0 3.31305704 0 3.31305704 3.30988757 0 3.30988757"></polygon>
        <polygon id="path-4" points="0 0 3.30986069 0 3.30986069 3.31413387 0 3.31413387"></polygon>
        <polygon id="path-6" points="0 0 3.31124885 0 3.31124885 3.3028246 0 3.3028246"></polygon>
        <polygon id="path-8" points="0 0 3.31124885 0 3.31124885 3.3028246 0 3.3028246"></polygon>
        <polygon id="path-10" points="0 0 3.29800323 0 3.29800323 3.30785529 0 3.30785529"></polygon>
    </defs>
    <g id="Artboard-1" stroke="none" fill="none" transform="translate(0, -0)" xlink:href="#path-1" fill-rule="evenodd">
        <g id="Grupo" stroke-width="1" transform="translate(49.6869, 49.6901)">
            <mask id="mask-3" fill="white">
                <use xlink:href="#path-2"></use>
            </mask>
            <g id="Clip-2"></g>
            <path d="M1.55542384,0.00550319493 C0.799966806,0.0765149137 0.154443369,0.660136007 0.0258769623,1.35513991 C-0.128154288,2.18740554 0.429173837,2.8205071 1.06827931,3.30992898 L3.31311915,3.30992898 L3.31311915,1.06508913 C2.86220509,0.485194601 2.26181446,-0.0609538363 1.55542384,0.00550319493" id="Fill-1" fill="#000000" mask="url(#mask-3)"></path>
        </g>
        <g id="Grupo" stroke-width="1" transform="translate(0, 49.6859)">
            <mask id="mask-5" fill="white">
                <use xlink:href="#path-4"></use>
            </mask>
            <g id="Clip-4"></g>
            <path d="M1.95663164,0.0271608204 C1.14651836,-0.130389961 0.515901172,0.422590508 -2.0703125e-05,1.03685223 L-2.0703125e-05,3.31419598 L2.24481914,3.31419598 C2.82036602,2.86431707 3.36589336,2.26682488 3.3052332,1.55774285 C3.24167461,0.813051445 2.66033086,0.164008477 1.95663164,0.0271608204" id="Fill-3" fill="#000000" mask="url(#mask-5)"></path>
        </g>
        <path d="M2.27734375,0 L0,0 L0,2.27734375 C0.516957031,2.88684375 1.13929297,3.44562109 1.95665234,3.28496484 C2.63964844,3.15080859 3.24148828,2.50776953 3.31105078,1.75914453 C3.37481641,1.07407812 2.82576953,0.47203125 2.27734375,0" id="Fill-5" fill="#000000"></path>
        <path d="M50.7226563,0 C50.1653281,0.474929688 49.6324297,1.07718359 49.6870859,1.75914453 C49.7489883,2.53157813 50.3615938,3.14190625 51.052457,3.28248047 C51.8778906,3.45038281 52.5124414,2.87483594 53,2.24483984 L53,0 L50.7226563,0 Z" id="Fill-7" fill="#000000"></path>
        <path d="M47.4916438,2.86498125 C48.0823039,2.32504375 48.2663547,1.25800469 47.6154484,0.613309375 L46.9960109,8.28125e-05 L45.7538234,8.28125e-05 L45.134593,0.61248125 C44.4803742,1.25924687 44.6627688,2.32131719 45.2575695,2.86560234 C45.8908781,3.44528984 46.8552297,3.44673906 47.4916438,2.86498125" id="Fill-9" fill="#000000"></path>
        <path d="M2.86558164,7.74104336 C3.44133555,7.10959805 3.4429918,6.1373793 2.86640977,5.50759023 C2.32129648,4.9117543 1.25901914,4.73101602 0.612460547,5.3848207 L6.2109375e-05,6.00384414 L6.2109375e-05,7.24603164 L0.613495703,7.86505508 C1.26108945,8.5184457 2.32108945,8.33812148 2.86558164,7.74104336" id="Fill-11" fill="#000000"></path>
        <g id="Grupo" stroke-width="1" transform="translate(44.719, 49.6972)">
            <mask id="mask-7" fill="white">
                <use xlink:href="#path-6"></use>
            </mask>
            <g id="Clip-14"></g>
            <path d="M1.75295609,0.00276717896 C0.917792031,-0.045264071 0.191319375,0.537114835 0.0281787501,1.34971249 C-0.132270469,2.14906015 0.416362344,2.8125953 1.06747563,3.3028453 L2.24444828,3.3028453 C2.83635063,2.84861874 3.36324516,2.2235914 3.30713969,1.54639218 C3.23426469,0.666923429 2.54215922,0.048314054 1.75295609,0.00276717896" id="Fill-13" fill="#000000" mask="url(#mask-7)"></path>
        </g>
        <path d="M41.5019398,49.6999012 C40.6889281,49.6543543 39.9506547,50.2526746 39.7813031,51.0464324 C39.6105023,51.8468152 40.1701078,52.5097293 40.8177016,52.9999793 L41.9946742,52.9999793 C42.5849203,52.5465809 43.112643,51.9240379 43.0571586,51.2443543 C42.9857328,50.3710965 42.2996313,49.7446199 41.5019398,49.6999012" id="Fill-15" fill="#000000"></path>
        <path d="M11.6903508,49.7007086 C10.8535305,49.6508141 10.128507,50.2365055 9.9659875,51.0472398 C9.80553828,51.8474156 10.3547922,52.5099156 11.0052844,52.9999586 L12.182257,52.9999586 C12.7737453,52.545525 13.3022961,51.9211188 13.2437063,51.2437125 C13.1677258,50.3671422 12.4758273,49.7477047 11.6903508,49.7007086" id="Fill-17" fill="#000000"></path>
        <path d="M51.244168,4.97119297 C50.3663555,5.04634531 49.7446406,5.73679453 49.6997148,6.52744687 C49.6523047,7.36033359 50.2332344,8.08784141 51.0470742,8.25243125 C51.8441445,8.41370859 52.5091289,7.8632125 53,7.21354844 L53,6.03657578 C52.5472227,5.44529453 51.9213672,4.91322422 51.244168,4.97119297" id="Fill-19" fill="#000000"></path>
        <g id="Grupo" stroke-width="1" transform="translate(4.969, 49.6972)">
            <mask id="mask-9" fill="white">
                <use xlink:href="#path-8"></use>
            </mask>
            <g id="Clip-22"></g>
            <path d="M1.75295609,0.00276717896 C0.917792031,-0.045264071 0.191319375,0.537114835 0.0281787501,1.34971249 C-0.132270469,2.14906015 0.416362344,2.8125953 1.06747563,3.3028453 L2.24444828,3.3028453 C2.83635063,2.84861874 3.36324516,2.2235914 3.30713969,1.54639218 C3.23426469,0.666923429 2.54215922,0.048314054 1.75295609,0.00276717896" id="Fill-21" fill="#000000" mask="url(#mask-9)"></path>
        </g>
        <path d="M12.7104766,2.86514687 C13.3013438,2.32500234 13.4853945,1.25817031 12.8340742,0.613267969 L12.2148438,4.140625e-05 L10.9726563,4.140625e-05 L10.3532188,0.612646875 C9.69920703,1.2594125 9.88139453,2.32148281 10.4761953,2.86556094 C11.109918,3.44524844 12.0742695,3.44690469 12.7104766,2.86514687" id="Fill-23" fill="#000000"></path>
        <path d="M7.74172656,2.86514687 C8.33259375,2.32500234 8.51664453,1.25817031 7.86532422,0.613267969 L7.24609375,4.140625e-05 L6.00390625,4.140625e-05 L5.38446875,0.612646875 C4.73045703,1.2594125 4.91264453,2.32148281 5.50744531,2.86556094 C6.14116797,3.44524844 7.10551953,3.44690469 7.74172656,2.86514687" id="Fill-25" fill="#000000"></path>
        <path d="M42.5229352,2.86493984 C43.1135953,2.32479531 43.2976461,1.25796328 42.6467398,0.613267969 L42.0273023,4.140625e-05 L40.7851148,4.140625e-05 L40.1656773,0.612439844 C39.5116656,1.2594125 39.6940602,2.32148281 40.2886539,2.86493984 C40.9232047,3.44483437 41.8863141,3.44711172 42.5229352,2.86493984" id="Fill-27" fill="#000000"></path>
        <path d="M51.244168,44.721193 C50.3663555,44.7963453 49.7446406,45.4867945 49.6997148,46.2774469 C49.6523047,47.1103336 50.2332344,47.8376344 51.0470742,48.0024313 C51.8441445,48.1637086 52.5091289,47.6132125 53,46.9635484 L53,45.7865758 C52.5472227,45.1952945 51.9213672,44.6632242 51.244168,44.721193" id="Fill-29" fill="#000000"></path>
        <g id="Grupo" stroke-width="1" transform="translate(0, 44.7209)">
            <mask id="mask-11" fill="white">
                <use xlink:href="#path-10"></use>
            </mask>
            <g id="Clip-32"></g>
            <path d="M2.86543672,2.77010199 C3.44119062,2.13865668 3.44284687,1.16623089 2.86647187,0.536855895 C2.32115156,-0.0589800427 1.25908125,-0.239718324 0.612522656,0.413879332 L-8.28125012e-05,1.0331098 L-8.28125012e-05,2.2752973 L0.613557812,2.89432074 C1.26094453,3.54750433 2.32115156,3.36697308 2.86543672,2.77010199" id="Fill-31" fill="#000000" mask="url(#mask-11)"></path>
        </g>
        <path d="M46.3735922,8.2726168 C47.2834945,8.2726168 48.0211469,7.53496445 48.0211469,6.62506211 C48.0211469,5.71515977 47.2834945,4.97750742 46.3735922,4.97750742 C45.4636898,4.97750742 44.7260375,5.71515977 44.7260375,6.62506211 C44.7260375,7.53496445 45.4636898,8.2726168 46.3735922,8.2726168" id="Fill-33" fill="#000000"></path>
        <path d="M26.498323,13.2407664 C27.4084324,13.2407664 28.1460848,12.5031141 28.1460848,11.5930047 C28.1460848,10.6828953 27.4084324,9.94524297 26.498323,9.94524297 C25.5882137,9.94524297 24.8505613,10.6828953 24.8505613,11.5930047 C24.8505613,12.5031141 25.5882137,13.2407664 26.498323,13.2407664" id="Fill-35" fill="#000000"></path>
        <path d="M6.62413047,18.209268 C7.53403281,18.209268 8.27147813,17.4718227 8.27147813,16.5619203 C8.27147813,15.652225 7.53403281,14.9145727 6.62413047,14.9145727 C5.71422813,14.9145727 4.97678281,15.652225 4.97678281,16.5619203 C4.97678281,17.4718227 5.71422813,18.209268 6.62413047,18.209268" id="Fill-37" fill="#000000"></path>
        <path d="M21.5303391,18.2091645 C22.4400344,18.2091645 23.1776867,17.4717191 23.1776867,16.5618168 C23.1776867,15.6521215 22.4400344,14.9146762 21.5303391,14.9146762 C20.6206438,14.9146762 19.8829914,15.6521215 19.8829914,16.5618168 C19.8829914,17.4717191 20.6206438,18.2091645 21.5303391,18.2091645" id="Fill-39" fill="#000000"></path>
        <path d="M26.498323,18.2095164 C27.4084324,18.2095164 28.1460848,17.4718641 28.1460848,16.5617547 C28.1460848,15.6516453 27.4084324,14.913993 26.498323,14.913993 C25.5882137,14.913993 24.8505613,15.6516453 24.8505613,16.5617547 C24.8505613,17.4718641 25.5882137,18.2095164 26.498323,18.2095164" id="Fill-41" fill="#000000"></path>
        <path d="M31.4678391,18.2091645 C32.3775344,18.2091645 33.1151867,17.4717191 33.1151867,16.5618168 C33.1151867,15.6521215 32.3775344,14.9146762 31.4678391,14.9146762 C30.5581438,14.9146762 29.8204914,15.6521215 29.8204914,16.5618168 C29.8204914,17.4717191 30.5581438,18.2091645 31.4678391,18.2091645" id="Fill-43" fill="#000000"></path>
        <path d="M46.3741305,14.9146555 C45.4642281,14.9146555 44.7267828,15.6521008 44.7267828,16.5620031 C44.7267828,17.4716984 45.4642281,18.2093508 46.3741305,18.2093508 C47.2840328,18.2093508 48.0214781,17.4716984 48.0214781,16.5620031 C48.0214781,15.6521008 47.2840328,14.9146555 46.3741305,14.9146555" id="Fill-45" fill="#000000"></path>
        <path d="M11.5928805,19.8834055 C10.6829781,19.8834055 9.94553281,20.6208508 9.94553281,21.5307531 C9.94553281,22.4404484 10.6829781,23.1781008 11.5928805,23.1781008 C12.5027828,23.1781008 13.2402281,22.4404484 13.2402281,21.5307531 C13.2402281,20.6208508 12.5027828,19.8834055 11.5928805,19.8834055" id="Fill-47" fill="#000000"></path>
        <path d="M26.498323,23.1782664 C27.4084324,23.1782664 28.1460848,22.4406141 28.1460848,21.5305047 C28.1460848,20.6203953 27.4084324,19.882743 26.498323,19.882743 C25.5882137,19.882743 24.8505613,20.6203953 24.8505613,21.5305047 C24.8505613,22.4406141 25.5882137,23.1782664 26.498323,23.1782664" id="Fill-49" fill="#000000"></path>
        <path d="M41.4053805,19.8834055 C40.4954781,19.8834055 39.7580328,20.6208508 39.7580328,21.5307531 C39.7580328,22.4404484 40.4954781,23.1781008 41.4053805,23.1781008 C42.3152828,23.1781008 43.0527281,22.4404484 43.0527281,21.5307531 C43.0527281,20.6208508 42.3152828,19.8834055 41.4053805,19.8834055" id="Fill-51" fill="#000000"></path>
        <path d="M11.5928391,29.8208848 C10.6831438,29.8208848 9.94549141,30.5583301 9.94549141,31.4682324 C9.94549141,32.3779277 10.6831438,33.115373 11.5928391,33.115373 C12.5025344,33.115373 13.2401867,32.3779277 13.2401867,31.4682324 C13.2401867,30.5583301 12.5025344,29.8208848 11.5928391,29.8208848" id="Fill-53" fill="#000000"></path>
        <path d="M41.4053805,29.8209055 C40.4954781,29.8209055 39.7580328,30.5583508 39.7580328,31.4682531 C39.7580328,32.3779484 40.4954781,33.1156008 41.4053805,33.1156008 C42.3152828,33.1156008 43.0527281,32.3779484 43.0527281,31.4682531 C43.0527281,30.5583508 42.3152828,29.8209055 41.4053805,29.8209055" id="Fill-55" fill="#000000"></path>
        <path d="M6.62404766,38.0840816 C7.53374297,38.0840816 8.27118828,37.3466363 8.27118828,36.436941 C8.27118828,35.5270387 7.53374297,34.7895934 6.62404766,34.7895934 C5.71435234,34.7895934 4.9767,35.5270387 4.9767,36.436941 C4.9767,37.3466363 5.71435234,38.0840816 6.62404766,38.0840816" id="Fill-57" fill="#000000"></path>
        <path d="M21.5303391,34.7896555 C20.6206438,34.7896555 19.8829914,35.5271008 19.8829914,36.4370031 C19.8829914,37.3466984 20.6206438,38.0841437 21.5303391,38.0841437 C22.4400344,38.0841437 23.1776867,37.3466984 23.1776867,36.4370031 C23.1776867,35.5271008 22.4400344,34.7896555 21.5303391,34.7896555" id="Fill-59" fill="#000000"></path>
        <path d="M26.4990891,34.7896555 C25.5893938,34.7896555 24.8517414,35.5271008 24.8517414,36.4370031 C24.8517414,37.3466984 25.5893938,38.0841437 26.4990891,38.0841437 C27.4087844,38.0841437 28.1464367,37.3466984 28.1464367,36.4370031 C28.1464367,35.5271008 27.4087844,34.7896555 26.4990891,34.7896555" id="Fill-61" fill="#000000"></path>
        <path d="M31.4678391,34.7896555 C30.5581438,34.7896555 29.8204914,35.5271008 29.8204914,36.4370031 C29.8204914,37.3466984 30.5581438,38.0841437 31.4678391,38.0841437 C32.3775344,38.0841437 33.1151867,37.3466984 33.1151867,36.4370031 C33.1151867,35.5271008 32.3775344,34.7896555 31.4678391,34.7896555" id="Fill-63" fill="#000000"></path>
        <path d="M48.0213332,36.436941 C48.0213332,35.5272457 47.2838879,34.7895934 46.3739855,34.7895934 C45.4642902,34.7895934 44.7268449,35.5272457 44.7268449,36.436941 C44.7268449,37.3466363 45.4642902,38.0842887 46.3739855,38.0842887 C47.2838879,38.0842887 48.0213332,37.3466363 48.0213332,36.436941" id="Fill-65" fill="#000000"></path>
        <path d="M6.62535195,39.759482 C5.71627773,39.759482 4.97924648,40.4965133 4.97924648,41.4055875 C4.97924648,42.3148688 5.71627773,43.051693 6.62535195,43.051693 C7.53442617,43.051693 8.27145742,42.3148688 8.27145742,41.4055875 C8.27145742,40.4965133 7.53442617,39.759482 6.62535195,39.759482" id="Fill-67" fill="#000000"></path>
        <path d="M46.3747516,43.0525004 C47.2844469,43.0525004 48.0216852,42.3150551 48.0216852,41.4055668 C48.0216852,40.4958715 47.2844469,39.7586332 46.3747516,39.7586332 C45.4650563,39.7586332 44.727818,40.4958715 44.727818,41.4055668 C44.727818,42.3150551 45.4650563,43.0525004 46.3747516,43.0525004" id="Fill-69" fill="#000000"></path>
        <path d="M6.62332305,44.7262031 C5.7134207,44.7262031 4.97597539,45.4636484 4.97597539,46.3735508 C4.97597539,47.2832461 5.7134207,48.0206914 6.62332305,48.0206914 C7.53301836,48.0206914 8.2706707,47.2832461 8.2706707,46.3735508 C8.2706707,45.4636484 7.53301836,44.7262031 6.62332305,44.7262031" id="Fill-71" fill="#000000"></path>
        <path d="M11.592984,44.7266172 C10.6839098,44.7266172 9.94687852,45.4636484 9.94687852,46.3727227 C9.94687852,47.2817969 10.6839098,48.0188281 11.592984,48.0188281 C12.5020582,48.0188281 13.2390895,47.2817969 13.2390895,46.3727227 C13.2390895,45.4636484 12.5020582,44.7266172 11.592984,44.7266172" id="Fill-73" fill="#000000"></path>
        <path d="M41.4040762,44.728791 C40.4945879,44.728791 39.7573496,45.4660293 39.7573496,46.3755176 C39.7573496,47.2850059 40.4945879,48.0222441 41.4040762,48.0222441 C42.3135645,48.0222441 43.0508027,47.2850059 43.0508027,46.3755176 C43.0508027,45.4660293 42.3135645,44.728791 41.4040762,44.728791" id="Fill-75" fill="#000000"></path>
        <path d="M46.3738406,48.0209813 C47.2843641,48.0209813 48.0226375,47.2827078 48.0226375,46.3721844 C48.0226375,45.4616609 47.2843641,44.7235945 46.3738406,44.7235945 C45.4633172,44.7235945 44.7250438,45.4616609 44.7250438,46.3721844 C44.7250438,47.2827078 45.4633172,48.0209813 46.3738406,48.0209813" id="Fill-77" fill="#000000"></path>
        <path d="M46.3697,13.2400832 C47.2798094,13.2400832 48.0174617,12.5024309 48.0174617,11.5923215 C48.0174617,10.6822121 47.2798094,9.94455977 46.3697,9.94455977 C45.4595906,9.94455977 44.7219383,10.6822121 44.7219383,11.5923215 C44.7219383,12.5024309 45.4595906,13.2400832 46.3697,13.2400832" id="Fill-79" fill="#000000"></path>
        <path d="M6.62793984,9.94590547 C5.71865859,9.94590547 4.98142031,10.6831437 4.98142031,11.592425 C4.98142031,12.5017062 5.71865859,13.2387375 6.62793984,13.2387375 C7.53722109,13.2387375 8.27445938,12.5017062 8.27445938,11.592425 C8.27445938,10.6831437 7.53722109,9.94590547 6.62793984,9.94590547" id="Fill-81" fill="#000000"></path>
        <path d="M41.4055461,8.27425234 C42.3150344,8.27425234 43.0520656,7.53701406 43.0520656,6.62773281 C43.0520656,5.71824453 42.3150344,4.98100625 41.4055461,4.98100625 C40.4960578,4.98100625 39.7590266,5.71824453 39.7590266,6.62773281 C39.7590266,7.53701406 40.4960578,8.27425234 41.4055461,8.27425234" id="Fill-83" fill="#000000"></path>
        <path d="M11.5919281,8.27185078 C12.5010023,8.27185078 13.2378266,7.53502656 13.2378266,6.62595234 C13.2378266,5.71687812 12.5010023,4.98005391 11.5919281,4.98005391 C10.6828539,4.98005391 9.94602969,5.71687812 9.94602969,6.62595234 C9.94602969,7.53502656 10.6828539,8.27185078 11.5919281,8.27185078" id="Fill-85" fill="#000000"></path>
        <path d="M6.62504141,8.27269961 C7.53473672,8.27269961 8.27218203,7.5352543 8.27218203,6.62555898 C8.27218203,5.71586367 7.53473672,4.97841836 6.62504141,4.97841836 C5.71534609,4.97841836 4.97790078,5.71586367 4.97790078,6.62555898 C4.97790078,7.5352543 5.71534609,8.27269961 6.62504141,8.27269961" id="Fill-87" fill="#000000"></path>
        <path d="M26.499793,29.8240316 C25.5905117,29.8240316 24.8534805,30.5610629 24.8534805,31.4703441 C24.8534805,32.3796254 25.5905117,33.1168637 26.499793,33.1168637 C27.4090742,33.1168637 28.1461055,32.3796254 28.1461055,31.4703441 C28.1461055,30.5610629 27.4090742,29.8240316 26.499793,29.8240316" id="Fill-89" fill="#000000"></path>
        <path d="M31.4668867,29.8229758 C30.5578125,29.8229758 29.8207813,30.560007 29.8207813,31.4690812 C29.8207813,32.3783625 30.5578125,33.1153937 31.4668867,33.1153937 C32.376168,33.1153937 33.1131992,32.3783625 33.1131992,31.4690812 C33.1131992,30.560007 32.376168,29.8229758 31.4668867,29.8229758" id="Fill-91" fill="#000000"></path>
        <path d="M21.5190145,33.1197207 C22.4272605,33.1197207 23.1636707,32.3835176 23.1636707,31.4750645 C23.1636707,30.5668184 22.4272605,29.8306152 21.5190145,29.8306152 C20.6107684,29.8306152 19.8743582,30.5668184 19.8743582,31.4750645 C19.8743582,32.3835176 20.6107684,33.1197207 21.5190145,33.1197207" id="Fill-93" fill="#000000"></path>
    </g>
</svg>