<?xml version="1.0" encoding="UTF-8"?>
<svg width="56px" height="51px" viewBox="0 0 56 51" version="1.1" xmlns="http://www.w3.org/2000/svg" xmlns:xlink="http://www.w3.org/1999/xlink">
    <title>Artboard 1</title>
    <defs>
        <path d="M0,0 L56,0 L56,51 L0,51 L0,0 Z" id="path-1"></path>
    </defs>
    <g id="Artboard-1" stroke="none" fill="none" transform="translate(0, -0)" xlink:href="#path-1" fill-rule="evenodd">
        <path d="M33.90625,8.79355829e-05 L34.56075,0.651470766 C35.2485,1.33582944 35.0538125,2.46887942 34.4297187,3.04221943 C33.7575,3.66018673 32.7385625,3.65842802 32.0691875,3.04309878 C31.4407187,2.46514216 31.2482187,1.33736831 31.93925,0.65059141 L32.59375,8.79355829e-05 L33.90625,8.79355829e-05 Z" id="Fill-1" fill="#000000"></path>
        <path d="M44.40625,8.79355829e-05 L45.06075,0.651250927 C45.7485,1.33582944 45.5538125,2.46887942 44.9299375,3.04221943 C44.2570625,3.66040657 43.2392187,3.65842802 42.5691875,3.04243926 C41.9411562,2.46492232 41.748,1.33758815 42.43925,0.65059141 L43.09375,8.79355829e-05 L44.40625,8.79355829e-05 Z" id="Fill-3" fill="#000000"></path>
        <path d="M49.65625,8.79355829e-05 L50.31075,0.651470766 C50.9985,1.33582944 50.8038125,2.46887942 50.1797187,3.04221943 C49.5075,3.66018673 48.4885625,3.65842802 47.8191875,3.04309878 C47.1907187,2.46514216 46.9982187,1.33736831 47.68925,0.65059141 L48.34375,8.79355829e-05 L49.65625,8.79355829e-05 Z" id="Fill-5" fill="#000000"></path>
        <path d="M56,6.41004233 L56,7.6598268 C55.4813438,8.34968145 54.7787188,8.93445308 53.9365313,8.76297869 C53.076625,8.58820672 52.4628125,7.81569262 52.5129063,6.9312805 C52.560375,6.09171552 53.2172812,5.3585526 54.1447813,5.27875106 C54.8600938,5.21719615 55.5215938,5.78218227 56,6.41004233" id="Fill-7" fill="#000000"></path>
        <path d="M28.65625,8.79355829e-05 L29.31075,0.651470766 C29.9985,1.33582944 29.8038125,2.46887942 29.1797187,3.04221943 C28.5075,3.66018673 27.4885625,3.65842802 26.8191875,3.04309878 C26.1907188,2.46514216 25.9982188,1.33736831 26.68925,0.65059141 L27.34375,8.79355829e-05 L28.65625,8.79355829e-05 Z" id="Fill-9" fill="#000000"></path>
        <path d="M0,34.0751263 L0,32.7560926 L0.6470625,32.0985542 C1.3304375,31.4045226 2.45240625,31.5964421 3.0288125,32.2291386 C3.63759375,32.8976688 3.6360625,33.9300326 3.02771875,34.6005414 C2.452625,35.2343371 1.3321875,35.4260367 0.64815625,34.7324448 L0,34.0751263 Z" id="Fill-11" fill="#000000"></path>
        <path d="M0,49.9035312 L0,48.5844975 L0.6470625,47.9269592 C1.3304375,47.2329276 2.45240625,47.424847 3.0288125,48.0575435 C3.63759375,48.7260738 3.6360625,49.7584375 3.02771875,50.4289463 C2.452625,51.062742 1.3321875,51.2544416 0.64815625,50.5608497 L0,49.9035312 Z" id="Fill-13" fill="#000000"></path>
        <path d="M0,39.3512613 L0,38.0322275 L0.64946875,37.3779868 C1.4595,36.5617247 2.807,36.9512794 3.28125,37.8605333 C3.75834375,38.775503 3.37815625,39.8735986 2.438625,40.2954696 C1.46409375,40.7327293 0.62453125,40.1789549 0,39.3512613" id="Fill-15" fill="#000000"></path>
        <path d="M0,44.6273962 L0,43.3083625 L0.6470625,42.6506043 C1.330875,41.9556934 2.4504375,42.1517897 3.0261875,42.7838267 C3.6360625,43.4532364 3.63628125,44.4836216 3.0275,45.153251 C2.45109375,45.7870467 1.33175,45.9780868 0.6479375,45.2844949 L0,44.6273962 Z" id="Fill-17" fill="#000000"></path>
        <path d="M38.9375,8.79355829e-05 C39.8993437,0.465487008 40.5216875,1.45168457 40.0997187,2.439421 C39.661125,3.46562926 38.4365625,3.80747884 37.5482187,3.22226753 C36.6555,2.63397848 36.4514062,1.33099298 37.279375,0.539572737 L37.84375,8.79355829e-05 L38.9375,8.79355829e-05 Z" id="Fill-19" fill="#000000"></path>
        <path d="M8.7394125,33.4149499 C8.7394125,34.3809223 7.960225,35.1639887 6.9990375,35.1639887 C6.03763125,35.1639887 5.25844375,34.3809223 5.25844375,33.4149499 C5.25844375,32.4489775 6.03763125,31.6659112 6.9990375,31.6659112 C7.960225,31.6659112 8.7394125,32.4489775 8.7394125,33.4149499" id="Fill-21" fill="#000000"></path>
        <path d="M24.4894125,7.03427505 C24.4894125,8.00024743 23.710225,8.78331379 22.7490375,8.78331379 C21.7876312,8.78331379 21.0084437,8.00024743 21.0084437,7.03427505 C21.0084437,6.06830267 21.7876312,5.28523631 22.7490375,5.28523631 C23.710225,5.28523631 24.4894125,6.06830267 24.4894125,7.03427505" id="Fill-23" fill="#000000"></path>
        <path d="M29.7394125,7.03427505 C29.7394125,8.00024743 28.960225,8.78331379 27.9990375,8.78331379 C27.0376313,8.78331379 26.2584438,8.00024743 26.2584438,7.03427505 C26.2584438,6.06830267 27.0376313,5.28523631 27.9990375,5.28523631 C28.960225,5.28523631 29.7394125,6.06830267 29.7394125,7.03427505" id="Fill-25" fill="#000000"></path>
        <path d="M34.9894125,7.03427505 C34.9894125,8.00024743 34.210225,8.78331379 33.2490375,8.78331379 C32.2876313,8.78331379 31.5084438,8.00024743 31.5084438,7.03427505 C31.5084438,6.06830267 32.2876313,5.28523631 33.2490375,5.28523631 C34.210225,5.28523631 34.9894125,6.06830267 34.9894125,7.03427505" id="Fill-27" fill="#000000"></path>
        <path d="M40.2394125,7.03427505 C40.2394125,8.00024743 39.460225,8.78331379 38.4990375,8.78331379 C37.5376313,8.78331379 36.7584437,8.00024743 36.7584437,7.03427505 C36.7584437,6.06830267 37.5376313,5.28523631 38.4990375,5.28523631 C39.460225,5.28523631 40.2394125,6.06830267 40.2394125,7.03427505" id="Fill-29" fill="#000000"></path>
        <path d="M29.7395219,49.2433988 C29.7395219,50.2093712 28.9603344,50.9926574 27.9989281,50.9926574 C27.0377406,50.9926574 26.2585531,50.2093712 26.2585531,49.2433988 C26.2585531,48.2774264 27.0377406,47.4941402 27.9989281,47.4941402 C28.9603344,47.4941402 29.7395219,48.2774264 29.7395219,49.2433988" id="Fill-31" fill="#000000"></path>
        <path d="M50.739325,7.03495655 C50.739325,8.00114877 49.9599187,8.78443497 48.9985125,8.78443497 C48.0371062,8.78443497 47.2577,8.00114877 47.2577,7.03495655 C47.2577,6.06876433 48.0371062,5.28547813 48.9985125,5.28547813 C49.9599187,5.28547813 50.739325,6.06876433 50.739325,7.03495655" id="Fill-33" fill="#000000"></path>
        <path d="M29.7394125,12.31041 C29.7394125,13.2763824 28.960225,14.0594488 27.9990375,14.0594488 C27.0376313,14.0594488 26.2584438,13.2763824 26.2584438,12.31041 C26.2584438,11.3444376 27.0376313,10.5613713 27.9990375,10.5613713 C28.960225,10.5613713 29.7394125,11.3444376 29.7394125,12.31041" id="Fill-35" fill="#000000"></path>
        <path d="M34.9894125,12.31041 C34.9894125,13.2763824 34.210225,14.0594488 33.2490375,14.0594488 C32.2876313,14.0594488 31.5084438,13.2763824 31.5084438,12.31041 C31.5084438,11.3444376 32.2876313,10.5613713 33.2490375,10.5613713 C34.210225,10.5613713 34.9894125,11.3444376 34.9894125,12.31041" id="Fill-37" fill="#000000"></path>
        <path d="M40.2394125,12.31041 C40.2394125,13.2763824 39.460225,14.0594488 38.4990375,14.0594488 C37.5376313,14.0594488 36.7584437,13.2763824 36.7584437,12.31041 C36.7584437,11.3444376 37.5376313,10.5613713 38.4990375,10.5613713 C39.460225,10.5613713 40.2394125,11.3444376 40.2394125,12.31041" id="Fill-39" fill="#000000"></path>
        <path d="M24.4895219,49.2433988 C24.4895219,50.2093712 23.7103344,50.9926574 22.7489281,50.9926574 C21.7877406,50.9926574 21.0085531,50.2093712 21.0085531,49.2433988 C21.0085531,48.2774264 21.7877406,47.4941402 22.7489281,47.4941402 C23.7103344,47.4941402 24.4895219,48.2774264 24.4895219,49.2433988" id="Fill-41" fill="#000000"></path>
        <path d="M19.2395219,49.2433988 C19.2395219,50.2093712 18.4603344,50.9926574 17.4989281,50.9926574 C16.5377406,50.9926574 15.7585531,50.2093712 15.7585531,49.2433988 C15.7585531,48.2774264 16.5377406,47.4941402 17.4989281,47.4941402 C18.4603344,47.4941402 19.2395219,48.2774264 19.2395219,49.2433988" id="Fill-43" fill="#000000"></path>
        <path d="M34.9894125,17.586545 C34.9894125,18.5525174 34.210225,19.3355837 33.2490375,19.3355837 C32.2876313,19.3355837 31.5084438,18.5525174 31.5084438,17.586545 C31.5084438,16.6205726 32.2876313,15.8375063 33.2490375,15.8375063 C34.210225,15.8375063 34.9894125,16.6205726 34.9894125,17.586545" id="Fill-45" fill="#000000"></path>
        <path d="M13.9884719,49.2416401 C13.9884719,50.2069529 13.2097219,50.9895796 12.2491906,50.9895796 C11.2886594,50.9895796 10.5099094,50.2069529 10.5099094,49.2416401 C10.5099094,48.2763272 11.2886594,47.4937005 12.2491906,47.4937005 C13.2097219,47.4937005 13.9884719,48.2763272 13.9884719,49.2416401" id="Fill-47" fill="#000000"></path>
        <path d="M45.4895219,17.586589 C45.4895219,18.5525613 44.7103344,19.3358475 43.7489281,19.3358475 C42.7877406,19.3358475 42.0085531,18.5525613 42.0085531,17.586589 C42.0085531,16.6206166 42.7877406,15.8373304 43.7489281,15.8373304 C44.7103344,15.8373304 45.4895219,16.6206166 45.4895219,17.586589" id="Fill-49" fill="#000000"></path>
        <path d="M40.2395219,22.8627239 C40.2395219,23.8286963 39.4603344,24.6119825 38.4989281,24.6119825 C37.5377406,24.6119825 36.7585531,23.8286963 36.7585531,22.8627239 C36.7585531,21.8967516 37.5377406,21.1134654 38.4989281,21.1134654 C39.4603344,21.1134654 40.2395219,21.8967516 40.2395219,22.8627239" id="Fill-51" fill="#000000"></path>
        <path d="M8.7394125,28.1388149 C8.7394125,29.1047873 7.960225,29.8878537 6.9990375,29.8878537 C6.03763125,29.8878537 5.25844375,29.1047873 5.25844375,28.1388149 C5.25844375,27.1728426 6.03763125,26.3897762 6.9990375,26.3897762 C7.960225,26.3897762 8.7394125,27.1728426 8.7394125,28.1388149" id="Fill-53" fill="#000000"></path>
        <path d="M13.9894125,28.1388149 C13.9894125,29.1047873 13.210225,29.8878537 12.2490375,29.8878537 C11.2876313,29.8878537 10.5084437,29.1047873 10.5084437,28.1388149 C10.5084437,27.1728426 11.2876313,26.3897762 12.2490375,26.3897762 C13.210225,26.3897762 13.9894125,27.1728426 13.9894125,28.1388149" id="Fill-55" fill="#000000"></path>
        <path d="M19.2394125,28.1388149 C19.2394125,29.1047873 18.460225,29.8878537 17.4990375,29.8878537 C16.5376312,29.8878537 15.7584437,29.1047873 15.7584437,28.1388149 C15.7584437,27.1728426 16.5376312,26.3897762 17.4990375,26.3897762 C18.460225,26.3897762 19.2394125,27.1728426 19.2394125,28.1388149" id="Fill-57" fill="#000000"></path>
        <path d="M24.4894125,28.1388149 C24.4894125,29.1047873 23.710225,29.8878537 22.7490375,29.8878537 C21.7876312,29.8878537 21.0084437,29.1047873 21.0084437,28.1388149 C21.0084437,27.1728426 21.7876312,26.3897762 22.7490375,26.3897762 C23.710225,26.3897762 24.4894125,27.1728426 24.4894125,28.1388149" id="Fill-59" fill="#000000"></path>
        <path d="M8.7387125,49.2423875 C8.7387125,50.2083599 7.959525,50.9916461 6.99811875,50.9916461 C6.03693125,50.9916461 5.25774375,50.2083599 5.25774375,49.2423875 C5.25774375,48.2764152 6.03693125,47.493129 6.99811875,47.493129 C7.959525,47.493129 8.7387125,48.2764152 8.7387125,49.2423875" id="Fill-61" fill="#000000"></path>
        <path d="M50.7395219,28.1388589 C50.7395219,29.1048313 49.9603344,29.8881175 48.9989281,29.8881175 C48.0377406,29.8881175 47.2585531,29.1048313 47.2585531,28.1388589 C47.2585531,27.1728865 48.0377406,26.3896003 48.9989281,26.3896003 C49.9603344,26.3896003 50.7395219,27.1728865 50.7395219,28.1388589" id="Fill-63" fill="#000000"></path>
        <path d="M34.9895219,49.2433988 C34.9895219,50.2093712 34.2103344,50.9926574 33.2489281,50.9926574 C32.2877406,50.9926574 31.5085531,50.2093712 31.5085531,49.2433988 C31.5085531,48.2774264 32.2877406,47.4941402 33.2489281,47.4941402 C34.2103344,47.4941402 34.9895219,48.2774264 34.9895219,49.2433988" id="Fill-65" fill="#000000"></path>
        <path d="M13.9894125,33.4149499 C13.9894125,34.3809223 13.210225,35.1639887 12.2490375,35.1639887 C11.2876313,35.1639887 10.5084437,34.3809223 10.5084437,33.4149499 C10.5084437,32.4489775 11.2876313,31.6659112 12.2490375,31.6659112 C13.210225,31.6659112 13.9894125,32.4489775 13.9894125,33.4149499" id="Fill-67" fill="#000000"></path>
        <path d="M19.2394125,33.4149499 C19.2394125,34.3809223 18.460225,35.1639887 17.4990375,35.1639887 C16.5376312,35.1639887 15.7584437,34.3809223 15.7584437,33.4149499 C15.7584437,32.4489775 16.5376312,31.6659112 17.4990375,31.6659112 C18.460225,31.6659112 19.2394125,32.4489775 19.2394125,33.4149499" id="Fill-69" fill="#000000"></path>
        <path d="M40.2395219,43.9672638 C40.2395219,44.9332362 39.4603344,45.7165224 38.4989281,45.7165224 C37.5377406,45.7165224 36.7585531,44.9332362 36.7585531,43.9672638 C36.7585531,43.0012914 37.5377406,42.2180052 38.4989281,42.2180052 C39.4603344,42.2180052 40.2395219,43.0012914 40.2395219,43.9672638" id="Fill-71" fill="#000000"></path>
        <path d="M45.4895219,33.4149939 C45.4895219,34.3809663 44.7103344,35.1642525 43.7489281,35.1642525 C42.7877406,35.1642525 42.0085531,34.3809663 42.0085531,33.4149939 C42.0085531,32.4490215 42.7877406,31.6657353 43.7489281,31.6657353 C44.7103344,31.6657353 45.4895219,32.4490215 45.4895219,33.4149939" id="Fill-73" fill="#000000"></path>
        <path d="M50.7395219,33.4149939 C50.7395219,34.3809663 49.9603344,35.1642525 48.9989281,35.1642525 C48.0377406,35.1642525 47.2585531,34.3809663 47.2585531,33.4149939 C47.2585531,32.4490215 48.0377406,31.6657353 48.9989281,31.6657353 C49.9603344,31.6657353 50.7395219,32.4490215 50.7395219,33.4149939" id="Fill-75" fill="#000000"></path>
        <path d="M8.7394125,38.6910849 C8.7394125,39.6570573 7.960225,40.4401236 6.9990375,40.4401236 C6.03763125,40.4401236 5.25844375,39.6570573 5.25844375,38.6910849 C5.25844375,37.7251125 6.03763125,36.9420461 6.9990375,36.9420461 C7.960225,36.9420461 8.7394125,37.7251125 8.7394125,38.6910849" id="Fill-77" fill="#000000"></path>
        <path d="M13.9894125,38.6910849 C13.9894125,39.6570573 13.210225,40.4401236 12.2490375,40.4401236 C11.2876313,40.4401236 10.5084437,39.6570573 10.5084437,38.6910849 C10.5084437,37.7251125 11.2876313,36.9420461 12.2490375,36.9420461 C13.210225,36.9420461 13.9894125,37.7251125 13.9894125,38.6910849" id="Fill-79" fill="#000000"></path>
        <path d="M34.9895219,43.9672638 C34.9895219,44.9332362 34.2103344,45.7165224 33.2489281,45.7165224 C32.2877406,45.7165224 31.5085531,44.9332362 31.5085531,43.9672638 C31.5085531,43.0012914 32.2877406,42.2180052 33.2489281,42.2180052 C34.2103344,42.2180052 34.9895219,43.0012914 34.9895219,43.9672638" id="Fill-81" fill="#000000"></path>
        <path d="M45.4895219,38.6911289 C45.4895219,39.6571012 44.7103344,40.4403874 43.7489281,40.4403874 C42.7877406,40.4403874 42.0085531,39.6571012 42.0085531,38.6911289 C42.0085531,37.7251565 42.7877406,36.9418703 43.7489281,36.9418703 C44.7103344,36.9418703 45.4895219,37.7251565 45.4895219,38.6911289" id="Fill-83" fill="#000000"></path>
        <path d="M8.739675,43.9672199 C8.739675,44.9325327 7.960925,45.7151594 7.00039375,45.7151594 C6.0398625,45.7151594 5.2611125,44.9325327 5.2611125,43.9672199 C5.2611125,43.001907 6.0398625,42.2192803 7.00039375,42.2192803 C7.960925,42.2192803 8.739675,43.001907 8.739675,43.9672199" id="Fill-85" fill="#000000"></path>
        <path d="M29.7395219,43.9672638 C29.7395219,44.9332362 28.9603344,45.7165224 27.9989281,45.7165224 C27.0377406,45.7165224 26.2585531,44.9332362 26.2585531,43.9672638 C26.2585531,43.0012914 27.0377406,42.2180052 27.9989281,42.2180052 C28.9603344,42.2180052 29.7395219,43.0012914 29.7395219,43.9672638" id="Fill-87" fill="#000000"></path>
        <path d="M19.2395219,43.9672638 C19.2395219,44.9332362 18.4603344,45.7165224 17.4989281,45.7165224 C16.5377406,45.7165224 15.7585531,44.9332362 15.7585531,43.9672638 C15.7585531,43.0012914 16.5377406,42.2180052 17.4989281,42.2180052 C18.4603344,42.2180052 19.2395219,43.0012914 19.2395219,43.9672638" id="Fill-89" fill="#000000"></path>
        <path d="M24.4895219,43.9672638 C24.4895219,44.9332362 23.7103344,45.7165224 22.7489281,45.7165224 C21.7877406,45.7165224 21.0085531,44.9332362 21.0085531,43.9672638 C21.0085531,43.0012914 21.7877406,42.2180052 22.7489281,42.2180052 C23.7103344,42.2180052 24.4895219,43.0012914 24.4895219,43.9672638" id="Fill-91" fill="#000000"></path>
        <path d="M13.987225,43.9678574 C13.987225,44.9333901 13.2082563,45.7162366 12.2475063,45.7162366 C11.2867563,45.7162366 10.5077875,44.9333901 10.5077875,43.9678574 C10.5077875,43.0023247 11.2867563,42.2194782 12.2475063,42.2194782 C13.2082563,42.2194782 13.987225,43.0023247 13.987225,43.9678574" id="Fill-93" fill="#000000"></path>
        <path d="M29.7395437,33.4176539 C29.7395437,34.382747 28.9610125,35.1651538 28.0007,35.1651538 C27.0401687,35.1651538 26.2616375,34.382747 26.2616375,33.4176539 C26.2616375,32.4525609 27.0401687,31.6701541 28.0007,31.6701541 C28.9610125,31.6701541 29.7395437,32.4525609 29.7395437,33.4176539" id="Fill-95" fill="#000000"></path>
        <path d="M50.7353,12.3095746 C50.7353,13.2759867 49.9558938,14.0592729 48.9942688,14.0592729 C48.0328625,14.0592729 47.2532375,13.2759867 47.2532375,12.3095746 C47.2532375,11.3431626 48.0328625,10.5598764 48.9942688,10.5598764 C49.9558938,10.5598764 50.7353,11.3431626 50.7353,12.3095746" id="Fill-97" fill="#000000"></path>
        <path d="M45.4894125,12.3093328 C45.4894125,13.2750853 44.7104437,14.0579319 43.749475,14.0579319 C42.788725,14.0579319 42.0095375,13.2750853 42.0095375,12.3093328 C42.0095375,11.3435803 42.788725,10.5607337 43.749475,10.5607337 C44.7104437,10.5607337 45.4894125,11.3435803 45.4894125,12.3093328" id="Fill-99" fill="#000000"></path>
        <path d="M45.4890187,7.03777049 C45.4890187,8.00352303 44.71005,8.78614971 43.7493,8.78614971 C42.7883312,8.78614971 42.0093625,8.00352303 42.0093625,7.03777049 C42.0093625,6.07201795 42.7883312,5.28939126 43.7493,5.28939126 C44.71005,5.28939126 45.4890187,6.07201795 45.4890187,7.03777049" id="Fill-101" fill="#000000"></path>
        <path d="M40.2376844,38.6924699 C40.2376844,39.6575629 39.4591531,40.4399697 38.4988406,40.4399697 C37.5385281,40.4399697 36.7602156,39.6575629 36.7602156,38.6924699 C36.7602156,37.7273768 37.5385281,36.94497 38.4988406,36.94497 C39.4591531,36.94497 40.2376844,37.7273768 40.2376844,38.6924699" id="Fill-103" fill="#000000"></path>
        <path d="M40.2371375,17.5860394 C40.2371375,18.5513522 39.4586062,19.3337591 38.498075,19.3337591 C37.5375437,19.3337591 36.7590125,18.5513522 36.7590125,17.5860394 C36.7590125,16.6207265 37.5375437,15.8383197 38.498075,15.8383197 C39.4586062,15.8383197 40.2371375,16.6207265 40.2371375,17.5860394" id="Fill-105" fill="#000000"></path>
        <path d="M24.4746469,33.4224025 C24.4746469,34.386836 23.6967719,35.1685833 22.7371156,35.1685833 C21.7774594,35.1685833 20.9993656,34.386836 20.9993656,33.4224025 C20.9993656,32.4579689 21.7774594,31.6762216 22.7371156,31.6762216 C23.6967719,31.6762216 24.4746469,32.4579689 24.4746469,33.4224025" id="Fill-107" fill="#000000"></path>
        <path d="M29.7341187,28.1255806 C29.7341187,29.0891348 28.9569,29.8702226 27.9981187,29.8702226 C27.0393375,29.8702226 26.2621187,29.0891348 26.2621187,28.1255806 C26.2621187,27.1620265 27.0393375,26.3809387 27.9981187,26.3809387 C28.9569,26.3809387 29.7341187,27.1620265 29.7341187,28.1255806" id="Fill-109" fill="#000000"></path>
    </g>
</svg>