<?xml version="1.0" encoding="UTF-8"?>
<svg width="37px" height="46px" viewBox="0 0 37 46" version="1.1" xmlns="http://www.w3.org/2000/svg" xmlns:xlink="http://www.w3.org/1999/xlink">
    <title>Artboard 1</title>
    <defs>
        <path d="M0,0 L37,0 L37,46 L0,46 L0,0 Z" id="path-1"></path>
        <polygon id="path-2" points="0 0 3.2017507 0 3.2017507 3.07692553 0 3.07692553"></polygon>
    </defs>
    <g id="Artboard-1" stroke="none" fill="none" xlink:href="#path-1" fill-rule="evenodd">
        <g id="Grupo" stroke-width="1" transform="translate(19.3129, 0)">
            <mask id="mask-3" fill="white">
                <use xlink:href="#path-2"></use>
            </mask>
            <g id="Clip-2"></g>
            <path d="M3.20153706,1.53842037 C3.23191472,3.58979383 -0.0303652052,3.58979383 0.000213639701,1.53822088 C-0.0301640286,-0.512953085 3.2321159,-0.512953085 3.20153706,1.53842037" id="Fill-1" fill="#000000" mask="url(#mask-3)"></path>
        </g>
        <path d="M22.5145396,6.30766916 C22.5449173,8.35904261 19.2824362,8.35904261 19.3132162,6.30746966 C19.2828385,4.2562957 22.5451185,4.2562957 22.5145396,6.30766916" id="Fill-3" fill="#000000"></path>
        <path d="M22.5145396,11.0768381 C22.5449173,13.1282116 19.2824362,13.1282116 19.3132162,11.0766387 C19.2828385,9.02546469 22.5451185,9.02546469 22.5145396,11.0768381" id="Fill-5" fill="#000000"></path>
        <path d="M8.02970291,15.8459473 C8.06008058,17.8973207 4.79780065,17.8973207 4.8283795,15.8457478 C4.79800183,13.7945738 8.06028176,13.7945738 8.02970291,15.8459473" id="Fill-7" fill="#000000"></path>
        <path d="M22.5145396,15.8460071 C22.5449173,17.8973806 19.2824362,17.8973806 19.3132162,15.8458076 C19.2828385,13.7946337 22.5451185,13.7946337 22.5145396,15.8460071" id="Fill-9" fill="#000000"></path>
        <path d="M36.9997787,15.8458675 C37.0301564,17.8974404 33.7674741,17.8974404 33.7980529,15.845668 C33.7676753,13.7942945 37.0303576,13.7942945 36.9997787,15.8458675" id="Fill-11" fill="#000000"></path>
        <path d="M12.8580623,20.6151761 C12.88844,22.6665496 9.62595885,22.6665496 9.65673887,20.6149766 C9.6263612,18.5638027 12.8886411,18.5638027 12.8580623,20.6151761" id="Fill-13" fill="#000000"></path>
        <path d="M22.5145396,20.6151761 C22.5449173,22.6665496 19.2824362,22.6665496 19.3132162,20.6149766 C19.2828385,18.5638027 22.5451185,18.5638027 22.5145396,20.6151761" id="Fill-15" fill="#000000"></path>
        <path d="M32.171017,20.6151761 C32.2013946,22.6665496 28.9389135,22.6665496 28.9696936,20.6149766 C28.9393159,18.5638027 32.2015958,18.5638027 32.171017,20.6151761" id="Fill-17" fill="#000000"></path>
        <path d="M17.686301,25.3843451 C17.7166786,27.4357186 14.4541975,27.4357186 14.4849775,25.3841456 C14.4545999,23.3329716 17.7168798,23.3329716 17.686301,25.3843451" id="Fill-19" fill="#000000"></path>
        <path d="M3.20158495,30.1535141 C3.23196261,32.2048875 -0.0305184919,32.2048875 0.000261529595,30.1533146 C-0.0301161387,28.1021406 3.23216379,28.1021406 3.20158495,30.1535141" id="Fill-21" fill="#000000"></path>
        <path d="M8.02982362,30.1535141 C8.06020129,32.2048875 4.79772018,32.2048875 4.8285002,30.1533146 C4.79812253,28.1021406 8.06040246,28.1021406 8.02982362,30.1535141" id="Fill-23" fill="#000000"></path>
        <path d="M12.8580623,30.1535141 C12.88844,32.2048875 9.62595885,32.2048875 9.65673887,30.1533146 C9.6263612,28.1021406 12.8886411,28.1021406 12.8580623,30.1535141" id="Fill-25" fill="#000000"></path>
        <path d="M32.171017,30.1535141 C32.2013946,32.2048875 28.9389135,32.2048875 28.9696936,30.1533146 C28.9393159,28.1021406 32.2015958,28.1021406 32.171017,30.1535141" id="Fill-27" fill="#000000"></path>
        <path d="M36.9992556,30.1535141 C37.0296333,32.2048875 33.7671522,32.2048875 33.7979322,30.1533146 C33.7675546,28.1021406 37.0298345,28.1021406 36.9992556,30.1535141" id="Fill-29" fill="#000000"></path>
        <path d="M17.686301,34.9226831 C17.7166786,36.9740565 14.4541975,36.9740565 14.4849775,34.9224836 C14.4545999,32.8713096 17.7168798,32.8713096 17.686301,34.9226831" id="Fill-31" fill="#000000"></path>
        <path d="M22.5145396,34.9226831 C22.5449173,36.9740565 19.2824362,36.9740565 19.3132162,34.9224836 C19.2828385,32.8713096 22.5451185,32.8713096 22.5145396,34.9226831" id="Fill-33" fill="#000000"></path>
        <path d="M27.3427783,34.9226831 C27.373156,36.9740565 24.1106749,36.9740565 24.1414549,34.9224836 C24.1110772,32.8713096 27.3733571,32.8713096 27.3427783,34.9226831" id="Fill-35" fill="#000000"></path>
        <path d="M12.8580623,39.691872 C12.88844,41.7432455 9.62595885,41.7432455 9.65673887,39.6916725 C9.6263612,37.6404986 12.8886411,37.6404986 12.8580623,39.691872" id="Fill-37" fill="#000000"></path>
        <path d="M22.5145396,39.691872 C22.5449173,41.7432455 19.2824362,41.7432455 19.3132162,39.6916725 C19.2828385,37.6404986 22.5451185,37.6404986 22.5145396,39.691872" id="Fill-39" fill="#000000"></path>
        <path d="M32.171017,39.691872 C32.2013946,41.7432455 28.9389135,41.7432455 28.9696936,39.6916725 C28.9393159,37.6404986 32.2015958,37.6404986 32.171017,39.691872" id="Fill-41" fill="#000000"></path>
        <path d="M22.5145396,44.461041 C22.5449173,46.5124145 19.2824362,46.5124145 19.3132162,44.4608415 C19.2828385,42.4096675 22.5451185,42.4096675 22.5145396,44.461041" id="Fill-43" fill="#000000"></path>
        <path d="M36.9974853,44.4620385 C37.027863,46.5126139 33.7665889,46.5126139 33.7973689,44.461839 C33.7667901,42.411463 37.0280641,42.411463 36.9974853,44.4620385" id="Fill-45" fill="#000000"></path>
        <path d="M22.5145597,30.1558681 C22.5449374,32.2054461 19.285474,32.2054461 19.3160528,30.1556686 C19.2856751,28.1062901 22.5451386,28.1062901 22.5145597,30.1558681" id="Fill-47" fill="#000000"></path>
        <path d="M27.3443072,25.3883349 C27.3746849,27.4355191 24.1186415,27.4357186 24.1494215,25.3881354 C24.1190438,23.3411508 27.3748861,23.3409513 27.3443072,25.3883349" id="Fill-49" fill="#000000"></path>
        <path d="M27.3410884,30.154731 C27.3714661,32.2041095 24.112405,32.2041095 24.1429838,30.1545315 C24.1126062,28.1053524 27.3716673,28.1053524 27.3410884,30.154731" id="Fill-51" fill="#000000"></path>
        <path d="M22.5095706,25.3723756 C22.5399482,27.4183628 19.2859165,27.4183628 19.3164954,25.3721761 C19.2861177,23.3263884 22.5401494,23.3263884 22.5095706,25.3723756" id="Fill-53" fill="#000000"></path>
        <path d="M17.6726612,30.160237 C17.7030389,32.2082191 14.4459895,32.2082191 14.4765684,30.1600375 C14.4461907,28.1122549 17.70324,28.1122549 17.6726612,30.160237" id="Fill-55" fill="#000000"></path>
    </g>
</svg>