<?xml version="1.0" encoding="UTF-8"?>
<svg width="28px" height="28px" viewBox="0 0 28 28" version="1.1" xmlns="http://www.w3.org/2000/svg" xmlns:xlink="http://www.w3.org/1999/xlink">
    <title>Artboard 1</title>
    <defs>
        <path d="M0,0 L28,0 L28,28 L0,28 L0,0 Z" id="path-1"></path>
    </defs>
    <g id="Artboard-1" stroke="none" fill="none" xlink:href="#path-1" fill-rule="evenodd">
        <path d="M5.37544951,13.9998516 C5.395728,15.3929153 3.21214006,15.3929153 3.23255374,13.9997166 C3.21227525,12.6067879 5.39586319,12.6067879 5.37544951,13.9998516 M24.7671218,13.999892 C24.7874003,15.3929557 22.6036772,15.3930907 22.624226,13.9997571 C22.6039475,12.6068283 24.7875355,12.6066934 24.7671218,13.999892 M8.60738137,1.04488549 C8.62765986,2.43794918 6.44407192,2.43794918 6.4644856,1.04475054 C6.44420711,-0.348178208 8.62779505,-0.348178208 8.60738137,1.04488549 M11.8393132,1.04488549 C11.8595917,2.43794918 9.67600379,2.43794918 9.69641747,1.04475054 C9.67613898,-0.348178208 11.8597269,-0.348178208 11.8393132,1.04488549 M15.0713127,1.04492597 C15.0915912,2.43798967 12.9078681,2.43812461 12.9284169,1.04479102 C12.9081384,-0.348137724 15.0917264,-0.348272671 15.0713127,1.04492597 M18.303177,1.04488549 C18.3234555,2.43794918 16.1398675,2.43794918 16.1602812,1.04475054 C16.1400027,-0.348178208 18.3235906,-0.348178208 18.303177,1.04488549 M21.5351899,1.04492597 C21.5554684,2.43798967 19.3717453,2.43812461 19.3922942,1.04479102 C19.3720157,-0.348137724 21.5556036,-0.348272671 21.5351899,1.04492597 M22.62357,28 L22.62357,25.9110353 L24.7660744,25.9110353 L24.7660744,28 L22.62357,28 Z M27.9989455,1.04531732 C28.019224,2.43865091 25.8350953,2.43878586 25.8556442,1.04518237 C25.8352305,-0.348016271 28.0193592,-0.348151218 27.9989455,1.04531732 M21.5351899,26.9548581 C21.5554684,28.3479218 19.3717453,28.3480568 19.3922942,26.9547232 C19.3720157,25.5617944 21.5556036,25.5616595 21.5351899,26.9548581 M18.3032446,26.9548581 C18.323523,28.3479218 16.1397999,28.3480568 16.1603488,26.9547232 C16.1400703,25.5617944 18.3236582,25.5616595 18.3032446,26.9548581 M8.60738137,4.283627 C8.62765986,5.6766907 6.44407192,5.6766907 6.4644856,4.28349206 C6.44420711,2.89056331 8.62779505,2.89056331 8.60738137,4.283627 M11.8393808,4.28366749 C11.8596593,5.67673118 9.67593619,5.67686613 9.69648506,4.28353254 C9.67620657,2.89060379 11.8597945,2.89046885 11.8393808,4.28366749 M15.0712451,4.283627 C15.0915236,5.6766907 12.9079356,5.6766907 12.9283493,4.28349206 C12.9080708,2.89056331 15.0916588,2.89056331 15.0712451,4.283627 M18.3032446,4.28366749 C18.323523,5.67673118 16.1397999,5.67686613 16.1603488,4.28353254 C16.1400703,2.89060379 18.3236582,2.89046885 18.3032446,4.28366749 M21.5351088,4.283627 C21.5553873,5.6766907 19.3717994,5.6766907 19.3922131,4.28349206 C19.3719346,2.89056331 21.5555225,2.89056331 21.5351088,4.283627 M15.0713127,26.9548581 C15.0915912,28.3479218 12.9078681,28.3480568 12.9284169,26.9547232 C12.9081384,25.5617944 15.0917264,25.5616595 15.0713127,26.9548581 M11.8393808,26.9548581 C11.8596593,28.3479218 9.67593619,28.3480568 9.69648506,26.9547232 C9.67620657,25.5617944 11.8597945,25.5616595 11.8393808,26.9548581 M2.14350412,7.52236852 C2.16378261,8.91543222 -0.0198053265,8.91543222 0.000608354738,7.52223357 C-0.0196701365,6.12930483 2.1639178,6.12930483 2.14350412,7.52236852 M5.37544951,7.52236852 C5.395728,8.91543222 3.21214006,8.91543222 3.23255374,7.52223357 C3.21227525,6.12930483 5.39586319,6.12930483 5.37544951,7.52236852 M8.60744897,26.9548581 C8.62772746,28.3479218 6.44400433,28.3480568 6.4645532,26.9547232 C6.44427471,25.5617944 8.62786265,25.5616595 8.60744897,26.9548581 M11.8393132,7.52236852 C11.8595917,8.91543222 9.67600379,8.91543222 9.69641747,7.52223357 C9.67613898,6.12930483 11.8597269,6.12930483 11.8393132,7.52236852 M18.303177,7.52236852 C18.3234555,8.91543222 16.1398675,8.91543222 16.1602812,7.52223357 C16.1400027,6.12930483 18.3235906,6.12930483 18.303177,7.52236852 M5.37486819,26.953738 C5.39514668,28.3458571 3.21304583,28.3458571 3.23345951,26.9536031 C3.21318102,25.561619 5.39528187,25.561619 5.37486819,26.953738 M24.7671218,7.52240901 C24.7874003,8.9154727 22.6036772,8.91560765 22.624226,7.52227406 C22.6039475,6.12934531 24.7875355,6.12921036 24.7671218,7.52240901 M27.9990537,7.52240901 C28.0193322,8.9154727 25.835609,8.91560765 25.8561579,7.52227406 C25.8358794,6.12934531 28.0194674,6.12921036 27.9990537,7.52240901 M2.14350412,10.76111 C2.16378261,12.1541737 -0.0198053265,12.1541737 0.000608354738,10.7609751 C-0.0196701365,9.36804634 2.1639178,9.36804634 2.14350412,10.76111 M5.3755171,10.7611505 C5.39579559,12.1542142 3.21207246,12.1543492 3.23262133,10.7610156 C3.21234284,9.36808683 5.39593078,9.36795188 5.3755171,10.7611505 M8.60738137,10.76111 C8.62765986,12.1541737 6.44407192,12.1541737 6.4644856,10.7609751 C6.44420711,9.36804634 8.62779505,9.36804634 8.60738137,10.76111 M2.14308503,26.9542374 C2.16336353,28.347301 -0.0203596052,28.347436 0.000189265919,26.9541024 C-0.0200892254,25.5611737 2.16349872,25.5610387 2.14308503,26.9542374 M27.9992835,23.7160086 C28.019562,25.1089374 25.8362444,25.1089374 25.8567933,23.7158737 C25.8363796,22.3230799 28.0196972,22.3230799 27.9992835,23.7160086 M21.5351899,10.7611505 C21.5554684,12.1542142 19.3717453,12.1543492 19.3922942,10.7610156 C19.3720157,9.36808683 21.5556036,9.36795188 21.5351899,10.7611505 M24.7671218,10.7611505 C24.7874003,12.1542142 22.6036772,12.1543492 22.624226,10.7610156 C22.6039475,9.36808683 24.7875355,9.36795188 24.7671218,10.7611505 M27.9990537,10.7611505 C28.0193322,12.1542142 25.835609,12.1543492 25.8561579,10.7610156 C25.8358794,9.36808683 28.0194674,9.36795188 27.9990537,10.7611505 M2.14358524,13.999892 C2.16386373,15.3929557 -0.0198594025,15.3930907 0.000689468703,13.9997571 C-0.0195890226,12.6068283 2.16399892,12.6066934 2.14358524,13.999892 M21.5351899,23.7161166 C21.5554684,25.1091803 19.3717453,25.1093152 19.3922942,23.7159816 C19.3720157,22.3230529 21.5556036,22.322918 21.5351899,23.7161166 M27.9998513,26.9534547 C28.0201298,28.3478678 25.834514,28.3478678 25.8550629,26.9533197 C25.8346492,25.5590415 28.020265,25.5590415 27.9998513,26.9534547 M27.9990537,13.999892 C28.0193322,15.3929557 25.835609,15.3930907 25.8561579,13.9997571 C25.8358794,12.6068283 28.0194674,12.6066934 27.9990537,13.999892 M2.14350412,17.2385931 C2.16378261,18.6316568 -0.0198053265,18.6316568 0.000608354738,17.2384581 C-0.0196701365,15.8455294 2.1639178,15.8455294 2.14350412,17.2385931 M5.3755171,17.2386336 C5.39579559,18.6316973 3.21207246,18.6318322 3.23262133,17.2384986 C3.21234284,15.8455699 5.39593078,15.8454349 5.3755171,17.2386336 M8.60738137,17.2385931 C8.62765986,18.6316568 6.44407192,18.6316568 6.4644856,17.2384581 C6.44420711,15.8455294 8.62779505,15.8455294 8.60738137,17.2385931 M18.3032446,23.7161166 C18.323523,25.1091803 16.1397999,25.1093152 16.1603488,23.7159816 C16.1400703,22.3230529 18.3236582,22.322918 18.3032446,23.7161166 M15.0713127,23.7161166 C15.0915912,25.1091803 12.9078681,25.1093152 12.9284169,23.7159816 C12.9081384,22.3230529 15.0917264,22.322918 15.0713127,23.7161166 M21.5351899,17.2386336 C21.5554684,18.6316973 19.3717453,18.6318322 19.3922942,17.2384986 C19.3720157,15.8455699 21.5556036,15.8454349 21.5351899,17.2386336 M24.7671218,17.2386336 C24.7874003,18.6316973 22.6036772,18.6318322 22.624226,17.2384986 C22.6039475,15.8455699 24.7875355,15.8454349 24.7671218,17.2386336 M27.9990537,17.2386336 C28.0193322,18.6316973 25.835609,18.6318322 25.8561579,17.2384986 C25.8358794,15.8455699 28.0194674,15.8454349 27.9990537,17.2386336 M2.14358524,20.4773751 C2.16386373,21.8704388 -0.0198594025,21.8705737 0.000689468703,20.4772401 C-0.0195890226,19.0843114 2.16399892,19.0841764 2.14358524,20.4773751 M5.37544951,20.4773346 C5.395728,21.8703983 3.21214006,21.8703983 3.23255374,20.4771996 C3.21227525,19.0842709 5.39586319,19.0842709 5.37544951,20.4773346 M11.8393808,23.7161166 C11.8596593,25.1091803 9.67593619,25.1093152 9.69648506,23.7159816 C9.67620657,22.3230529 11.8597945,22.322918 11.8393808,23.7161166 M11.8393808,20.4773751 C11.8596593,21.8704388 9.67593619,21.8705737 9.69648506,20.4772401 C9.67620657,19.0843114 11.8597945,19.0841764 11.8393808,20.4773751 M18.3032446,20.4773751 C18.323523,21.8704388 16.1397999,21.8705737 16.1603488,20.4772401 C16.1400703,19.0843114 18.3236582,19.0841764 18.3032446,20.4773751 M8.60744897,23.7161166 C8.62772746,25.1091803 6.44400433,25.1093152 6.4645532,23.7159816 C6.44427471,22.3230529 8.62786265,22.322918 8.60744897,23.7161166 M24.7671218,20.4773751 C24.7874003,21.8704388 22.6036772,21.8705737 22.624226,20.4772401 C22.6039475,19.0843114 24.7875355,19.0841764 24.7671218,20.4773751 M27.9990537,20.4773751 C28.0193322,21.8704388 25.835609,21.8705737 25.8561579,20.4772401 C25.8358794,19.0843114 28.0194674,19.0841764 27.9990537,20.4773751 M2.14367987,23.7160761 C2.16395836,25.1081952 -0.0182776801,25.1081952 0.00227119102,23.7159412 C-0.0180073003,22.323957 2.16409355,22.323957 2.14367987,23.7160761 M5.37411113,23.716481 C5.39438962,25.1090049 3.21174801,25.1090049 3.23216169,23.716346 C3.2118832,22.323957 5.39452481,22.323957 5.37411113,23.716481 M2.14416655,1.04564119 C2.16444505,2.43870489 -0.0191428958,2.43870489 0.00127078545,1.04550625 C-0.0190077058,-0.347422502 2.16458024,-0.347422502 2.14416655,1.04564119 M24.7668244,23.7175066 C24.7871029,25.1096256 22.6048668,25.1097606 22.6252805,23.7173716 C22.605002,22.3253875 24.7872381,22.3252525 24.7668244,23.7175066 M27.996458,4.2831142 C28.0167365,5.67658274 25.8324726,5.67658274 25.8528863,4.28297926 C25.8326078,2.88964567 28.0168717,2.88964567 27.996458,4.2831142 M24.7670542,4.28296576 C24.7873327,5.67562461 22.6044207,5.67562461 22.6248344,4.28283081 C22.6045559,2.89030691 24.7874679,2.89030691 24.7670542,4.28296576 M5.37469244,4.28310071 C5.39497093,5.67575956 3.21205894,5.67575956 3.23247262,4.28296576 C3.21219413,2.89044186 5.39510612,2.89044186 5.37469244,4.28310071 M2.14555901,4.28315469 C2.1658375,5.67554365 -0.0168041098,5.67567859 0.00360957145,4.28301974 C-0.0166689198,2.89076573 2.16597269,2.89063078 2.14555901,4.28315469 M24.7668109,1.04704465 C24.7870894,2.43956855 22.6043126,2.43956855 22.6247262,1.0469097 C22.6044477,-0.345479257 24.7872246,-0.345479257 24.7668109,1.04704465 M5.37411113,1.04596507 C5.39438962,2.43794918 3.21242396,2.43794918 3.23297283,1.04583012 C3.21269434,-0.346019047 5.39452481,-0.346019047 5.37411113,1.04596507 M21.5340543,20.4781983 C21.5543328,21.8699125 19.3727727,21.8699125 19.3933216,20.4780633 C19.3730431,19.086484 21.554468,19.086484 21.5340543,20.4781983 M8.6059754,20.4770377 C8.62625389,21.8690218 6.44428822,21.8690218 6.4648371,20.4769028 C6.4445586,19.0850536 8.62638908,19.0850536 8.6059754,20.4770377 M18.3021495,17.2394702 C18.322428,18.6311845 16.1408679,18.6311845 16.1614168,17.2393353 C16.1411383,15.847756 18.3225632,15.847756 18.3021495,17.2394702 M11.8382858,10.7619872 C11.8585643,12.1537014 9.67700419,12.1537014 9.69755306,10.7618523 C9.67727457,9.37027298 11.8586995,9.37027298 11.8382858,10.7619872 M21.5337164,7.52207164 C21.5539949,8.91405575 19.3720292,8.91405575 19.3925781,7.52193669 C19.3722996,6.13008752 21.5541301,6.13008752 21.5337164,7.52207164 M8.60635393,7.52323219 C8.62663242,8.91494641 6.44507233,8.91494641 6.46548601,7.52309724 C6.44520752,6.13151797 8.62676761,6.13151797 8.60635393,7.52323219 M11.8302285,17.2431813 C11.850507,18.6339509 9.67043396,18.6339509 9.69084764,17.2430463 C9.67056915,15.8524117 11.8506422,15.8524117 11.8302285,17.2431813 M18.3015952,10.7511779 C18.3217385,12.1339856 16.1542382,12.1339856 16.1746519,10.751043 C16.1545086,9.36837022 18.3218737,9.36837022 18.3015952,10.7511779" id="Forma-combinada" fill="#F1FF91"></path>
    </g>
</svg>