<?xml version="1.0" encoding="UTF-8"?>
<svg width="117px" height="117px" viewBox="0 0 117 117" version="1.1" xmlns="http://www.w3.org/2000/svg" xmlns:xlink="http://www.w3.org/1999/xlink">
    <title>whitening_healthy</title>
    <defs>
        <path d="M0,0 L116.147,0 L116.147,116.147 L0,116.147 L0,0 Z" id="path-1"></path>
        <polygon id="path-2" points="0 -1.42108547e-14 7.24421899 -1.42108547e-14 7.24421899 7.25584362 0 7.25584362"></polygon>
        <polygon id="path-4" points="0 0 7.24422007 0 7.24422007 7.25567355 0 7.25567355"></polygon>
        <polygon id="path-6" points="0 0 7.24422007 0 7.24422007 7.25565949 0 7.25565949"></polygon>
        <polygon id="path-8" points="0 0 7.24422007 0 7.24422007 7.25565949 0 7.25565949"></polygon>
        <polygon id="path-10" points="0 1.42108547e-14 7.2409066 1.42108547e-14 7.2409066 7.2248164 0 7.2248164"></polygon>
    </defs>
    <g id="whitening_healthy" stroke="none" fill="none" xlink:href="#path-1" fill-rule="evenodd">
        <g id="Grupo" stroke-width="1" transform="translate(108.9028, 11.0875)">
            <mask id="mask-3" fill="white">
                <use xlink:href="#path-2"></use>
            </mask>
            <g id="Clip-4"></g>
            <path d="M7.24451899,2.75520418 L7.24451899,4.50220418 C6.52151899,6.26120418 4.99051899,7.52620418 3.07151899,7.20620418 C1.28851899,6.90820418 -0.0514810117,5.35120418 0.00151898828,3.52220418 C0.0555189883,1.71320418 1.44651899,0.219204182 3.27151899,0.0212041823 C5.11451899,-0.178795818 6.53651899,1.05920418 7.24451899,2.75520418" id="Fill-3" fill="#000000" mask="url(#mask-3)"></path>
        </g>
        <g id="Grupo" stroke-width="1" transform="translate(108.9028, 21.9552)">
            <mask id="mask-5" fill="white">
                <use xlink:href="#path-4"></use>
            </mask>
            <g id="Clip-6"></g>
            <path d="M7.24452007,2.75503411 L7.24452007,4.50203411 C6.52152007,6.26103411 4.99052007,7.52603411 3.07152007,7.20603411 C1.28752007,6.90803411 -0.051479932,5.35103411 0.00152006799,3.52203411 C0.055520068,1.71303411 1.44652007,0.219034111 3.27152007,0.0210341111 C5.11452007,-0.177965889 6.53652007,1.05803411 7.24452007,2.75503411" id="Fill-5" fill="#000000" mask="url(#mask-5)"></path>
        </g>
        <g id="Grupo" stroke-width="1" transform="translate(108.9028, 43.6904)">
            <mask id="mask-7" fill="white">
                <use xlink:href="#path-6"></use>
            </mask>
            <g id="Clip-8"></g>
            <path d="M7.24452007,2.75502005 L7.24452007,4.50202005 C6.52152007,6.26102005 4.99052007,7.52602005 3.07152007,7.20602005 C1.28752007,6.90802005 -0.051479932,5.35102005 0.00152006799,3.52202005 C0.055520068,1.71302005 1.44652007,0.219020051 3.27152007,0.0210200511 C5.11452007,-0.177979949 6.53652007,1.05902005 7.24452007,2.75502005" id="Fill-7" fill="#000000" mask="url(#mask-7)"></path>
        </g>
        <g id="Grupo" stroke-width="1" transform="translate(108.9028, 54.558)">
            <mask id="mask-9" fill="white">
                <use xlink:href="#path-8"></use>
            </mask>
            <g id="Clip-10"></g>
            <path d="M7.24452007,2.75502005 L7.24452007,4.50202005 C6.52152007,6.26102005 4.99052007,7.52602005 3.07152007,7.20602005 C1.28752007,6.90802005 -0.051479932,5.35102005 0.00152006799,3.52202005 C0.055520068,1.71302005 1.44652007,0.219020051 3.27152007,0.0210200511 C5.11452007,-0.177979949 6.53652007,1.05902005 7.24452007,2.75502005" id="Fill-9" fill="#000000" mask="url(#mask-9)"></path>
        </g>
        <g id="Grupo" stroke-width="1" transform="translate(108.9061, 32.8535)">
            <mask id="mask-11" fill="white">
                <use xlink:href="#path-10"></use>
            </mask>
            <g id="Clip-12"></g>
            <path d="M7.2412066,2.9490239 L7.2412066,4.4710239 C6.5632066,6.1130239 5.1922066,7.3190239 3.4702066,7.2190239 C1.6462066,7.1130239 0.245206604,5.7170239 0.0322066044,4.0950239 C-0.210793396,2.2390239 0.949206604,0.6040239 2.5692066,0.1420239 C4.2242066,-0.3299761 6.1402066,0.3980239 6.8042066,1.9760239 C6.9692066,2.3690239 7.1112066,2.6820239 7.2412066,2.9490239" id="Fill-11" fill="#000000" mask="url(#mask-11)"></path>
        </g>
        <path d="M50.9341,14.7141 C50.9341,16.7111 49.3151,18.3301 47.3181,18.3301 C45.3211,18.3301 43.7011,16.7111 43.7011,14.7141 C43.7011,12.7171 45.3211,11.0981 47.3181,11.0981 C49.3151,11.0981 50.9341,12.7171 50.9341,14.7141" id="Fill-13" fill="#000000"></path>
        <path d="M72.6693,14.7141 C72.6693,16.7111 71.0503,18.3301 69.0533,18.3301 C67.0563,18.3301 65.4363,16.7111 65.4363,14.7141 C65.4363,12.7171 67.0563,11.0981 69.0533,11.0981 C71.0503,11.0981 72.6693,12.7171 72.6693,14.7141" id="Fill-15" fill="#000000"></path>
        <path d="M7.4634,25.5817 C7.4634,27.5787 5.8444,29.1987 3.8464,29.1987 C1.8494,29.1987 0.2304,27.5787 0.2304,25.5817 C0.2304,23.5847 1.8494,21.9647 3.8464,21.9647 C5.8444,21.9647 7.4634,23.5847 7.4634,25.5817" id="Fill-17" fill="#000000"></path>
        <path d="M18.3331,25.5813 C18.3331,27.5783 16.7141,29.1983 14.7161,29.1983 C12.7191,29.1983 11.1001,27.5783 11.1001,25.5813 C11.1001,23.5843 12.7191,21.9643 14.7161,21.9643 C16.7141,21.9643 18.3331,23.5843 18.3331,25.5813" id="Fill-19" fill="#000000"></path>
        <path d="M40.0665,25.5817 C40.0665,27.5787 38.4475,29.1977 36.4505,29.1977 C34.4535,29.1977 32.8335,27.5787 32.8335,25.5817 C32.8335,23.5847 34.4535,21.9657 36.4505,21.9657 C38.4475,21.9657 40.0665,23.5847 40.0665,25.5817" id="Fill-21" fill="#000000"></path>
        <path d="M50.9341,25.5817 C50.9341,27.5787 49.3151,29.1977 47.3181,29.1977 C45.3211,29.1977 43.7011,27.5787 43.7011,25.5817 C43.7011,23.5847 45.3211,21.9657 47.3181,21.9657 C49.3151,21.9657 50.9341,23.5847 50.9341,25.5817" id="Fill-23" fill="#000000"></path>
        <path d="M61.8017,25.5817 C61.8017,27.5787 60.1827,29.1977 58.1857,29.1977 C56.1887,29.1977 54.5687,27.5787 54.5687,25.5817 C54.5687,23.5847 56.1887,21.9657 58.1857,21.9657 C60.1827,21.9657 61.8017,23.5847 61.8017,25.5817" id="Fill-25" fill="#000000"></path>
        <path d="M72.6693,25.5817 C72.6693,27.5787 71.0503,29.1977 69.0533,29.1977 C67.0563,29.1977 65.4373,27.5787 65.4373,25.5817 C65.4373,23.5847 67.0563,21.9657 69.0533,21.9657 C71.0503,21.9657 72.6693,23.5847 72.6693,25.5817" id="Fill-27" fill="#000000"></path>
        <path d="M83.5369,25.5817 C83.5369,27.5787 81.9179,29.1977 79.9209,29.1977 C77.9229,29.1977 76.3039,27.5787 76.3039,25.5817 C76.3039,23.5847 77.9229,21.9657 79.9209,21.9657 C81.9179,21.9657 83.5369,23.5847 83.5369,25.5817" id="Fill-29" fill="#000000"></path>
        <path d="M94.404,101.6548 C94.404,103.6518 92.785,105.2708 90.788,105.2708 C88.791,105.2708 87.172,103.6518 87.172,101.6548 C87.172,99.6578 88.791,98.0388 90.788,98.0388 C92.785,98.0388 94.404,99.6578 94.404,101.6548" id="Fill-31" fill="#000000"></path>
        <path d="M7.4628,36.4494 C7.4628,38.4464 5.8438,40.0654 3.8468,40.0654 C1.8498,40.0654 0.2308,38.4464 0.2308,36.4494 C0.2308,34.4524 1.8498,32.8334 3.8468,32.8334 C5.8438,32.8334 7.4628,34.4524 7.4628,36.4494" id="Fill-33" fill="#000000"></path>
        <path d="M18.3313,36.4493 C18.3313,38.4463 16.7123,40.0653 14.7153,40.0653 C12.7183,40.0653 11.0983,38.4463 11.0983,36.4493 C11.0983,34.4523 12.7183,32.8333 14.7153,32.8333 C16.7123,32.8333 18.3313,34.4523 18.3313,36.4493" id="Fill-35" fill="#000000"></path>
        <path d="M83.5368,101.6548 C83.5368,103.6518 81.9178,105.2708 79.9208,105.2708 C77.9238,105.2708 76.3038,103.6518 76.3038,101.6548 C76.3038,99.6578 77.9238,98.0388 79.9208,98.0388 C81.9178,98.0388 83.5368,99.6578 83.5368,101.6548" id="Fill-37" fill="#000000"></path>
        <path d="M50.9341,36.4493 C50.9341,38.4463 49.3151,40.0653 47.3181,40.0653 C45.3211,40.0653 43.7011,38.4463 43.7011,36.4493 C43.7011,34.4523 45.3211,32.8333 47.3181,32.8333 C49.3151,32.8333 50.9341,34.4523 50.9341,36.4493" id="Fill-39" fill="#000000"></path>
        <path d="M61.8017,36.4493 C61.8017,38.4463 60.1827,40.0653 58.1857,40.0653 C56.1887,40.0653 54.5697,38.4463 54.5697,36.4493 C54.5697,34.4523 56.1887,32.8333 58.1857,32.8333 C60.1827,32.8333 61.8017,34.4523 61.8017,36.4493" id="Fill-41" fill="#000000"></path>
        <path d="M72.6693,36.4493 C72.6693,38.4463 71.0503,40.0653 69.0533,40.0653 C67.0553,40.0653 65.4363,38.4463 65.4363,36.4493 C65.4363,34.4523 67.0553,32.8333 69.0533,32.8333 C71.0503,32.8333 72.6693,34.4523 72.6693,36.4493" id="Fill-43" fill="#000000"></path>
        <path d="M72.6693,101.6548 C72.6693,103.6518 71.0503,105.2708 69.0533,105.2708 C67.0563,105.2708 65.4363,103.6518 65.4363,101.6548 C65.4363,99.6578 67.0563,98.0388 69.0533,98.0388 C71.0503,98.0388 72.6693,99.6578 72.6693,101.6548" id="Fill-45" fill="#000000"></path>
        <path d="M105.272,36.4493 C105.272,38.4463 103.653,40.0653 101.656,40.0653 C99.658,40.0653 98.039,38.4463 98.039,36.4493 C98.039,34.4523 99.658,32.8333 101.656,32.8333 C103.653,32.8333 105.272,34.4523 105.272,36.4493" id="Fill-47" fill="#000000"></path>
        <path d="M50.9341,101.6548 C50.9341,103.6518 49.3151,105.2708 47.3181,105.2708 C45.3201,105.2708 43.7011,103.6518 43.7011,101.6548 C43.7011,99.6578 45.3201,98.0388 47.3181,98.0388 C49.3151,98.0388 50.9341,99.6578 50.9341,101.6548" id="Fill-49" fill="#000000"></path>
        <path d="M7.4634,47.3169 C7.4634,49.3139 5.8444,50.9339 3.8464,50.9339 C1.8494,50.9339 0.2304,49.3139 0.2304,47.3169 C0.2304,45.3199 1.8494,43.6999 3.8464,43.6999 C5.8444,43.6999 7.4634,45.3199 7.4634,47.3169" id="Fill-51" fill="#000000"></path>
        <path d="M18.3313,47.3169 C18.3313,49.3139 16.7123,50.9329 14.7153,50.9329 C12.7183,50.9329 11.0983,49.3139 11.0983,47.3169 C11.0983,45.3199 12.7183,43.7009 14.7153,43.7009 C16.7123,43.7009 18.3313,45.3199 18.3313,47.3169" id="Fill-53" fill="#000000"></path>
        <path d="M40.0665,101.6548 C40.0665,103.6518 38.4475,105.2708 36.4505,105.2708 C34.4535,105.2708 32.8335,103.6518 32.8335,101.6548 C32.8335,99.6578 34.4535,98.0388 36.4505,98.0388 C38.4475,98.0388 40.0665,99.6578 40.0665,101.6548" id="Fill-55" fill="#000000"></path>
        <path d="M61.8017,47.3169 C61.8017,49.3139 60.1827,50.9329 58.1857,50.9329 C56.1887,50.9329 54.5687,49.3139 54.5687,47.3169 C54.5687,45.3199 56.1887,43.7009 58.1857,43.7009 C60.1827,43.7009 61.8017,45.3199 61.8017,47.3169" id="Fill-57" fill="#000000"></path>
        <path d="M29.199,101.6564 C29.199,103.6544 27.58,105.2734 25.582,105.2734 C23.585,105.2734 21.965,103.6544 21.965,101.6564 C21.965,99.6584 23.585,98.0394 25.582,98.0394 C27.58,98.0394 29.199,99.6584 29.199,101.6564" id="Fill-59" fill="#000000"></path>
        <path d="M105.272,47.3169 C105.272,49.3139 103.653,50.9329 101.656,50.9329 C99.659,50.9329 98.039,49.3139 98.039,47.3169 C98.039,45.3199 99.659,43.7009 101.656,43.7009 C103.653,43.7009 105.272,45.3199 105.272,47.3169" id="Fill-61" fill="#000000"></path>
        <path d="M7.4634,58.1845 C7.4634,60.1815 5.8444,61.8015 3.8464,61.8015 C1.8494,61.8015 0.2304,60.1815 0.2304,58.1845 C0.2304,56.1875 1.8494,54.5675 3.8464,54.5675 C5.8444,54.5675 7.4634,56.1875 7.4634,58.1845" id="Fill-63" fill="#000000"></path>
        <path d="M18.3313,58.1845 C18.3313,60.1815 16.7123,61.8005 14.7153,61.8005 C12.7183,61.8005 11.0983,60.1815 11.0983,58.1845 C11.0983,56.1875 12.7183,54.5685 14.7153,54.5685 C16.7123,54.5685 18.3313,56.1875 18.3313,58.1845" id="Fill-65" fill="#000000"></path>
        <path d="M29.1989,58.1845 C29.1989,60.1815 27.5799,61.8005 25.5829,61.8005 C23.5859,61.8005 21.9659,60.1815 21.9659,58.1845 C21.9659,56.1875 23.5859,54.5685 25.5829,54.5685 C27.5799,54.5685 29.1989,56.1875 29.1989,58.1845" id="Fill-67" fill="#000000"></path>
        <path d="M83.5369,90.7872 C83.5369,92.7842 81.9179,94.4032 79.9209,94.4032 C77.9239,94.4032 76.3039,92.7842 76.3039,90.7872 C76.3039,88.7902 77.9239,87.1712 79.9209,87.1712 C81.9179,87.1712 83.5369,88.7902 83.5369,90.7872" id="Fill-69" fill="#000000"></path>
        <path d="M94.4044,58.1845 C94.4044,60.1815 92.7854,61.8005 90.7884,61.8005 C88.7914,61.8005 87.1714,60.1815 87.1714,58.1845 C87.1714,56.1875 88.7914,54.5685 90.7884,54.5685 C92.7854,54.5685 94.4044,56.1875 94.4044,58.1845" id="Fill-71" fill="#000000"></path>
        <path d="M105.272,58.1845 C105.272,60.1815 103.653,61.8005 101.656,61.8005 C99.659,61.8005 98.039,60.1815 98.039,58.1845 C98.039,56.1875 99.659,54.5685 101.656,54.5685 C103.653,54.5685 105.272,56.1875 105.272,58.1845" id="Fill-73" fill="#000000"></path>
        <path d="M7.4634,14.7142 C7.4634,16.7112 5.8444,18.3312 3.8464,18.3312 C1.8494,18.3312 0.2304,16.7112 0.2304,14.7142 C0.2304,12.7172 1.8494,11.0972 3.8464,11.0972 C5.8444,11.0972 7.4634,12.7172 7.4634,14.7142" id="Fill-75" fill="#000000"></path>
        <path d="M18.3313,69.052 C18.3313,71.049 16.7123,72.668 14.7153,72.668 C12.7183,72.668 11.0983,71.049 11.0983,69.052 C11.0983,67.055 12.7183,65.436 14.7153,65.436 C16.7123,65.436 18.3313,67.055 18.3313,69.052" id="Fill-77" fill="#000000"></path>
        <path d="M29.1989,69.0521 C29.1989,71.0491 27.5799,72.6681 25.5829,72.6681 C23.5859,72.6681 21.9669,71.0491 21.9669,69.0521 C21.9669,67.0551 23.5859,65.4361 25.5829,65.4361 C27.5799,65.4361 29.1989,67.0551 29.1989,69.0521" id="Fill-79" fill="#000000"></path>
        <path d="M40.0665,69.052 C40.0665,71.049 38.4475,72.668 36.4505,72.668 C34.4535,72.668 32.8335,71.049 32.8335,69.052 C32.8335,67.055 34.4535,65.436 36.4505,65.436 C38.4475,65.436 40.0665,67.055 40.0665,69.052" id="Fill-81" fill="#000000"></path>
        <path d="M83.5369,69.052 C83.5369,71.049 81.9179,72.668 79.9209,72.668 C77.9239,72.668 76.3039,71.049 76.3039,69.052 C76.3039,67.055 77.9239,65.436 79.9209,65.436 C81.9179,65.436 83.5369,67.055 83.5369,69.052" id="Fill-83" fill="#000000"></path>
        <path d="M94.4044,69.052 C94.4044,71.049 92.7854,72.668 90.7884,72.668 C88.7914,72.668 87.1714,71.049 87.1714,69.052 C87.1714,67.055 88.7914,65.436 90.7884,65.436 C92.7854,65.436 94.4044,67.055 94.4044,69.052" id="Fill-85" fill="#000000"></path>
        <path d="M105.272,69.0521 C105.272,71.0491 103.653,72.6681 101.656,72.6681 C99.659,72.6681 98.039,71.0491 98.039,69.0521 C98.039,67.0551 99.659,65.4361 101.656,65.4361 C103.653,65.4361 105.272,67.0551 105.272,69.0521" id="Fill-87" fill="#000000"></path>
        <path d="M29.1989,79.9196 C29.1989,81.9166 27.5799,83.5356 25.5829,83.5356 C23.5859,83.5356 21.9659,81.9166 21.9659,79.9196 C21.9659,77.9226 23.5859,76.3036 25.5829,76.3036 C27.5799,76.3036 29.1989,77.9226 29.1989,79.9196" id="Fill-89" fill="#000000"></path>
        <path d="M72.6693,90.7872 C72.6693,92.7842 71.0503,94.4032 69.0533,94.4032 C67.0563,94.4032 65.4363,92.7842 65.4363,90.7872 C65.4363,88.7902 67.0563,87.1712 69.0533,87.1712 C71.0503,87.1712 72.6693,88.7902 72.6693,90.7872" id="Fill-91" fill="#000000"></path>
        <path d="M50.9341,79.9197 C50.9341,81.9167 49.3151,83.5357 47.3181,83.5357 C45.3211,83.5357 43.7011,81.9167 43.7011,79.9197 C43.7011,77.9227 45.3211,76.3037 47.3181,76.3037 C49.3151,76.3037 50.9341,77.9227 50.9341,79.9197" id="Fill-93" fill="#000000"></path>
        <path d="M72.6693,79.9196 C72.6693,81.9166 71.0503,83.5356 69.0533,83.5356 C67.0563,83.5356 65.4363,81.9166 65.4363,79.9196 C65.4363,77.9226 67.0563,76.3036 69.0533,76.3036 C71.0503,76.3036 72.6693,77.9226 72.6693,79.9196" id="Fill-95" fill="#000000"></path>
        <path d="M50.9341,90.7872 C50.9341,92.7842 49.3151,94.4032 47.3181,94.4032 C45.3211,94.4032 43.7011,92.7842 43.7011,90.7872 C43.7011,88.7902 45.3211,87.1712 47.3181,87.1712 C49.3151,87.1712 50.9341,88.7902 50.9341,90.7872" id="Fill-97" fill="#000000"></path>
        <path d="M94.4044,79.9196 C94.4044,81.9166 92.7854,83.5356 90.7884,83.5356 C88.7914,83.5356 87.1714,81.9166 87.1714,79.9196 C87.1714,77.9226 88.7914,76.3036 90.7884,76.3036 C92.7854,76.3036 94.4044,77.9226 94.4044,79.9196" id="Fill-99" fill="#000000"></path>
        <path d="M40.0665,90.7872 C40.0665,92.7842 38.4475,94.4032 36.4505,94.4032 C34.4535,94.4032 32.8335,92.7842 32.8335,90.7872 C32.8335,88.7902 34.4535,87.1712 36.4505,87.1712 C38.4475,87.1712 40.0665,88.7902 40.0665,90.7872" id="Fill-101" fill="#000000"></path>
        <path d="M29.1966,90.7881 C29.1966,92.7851 27.5776,94.4031 25.5816,94.4031 C23.5846,94.4031 21.9656,92.7851 21.9656,90.7881 C21.9656,88.7911 23.5846,87.1731 25.5816,87.1731 C27.5776,87.1731 29.1966,88.7911 29.1966,90.7881" id="Fill-103" fill="#000000"></path>
        <path d="M94.4044,90.7884 C94.4044,92.7854 92.7854,94.4044 90.7884,94.4044 C88.7924,94.4044 87.1734,92.7854 87.1734,90.7884 C87.1734,88.7914 88.7924,87.1724 90.7884,87.1724 C92.7854,87.1724 94.4044,88.7914 94.4044,90.7884" id="Fill-105" fill="#000000"></path>
        <path d="M105.2661,25.5817 C105.2661,27.5777 103.6481,29.1967 101.6511,29.1967 C99.6551,29.1967 98.0361,27.5777 98.0361,25.5817 C98.0361,23.5847 99.6551,21.9667 101.6511,21.9667 C103.6481,21.9667 105.2661,23.5847 105.2661,25.5817" id="Fill-107" fill="#000000"></path>
        <path d="M83.5346,79.9198 C83.5346,81.9158 81.9166,83.5348 79.9196,83.5348 C77.9236,83.5348 76.3046,81.9158 76.3046,79.9198 C76.3046,77.9238 77.9236,76.3048 79.9196,76.3048 C81.9166,76.3048 83.5346,77.9238 83.5346,79.9198" id="Fill-109" fill="#000000"></path>
        <path d="M40.0642,79.919 C40.0642,81.915 38.4462,83.534 36.4492,83.534 C34.4532,83.534 32.8352,81.915 32.8352,79.919 C32.8352,77.923 34.4532,76.304 36.4492,76.304 C38.4462,76.304 40.0642,77.923 40.0642,79.919" id="Fill-111" fill="#000000"></path>
        <path d="M50.9319,47.3171 C50.9319,49.3131 49.3139,50.9321 47.3169,50.9321 C45.3209,50.9321 43.7029,49.3131 43.7029,47.3171 C43.7029,45.3211 45.3209,43.7021 47.3169,43.7021 C49.3139,43.7021 50.9319,45.3211 50.9319,47.3171" id="Fill-113" fill="#000000"></path>
        <path d="M83.5346,36.4486 C83.5346,38.4446 81.9166,40.0636 79.9196,40.0636 C77.9236,40.0636 76.3056,38.4446 76.3056,36.4486 C76.3056,34.4526 77.9236,32.8336 79.9196,32.8336 C81.9166,32.8336 83.5346,34.4526 83.5346,36.4486" id="Fill-115" fill="#000000"></path>
        <path d="M40.0643,36.4495 C40.0643,38.4455 38.4463,40.0645 36.4493,40.0645 C34.4533,40.0645 32.8353,38.4455 32.8353,36.4495 C32.8353,34.4535 34.4533,32.8345 36.4493,32.8345 C38.4463,32.8345 40.0643,34.4535 40.0643,36.4495" id="Fill-117" fill="#000000"></path>
        <path d="M61.8,58.1737 C61.8,60.1687 60.183,61.7857 58.188,61.7857 C56.193,61.7857 54.576,60.1687 54.576,58.1737 C54.576,56.1787 56.193,54.5617 58.188,54.5617 C60.183,54.5617 61.8,56.1787 61.8,58.1737" id="Fill-119" fill="#000000"></path>
        <path d="M72.6648,47.3042 C72.6648,49.2962 71.0498,50.9112 69.0568,50.9112 C67.0648,50.9112 65.4498,49.2962 65.4498,47.3042 C65.4498,45.3122 67.0648,43.6962 69.0568,43.6962 C71.0498,43.6962 72.6648,45.3122 72.6648,47.3042" id="Fill-121" fill="#000000"></path>
    </g>
</svg>