<?xml version="1.0" encoding="UTF-8"?>
<svg width="150px" height="150px" viewBox="0 0 150 150" version="1.1" xmlns="http://www.w3.org/2000/svg" xmlns:xlink="http://www.w3.org/1999/xlink">
    <title>whitening_confidence</title>
    <defs>
        <path d="M0,0 L150,0 L150,150 L0,150 L0,0 Z" id="path-1"></path>
        <polygon id="path-2" points="0 0 149.9996 0 149.9996 149.9996 0 149.9996"></polygon>
    </defs>
    <g id="whitening_confidence" stroke="none" fill="none" xlink:href="#path-1" fill-rule="evenodd">
        <g id="Grupo" stroke-width="1" transform="translate(0.0004, 0)">
            <mask id="mask-3" fill="white">
                <use xlink:href="#path-2"></use>
            </mask>
            <g id="Clip-2"></g>
        </g>
        <path d="M37.7081,18.7114 C37.7081,21.2904 35.6171,23.3804 33.0391,23.3804 C30.4601,23.3804 28.3691,21.2904 28.3691,18.7114 C28.3691,16.1324 30.4601,14.0424 33.0391,14.0424 C35.6171,14.0424 37.7081,16.1324 37.7081,18.7114" id="Fill-3" fill="#000000"></path>
        <path d="M51.7441,18.7109 C51.7441,21.2899 49.6531,23.3809 47.0741,23.3809 C44.4951,23.3809 42.4041,21.2899 42.4041,18.7109 C42.4041,16.1319 44.4951,14.0409 47.0741,14.0409 C49.6531,14.0409 51.7441,16.1319 51.7441,18.7109" id="Fill-5" fill="#000000"></path>
        <path d="M65.7792,18.7109 C65.7792,21.2899 63.6882,23.3809 61.1092,23.3809 C58.5302,23.3809 56.4392,21.2899 56.4392,18.7109 C56.4392,16.1319 58.5302,14.0409 61.1092,14.0409 C63.6882,14.0409 65.7792,16.1319 65.7792,18.7109" id="Fill-7" fill="#000000"></path>
        <path d="M79.8143,18.7109 C79.8143,21.2899 77.7233,23.3809 75.1443,23.3809 C72.5653,23.3809 70.4743,21.2899 70.4743,18.7109 C70.4743,16.1319 72.5653,14.0409 75.1443,14.0409 C77.7233,14.0409 79.8143,16.1319 79.8143,18.7109" id="Fill-9" fill="#000000"></path>
        <path d="M93.8493,18.7109 C93.8493,21.2899 91.7583,23.3809 89.1793,23.3809 C86.6003,23.3809 84.5093,21.2899 84.5093,18.7109 C84.5093,16.1319 86.6003,14.0409 89.1793,14.0409 C91.7583,14.0409 93.8493,16.1319 93.8493,18.7109" id="Fill-11" fill="#000000"></path>
        <path d="M107.8844,18.7109 C107.8844,21.2899 105.7934,23.3809 103.2144,23.3809 C100.6354,23.3809 98.5444,21.2899 98.5444,18.7109 C98.5444,16.1319 100.6354,14.0409 103.2144,14.0409 C105.7934,14.0409 107.8844,16.1319 107.8844,18.7109" id="Fill-13" fill="#000000"></path>
        <path d="M23.6762,32.7454 C23.6762,35.3244 21.5852,37.4154 19.0062,37.4154 C16.4262,37.4154 14.3352,35.3244 14.3352,32.7454 C14.3352,30.1664 16.4262,28.0754 19.0062,28.0754 C21.5852,28.0754 23.6762,30.1664 23.6762,32.7454" id="Fill-15" fill="#000000"></path>
        <path d="M23.6739,46.7811 C23.6739,49.3601 21.5829,51.4511 19.0039,51.4511 C16.4249,51.4511 14.3339,49.3601 14.3339,46.7811 C14.3339,44.2021 16.4249,42.1111 19.0039,42.1111 C21.5829,42.1111 23.6739,44.2021 23.6739,46.7811" id="Fill-17" fill="#000000"></path>
        <path d="M135.9546,46.7811 C135.9546,49.3601 133.8636,51.4511 131.2846,51.4511 C128.7056,51.4511 126.6146,49.3601 126.6146,46.7811 C126.6146,44.2021 128.7056,42.1111 131.2846,42.1111 C133.8636,42.1111 135.9546,44.2021 135.9546,46.7811" id="Fill-19" fill="#000000"></path>
        <path d="M23.6739,60.8162 C23.6739,63.3952 21.5829,65.4862 19.0039,65.4862 C16.4249,65.4862 14.3339,63.3952 14.3339,60.8162 C14.3339,58.2372 16.4249,56.1462 19.0039,56.1462 C21.5829,56.1462 23.6739,58.2372 23.6739,60.8162" id="Fill-21" fill="#000000"></path>
        <path d="M135.9546,60.8162 C135.9546,63.3952 133.8636,65.4862 131.2846,65.4862 C128.7056,65.4862 126.6146,63.3952 126.6146,60.8162 C126.6146,58.2372 128.7056,56.1462 131.2846,56.1462 C133.8636,56.1462 135.9546,58.2372 135.9546,60.8162" id="Fill-23" fill="#000000"></path>
        <path d="M23.6739,74.8513 C23.6739,77.4303 21.5829,79.5213 19.0039,79.5213 C16.4249,79.5213 14.3339,77.4303 14.3339,74.8513 C14.3339,72.2723 16.4249,70.1813 19.0039,70.1813 C21.5829,70.1813 23.6739,72.2723 23.6739,74.8513" id="Fill-25" fill="#000000"></path>
        <path d="M51.7441,74.8513 C51.7441,77.4303 49.6531,79.5213 47.0741,79.5213 C44.4951,79.5213 42.4041,77.4303 42.4041,74.8513 C42.4041,72.2723 44.4951,70.1813 47.0741,70.1813 C49.6531,70.1813 51.7441,72.2723 51.7441,74.8513" id="Fill-27" fill="#000000"></path>
        <path d="M135.9546,74.8513 C135.9546,77.4303 133.8636,79.5213 131.2846,79.5213 C128.7056,79.5213 126.6146,77.4303 126.6146,74.8513 C126.6146,72.2723 128.7056,70.1813 131.2846,70.1813 C133.8636,70.1813 135.9546,72.2723 135.9546,74.8513" id="Fill-29" fill="#000000"></path>
        <path d="M93.8493,130.9916 C93.8493,133.5706 91.7583,135.6616 89.1793,135.6616 C86.6003,135.6616 84.5093,133.5706 84.5093,130.9916 C84.5093,128.4126 86.6003,126.3216 89.1793,126.3216 C91.7583,126.3216 93.8493,128.4126 93.8493,130.9916" id="Fill-31" fill="#000000"></path>
        <path d="M79.8143,130.9916 C79.8143,133.5706 77.7233,135.6616 75.1443,135.6616 C72.5653,135.6616 70.4743,133.5706 70.4743,130.9916 C70.4743,128.4126 72.5653,126.3216 75.1443,126.3216 C77.7233,126.3216 79.8143,128.4126 79.8143,130.9916" id="Fill-33" fill="#000000"></path>
        <path d="M65.7792,130.9916 C65.7792,133.5706 63.6882,135.6616 61.1092,135.6616 C58.5302,135.6616 56.4392,133.5706 56.4392,130.9916 C56.4392,128.4126 58.5302,126.3216 61.1092,126.3216 C63.6882,126.3216 65.7792,128.4126 65.7792,130.9916" id="Fill-35" fill="#000000"></path>
        <path d="M51.7441,130.9916 C51.7441,133.5706 49.6531,135.6616 47.0741,135.6616 C44.4951,135.6616 42.4041,133.5706 42.4041,130.9916 C42.4041,128.4126 44.4951,126.3216 47.0741,126.3216 C49.6531,126.3216 51.7441,128.4126 51.7441,130.9916" id="Fill-37" fill="#000000"></path>
        <path d="M23.6739,88.8863 C23.6739,91.4653 21.5829,93.5563 19.0039,93.5563 C16.4249,93.5563 14.3339,91.4653 14.3339,88.8863 C14.3339,86.3073 16.4249,84.2163 19.0039,84.2163 C21.5829,84.2163 23.6739,86.3073 23.6739,88.8863" id="Fill-39" fill="#000000"></path>
        <path d="M37.7091,130.9937 C37.7091,133.5737 35.6181,135.6647 33.0381,135.6647 C30.4581,135.6647 28.3671,133.5737 28.3671,130.9937 C28.3671,128.4137 30.4581,126.3227 33.0381,126.3227 C35.6181,126.3227 37.7091,128.4137 37.7091,130.9937" id="Fill-41" fill="#000000"></path>
        <path d="M107.8844,130.9916 C107.8844,133.5706 105.7934,135.6616 103.2144,135.6616 C100.6354,135.6616 98.5444,133.5706 98.5444,130.9916 C98.5444,128.4126 100.6354,126.3216 103.2144,126.3216 C105.7934,126.3216 107.8844,128.4126 107.8844,130.9916" id="Fill-43" fill="#000000"></path>
        <path d="M107.8844,88.8863 C107.8844,91.4653 105.7934,93.5563 103.2144,93.5563 C100.6354,93.5563 98.5444,91.4653 98.5444,88.8863 C98.5444,86.3073 100.6354,84.2163 103.2144,84.2163 C105.7934,84.2163 107.8844,86.3073 107.8844,88.8863" id="Fill-45" fill="#000000"></path>
        <path d="M121.9195,88.8864 C121.9195,91.4654 119.8285,93.5564 117.2495,93.5564 C114.6705,93.5564 112.5795,91.4654 112.5795,88.8864 C112.5795,86.3074 114.6705,84.2164 117.2495,84.2164 C119.8285,84.2164 121.9195,86.3074 121.9195,88.8864" id="Fill-47" fill="#000000"></path>
        <path d="M135.9546,88.8864 C135.9546,91.4654 133.8636,93.5564 131.2846,93.5564 C128.7056,93.5564 126.6146,91.4654 126.6146,88.8864 C126.6146,86.3074 128.7056,84.2164 131.2846,84.2164 C133.8636,84.2164 135.9546,86.3074 135.9546,88.8864" id="Fill-49" fill="#000000"></path>
        <path d="M23.6739,102.9214 C23.6739,105.5004 21.5829,107.5914 19.0039,107.5914 C16.4249,107.5914 14.3339,105.5004 14.3339,102.9214 C14.3339,100.3424 16.4249,98.2514 19.0039,98.2514 C21.5829,98.2514 23.6739,100.3424 23.6739,102.9214" id="Fill-51" fill="#000000"></path>
        <path d="M93.8493,102.9214 C93.8493,105.5004 91.7583,107.5914 89.1793,107.5914 C86.6003,107.5914 84.5093,105.5004 84.5093,102.9214 C84.5093,100.3424 86.6003,98.2514 89.1793,98.2514 C91.7583,98.2514 93.8493,100.3424 93.8493,102.9214" id="Fill-53" fill="#000000"></path>
        <path d="M107.8844,116.9565 C107.8844,119.5355 105.7934,121.6265 103.2144,121.6265 C100.6354,121.6265 98.5444,119.5355 98.5444,116.9565 C98.5444,114.3775 100.6354,112.2865 103.2144,112.2865 C105.7934,112.2865 107.8844,114.3775 107.8844,116.9565" id="Fill-55" fill="#000000"></path>
        <path d="M121.9195,102.9214 C121.9195,105.5004 119.8285,107.5914 117.2495,107.5914 C114.6705,107.5914 112.5795,105.5004 112.5795,102.9214 C112.5795,100.3424 114.6705,98.2514 117.2495,98.2514 C119.8285,98.2514 121.9195,100.3424 121.9195,102.9214" id="Fill-57" fill="#000000"></path>
        <path d="M135.9546,102.9214 C135.9546,105.5004 133.8636,107.5914 131.2846,107.5914 C128.7056,107.5914 126.6146,105.5004 126.6146,102.9214 C126.6146,100.3424 128.7056,98.2514 131.2846,98.2514 C133.8636,98.2514 135.9546,100.3424 135.9546,102.9214" id="Fill-59" fill="#000000"></path>
        <path d="M23.6729,116.9571 C23.6729,119.5361 21.5819,121.6271 19.0029,121.6271 C16.4229,121.6271 14.3319,119.5361 14.3319,116.9571 C14.3319,114.3781 16.4229,112.2871 19.0029,112.2871 C21.5819,112.2871 23.6729,114.3781 23.6729,116.9571" id="Fill-61" fill="#000000"></path>
        <path d="M93.8493,116.9565 C93.8493,119.5355 91.7583,121.6265 89.1793,121.6265 C86.6003,121.6265 84.5093,119.5355 84.5093,116.9565 C84.5093,114.3775 86.6003,112.2865 89.1793,112.2865 C91.7583,112.2865 93.8493,114.3775 93.8493,116.9565" id="Fill-63" fill="#000000"></path>
        <path d="M121.9195,116.9581 C121.9195,119.5371 119.8295,121.6271 117.2505,121.6271 C114.6715,121.6271 112.5815,119.5371 112.5815,116.9581 C112.5815,114.3791 114.6715,112.2891 117.2505,112.2891 C119.8295,112.2891 121.9195,114.3791 121.9195,116.9581" id="Fill-65" fill="#000000"></path>
        <path d="M135.947,32.7459 C135.947,35.3239 133.857,37.4139 131.279,37.4139 C128.7,37.4139 126.61,35.3239 126.61,32.7459 C126.61,30.1679 128.7,28.0779 131.279,28.0779 C133.857,28.0779 135.947,30.1679 135.947,32.7459" id="Fill-67" fill="#000000"></path>
        <path d="M121.9167,18.7171 C121.9167,21.2951 119.8267,23.3851 117.2487,23.3851 C114.6707,23.3851 112.5807,21.2951 112.5807,18.7171 C112.5807,16.1391 114.6707,14.0491 117.2487,14.0491 C119.8267,14.0491 121.9167,16.1391 121.9167,18.7171" id="Fill-69" fill="#000000"></path>
        <path d="M79.8143,88.8907 C79.8143,91.4687 77.7243,93.5587 75.1463,93.5587 C72.5693,93.5587 70.4793,91.4687 70.4793,88.8907 C70.4793,86.3127 72.5693,84.2227 75.1463,84.2227 C77.7243,84.2227 79.8143,86.3127 79.8143,88.8907" id="Fill-71" fill="#000000"></path>
        <path d="M107.8815,102.9217 C107.8815,105.4997 105.7915,107.5897 103.2135,107.5897 C100.6355,107.5897 98.5455,105.4997 98.5455,102.9217 C98.5455,100.3437 100.6355,98.2537 103.2135,98.2537 C105.7915,98.2537 107.8815,100.3437 107.8815,102.9217" id="Fill-73" fill="#000000"></path>
        <path d="M107.8815,46.7802 C107.8815,49.3582 105.7915,51.4482 103.2135,51.4482 C100.6355,51.4482 98.5455,49.3582 98.5455,46.7802 C98.5455,44.2022 100.6355,42.1122 103.2135,42.1122 C105.7915,42.1122 107.8815,44.2022 107.8815,46.7802" id="Fill-75" fill="#000000"></path>
        <path d="M51.7411,46.7813 C51.7411,49.3593 49.6511,51.4493 47.0731,51.4493 C44.4951,51.4493 42.4051,49.3593 42.4051,46.7813 C42.4051,44.2033 44.4951,42.1133 47.0731,42.1133 C49.6511,42.1133 51.7411,44.2033 51.7411,46.7813" id="Fill-77" fill="#000000"></path>
        <path d="M65.7697,88.8935 C65.7697,91.4725 63.6787,93.5625 61.1007,93.5625 C58.5217,93.5625 56.4307,91.4725 56.4307,88.8935 C56.4307,86.3145 58.5217,84.2245 61.1007,84.2245 C63.6787,84.2245 65.7697,86.3145 65.7697,88.8935" id="Fill-79" fill="#000000"></path>
    </g>
</svg>