<?xml version="1.0" encoding="UTF-8"?>
<svg width="38px" height="38px" viewBox="0 0 38 38" version="1.1" xmlns="http://www.w3.org/2000/svg" xmlns:xlink="http://www.w3.org/1999/xlink">
    <title>one_sesion</title>
    <defs>
        <path d="M0,0 L38,0 L38,38 L0,38 L0,0 Z" id="path-1"></path>
    </defs>
    <g id="one_sesion" stroke="none" fill="none" xlink:href="#path-1" fill-rule="evenodd">
        <path d="M13.1086067,4.81411867 C13.1086067,5.46746533 12.5788867,5.99718533 11.92554,5.99718533 C11.27194,5.99718533 10.74222,5.46746533 10.74222,4.81411867 C10.74222,4.160772 11.27194,3.631052 11.92554,3.631052 C12.5788867,3.631052 13.1086067,4.160772 13.1086067,4.81411867" id="Fill-3" fill="#F1FF91"></path>
        <path d="M16.6641653,4.814144 C16.6641653,5.46749067 16.1344453,5.99721067 15.4810987,5.99721067 C14.8274987,5.99721067 14.2977787,5.46749067 14.2977787,4.814144 C14.2977787,4.16079733 14.8274987,3.63107733 15.4810987,3.63107733 C16.1344453,3.63107733 16.6641653,4.16079733 16.6641653,4.814144" id="Fill-5" fill="#F1FF91"></path>
        <path d="M20.2196987,4.814144 C20.2196987,5.46749067 19.6899787,5.99721067 19.036632,5.99721067 C18.383032,5.99721067 17.853312,5.46749067 17.853312,4.814144 C17.853312,4.16079733 18.383032,3.63107733 19.036632,3.63107733 C19.6899787,3.63107733 20.2196987,4.16079733 20.2196987,4.814144" id="Fill-7" fill="#F1FF91"></path>
        <path d="M23.7752573,4.814144 C23.7752573,5.46749067 23.2455373,5.99721067 22.5921907,5.99721067 C21.9385907,5.99721067 21.4088707,5.46749067 21.4088707,4.814144 C21.4088707,4.16079733 21.9385907,3.63107733 22.5921907,3.63107733 C23.2455373,3.63107733 23.7752573,4.16079733 23.7752573,4.814144" id="Fill-9" fill="#F1FF91"></path>
        <path d="M27.330816,4.814144 C27.330816,5.46749067 26.801096,5.99721067 26.1477493,5.99721067 C25.4941493,5.99721067 24.9644293,5.46749067 24.9644293,4.814144 C24.9644293,4.16079733 25.4941493,3.63107733 26.1477493,3.63107733 C26.801096,3.63107733 27.330816,4.16079733 27.330816,4.814144" id="Fill-11" fill="#F1FF91"></path>
        <path d="M5.99748933,11.925236 C5.99748933,12.5785827 5.46776933,13.1083027 4.81442267,13.1083027 C4.16082267,13.1083027 3.63110267,12.5785827 3.63110267,11.925236 C3.63110267,11.2718893 4.16082267,10.7421693 4.81442267,10.7421693 C5.46776933,10.7421693 5.99748933,11.2718893 5.99748933,11.925236" id="Fill-13" fill="#F1FF91"></path>
        <path d="M20.2196987,11.925236 C20.2196987,12.5785827 19.6899787,13.1083027 19.036632,13.1083027 C18.383032,13.1083027 17.853312,12.5785827 17.853312,11.925236 C17.853312,11.2718893 18.383032,10.7421693 19.036632,10.7421693 C19.6899787,10.7421693 20.2196987,11.2718893 20.2196987,11.925236" id="Fill-15" fill="#F1FF91"></path>
        <path d="M34.4419333,11.925236 C34.4419333,12.5785827 33.9122133,13.1083027 33.2588667,13.1083027 C32.6052667,13.1083027 32.0755467,12.5785827 32.0755467,11.925236 C32.0755467,11.2718893 32.6052667,10.7421693 33.2588667,10.7421693 C33.9122133,10.7421693 34.4419333,11.2718893 34.4419333,11.925236" id="Fill-17" fill="#F1FF91"></path>
        <path d="M2.44182933,15.4807947 C2.44182933,16.1343947 1.91210933,16.6641147 1.25850933,16.6641147 C0.605162667,16.6641147 0.0754426667,16.1343947 0.0754426667,15.4807947 C0.0754426667,14.8271947 0.605162667,14.2974747 1.25850933,14.2974747 C1.91210933,14.2974747 2.44182933,14.8271947 2.44182933,15.4807947" id="Fill-19" fill="#F1FF91"></path>
        <path d="M5.99748933,15.4807947 C5.99748933,16.1341413 5.46776933,16.6638613 4.81442267,16.6638613 C4.16082267,16.6638613 3.63110267,16.1341413 3.63110267,15.4807947 C3.63110267,14.827448 4.16082267,14.297728 4.81442267,14.297728 C5.46776933,14.297728 5.99748933,14.827448 5.99748933,15.4807947" id="Fill-21" fill="#F1FF91"></path>
        <path d="M9.55302267,15.4807947 C9.55302267,16.1341413 9.02330267,16.6638613 8.369956,16.6638613 C7.716356,16.6638613 7.186636,16.1341413 7.186636,15.4807947 C7.186636,14.827448 7.716356,14.297728 8.369956,14.297728 C9.02330267,14.297728 9.55302267,14.827448 9.55302267,15.4807947" id="Fill-23" fill="#F1FF91"></path>
        <path d="M20.2196987,15.4807947 C20.2196987,16.1341413 19.6899787,16.6638613 19.036632,16.6638613 C18.383032,16.6638613 17.853312,16.1341413 17.853312,15.4807947 C17.853312,14.827448 18.383032,14.297728 19.036632,14.297728 C19.6899787,14.297728 20.2196987,14.827448 20.2196987,15.4807947" id="Fill-25" fill="#F1FF91"></path>
        <path d="M34.4419333,15.4807947 C34.4419333,16.1341413 33.9122133,16.6638613 33.2588667,16.6638613 C32.6052667,16.6638613 32.0755467,16.1341413 32.0755467,15.4807947 C32.0755467,14.827448 32.6052667,14.297728 33.2588667,14.297728 C33.9122133,14.297728 34.4419333,14.827448 34.4419333,15.4807947" id="Fill-27" fill="#F1FF91"></path>
        <path d="M5.99748933,19.0363533 C5.99748933,19.6897 5.46776933,20.21942 4.81442267,20.21942 C4.16082267,20.21942 3.63110267,19.6897 3.63110267,19.0363533 C3.63110267,18.3830067 4.16082267,17.8532867 4.81442267,17.8532867 C5.46776933,17.8532867 5.99748933,18.3830067 5.99748933,19.0363533" id="Fill-29" fill="#F1FF91"></path>
        <path d="M34.4419333,19.0363533 C34.4419333,19.6897 33.9122133,20.21942 33.2588667,20.21942 C32.6052667,20.21942 32.0755467,19.6897 32.0755467,19.0363533 C32.0755467,18.3830067 32.6052667,17.8532867 33.2588667,17.8532867 C33.9122133,17.8532867 34.4419333,18.3830067 34.4419333,19.0363533" id="Fill-31" fill="#F1FF91"></path>
        <path d="M34.4419333,22.591912 C34.4419333,23.2452587 33.9122133,23.7749787 33.2588667,23.7749787 C32.6052667,23.7749787 32.0755467,23.2452587 32.0755467,22.591912 C32.0755467,21.9385653 32.6052667,21.4088453 33.2588667,21.4088453 C33.9122133,21.4088453 34.4419333,21.9385653 34.4419333,22.591912" id="Fill-33" fill="#F1FF91"></path>
        <path d="M5.99748933,26.1474707 C5.99748933,26.8008173 5.46776933,27.3305373 4.81442267,27.3305373 C4.16082267,27.3305373 3.63110267,26.8008173 3.63110267,26.1474707 C3.63110267,25.494124 4.16082267,24.964404 4.81442267,24.964404 C5.46776933,24.964404 5.99748933,25.494124 5.99748933,26.1474707" id="Fill-35" fill="#F1FF91"></path>
        <path d="M20.2196987,26.1474707 C20.2196987,26.8008173 19.6899787,27.3305373 19.036632,27.3305373 C18.383032,27.3305373 17.853312,26.8008173 17.853312,26.1474707 C17.853312,25.494124 18.383032,24.964404 19.036632,24.964404 C19.6899787,24.964404 20.2196987,25.494124 20.2196987,26.1474707" id="Fill-37" fill="#F1FF91"></path>
        <path d="M34.4419333,26.1474707 C34.4419333,26.8008173 33.9122133,27.3305373 33.2588667,27.3305373 C32.6052667,27.3305373 32.0755467,26.8008173 32.0755467,26.1474707 C32.0755467,25.494124 32.6052667,24.964404 33.2588667,24.964404 C33.9122133,24.964404 34.4419333,25.494124 34.4419333,26.1474707" id="Fill-39" fill="#F1FF91"></path>
        <path d="M13.1085813,33.258588 C13.1085813,33.9119347 12.5788613,34.4416547 11.9255147,34.4416547 C11.2719147,34.4416547 10.7421947,33.9119347 10.7421947,33.258588 C10.7421947,32.6052413 11.2719147,32.0755213 11.9255147,32.0755213 C12.5788613,32.0755213 13.1085813,32.6052413 13.1085813,33.258588" id="Fill-41" fill="#F1FF91"></path>
        <path d="M16.66414,33.258588 C16.66414,33.9119347 16.13442,34.4416547 15.4810733,34.4416547 C14.8274733,34.4416547 14.2977533,33.9119347 14.2977533,33.258588 C14.2977533,32.6052413 14.8274733,32.0755213 15.4810733,32.0755213 C16.13442,32.0755213 16.66414,32.6052413 16.66414,33.258588" id="Fill-43" fill="#F1FF91"></path>
        <path d="M20.2196987,33.258588 C20.2196987,33.9119347 19.6899787,34.4416547 19.036632,34.4416547 C18.383032,34.4416547 17.853312,33.9119347 17.853312,33.258588 C17.853312,32.6052413 18.383032,32.0755213 19.036632,32.0755213 C19.6899787,32.0755213 20.2196987,32.6052413 20.2196987,33.258588" id="Fill-45" fill="#F1FF91"></path>
        <path d="M23.7752573,33.258588 C23.7752573,33.9119347 23.2455373,34.4416547 22.5921907,34.4416547 C21.9385907,34.4416547 21.4088707,33.9119347 21.4088707,33.258588 C21.4088707,32.6052413 21.9385907,32.0755213 22.5921907,32.0755213 C23.2455373,32.0755213 23.7752573,32.6052413 23.7752573,33.258588" id="Fill-47" fill="#F1FF91"></path>
        <path d="M27.330816,33.258588 C27.330816,33.9119347 26.801096,34.4416547 26.1477493,34.4416547 C25.4941493,34.4416547 24.9644293,33.9119347 24.9644293,33.258588 C24.9644293,32.6052413 25.4941493,32.0755213 26.1477493,32.0755213 C26.801096,32.0755213 27.330816,32.6052413 27.330816,33.258588" id="Fill-49" fill="#F1FF91"></path>
        <path d="M9.55233867,8.36937333 C9.55233867,9.02272 9.022872,9.55218667 8.36952533,9.55218667 C7.71617867,9.55218667 7.186712,9.02272 7.186712,8.36937333 C7.186712,7.71602667 7.71617867,7.18656 8.36952533,7.18656 C9.022872,7.18656 9.55233867,7.71602667 9.55233867,8.36937333" id="Fill-51" fill="#F1FF91"></path>
        <path d="M30.8863747,8.369196 C30.8863747,9.02254267 30.356908,9.55200933 29.7035613,9.55200933 C29.0502147,9.55200933 28.520748,9.02254267 28.520748,8.369196 C28.520748,7.71584933 29.0502147,7.18638267 29.7035613,7.18638267 C30.356908,7.18638267 30.8863747,7.71584933 30.8863747,8.369196" id="Fill-53" fill="#F1FF91"></path>
        <path d="M20.219724,22.5930013 C20.219724,23.2460947 19.6902573,23.7755613 19.037164,23.7755613 C18.3840707,23.7755613 17.8548573,23.2460947 17.8548573,22.5930013 C17.8548573,21.939908 18.3840707,21.4104413 19.037164,21.4104413 C19.6902573,21.4104413 20.219724,21.939908 20.219724,22.5930013" id="Fill-55" fill="#F1FF91"></path>
        <path d="M9.552288,29.703308 C9.552288,30.3566547 9.02282133,30.8861213 8.36947467,30.8861213 C7.716128,30.8861213 7.18666133,30.3566547 7.18666133,29.703308 C7.18666133,29.0499613 7.716128,28.5204947 8.36947467,28.5204947 C9.02282133,28.5204947 9.552288,29.0499613 9.552288,29.703308" id="Fill-57" fill="#F1FF91"></path>
        <path d="M30.8863493,29.7034093 C30.8863493,30.356756 30.3566293,30.8862227 29.703536,30.8862227 C29.0501893,30.8862227 28.5204693,30.356756 28.5204693,29.7034093 C28.5204693,29.0500627 29.0501893,28.520596 29.703536,28.520596 C30.3566293,28.520596 30.8863493,29.0500627 30.8863493,29.7034093" id="Fill-59" fill="#F1FF91"></path>
        <path d="M16.6634307,15.4808707 C16.6634307,16.133964 16.133964,16.6634307 15.4808707,16.6634307 C14.827524,16.6634307 14.2980573,16.133964 14.2980573,15.4808707 C14.2980573,14.8277773 14.827524,14.2983107 15.4808707,14.2983107 C16.133964,14.2983107 16.6634307,14.8277773 16.6634307,15.4808707" id="Fill-61" fill="#F1FF91"></path>
        <path d="M20.2191413,19.032832 C20.2191413,19.6854187 19.689928,20.214632 19.0373413,20.214632 C18.3847547,20.214632 17.8555413,19.6854187 17.8555413,19.032832 C17.8555413,18.3802453 18.3847547,17.851032 19.0373413,17.851032 C19.689928,17.851032 20.2191413,18.3802453 20.2191413,19.032832" id="Fill-63" fill="#F1FF91"></path>
    </g>
</svg>