<?xml version="1.0" encoding="UTF-8"?>
<svg width="152px" height="91px" viewBox="0 0 152 91" version="1.1" xmlns="http://www.w3.org/2000/svg" xmlns:xlink="http://www.w3.org/1999/xlink">
    <title>beyond_logo</title>
    <defs>
        <path d="M0,0 L152,0 L152,91 L0,91 L0,0 Z" id="path-1"></path>
        <polygon id="path-2" points="0 0 11.8753103 0 11.8753103 18.8056127 0 18.8056127"></polygon>
        <polygon id="path-4" points="0 0 8.45096543 0 8.45096543 26.3493154 0 26.3493154"></polygon>
    </defs>
    <g id="beyond_logo" stroke="none" fill="none" xlink:href="#path-1" fill-rule="evenodd">
        <use fill="#FFFFFF" xlink:href="#path-1"></use>
        <g id="Grupo" stroke-width="1" transform="translate(35.6233, 30.4192)">
            <g transform="translate(69.712, 9.0755)">
                <mask id="mask-3" fill="white">
                    <use xlink:href="#path-2"></use>
                </mask>
                <g id="Clip-2"></g>
                <path d="M6.13609966,5.82296606 C5.77895941,5.90298184 5.67752313,6.35761691 5.59872887,6.66464713 C4.92822296,9.27304011 4.83373023,12.2812089 4.21092352,14.9293066 C4.21001784,15.4209187 4.00654148,16.2635091 4.78452156,16.0128536 C5.13743529,15.8988917 5.21170115,15.4600173 5.29683517,15.1472284 C5.89367902,12.9552811 6.36131237,9.51793687 6.65082843,7.21202777 C6.71392421,6.71041373 6.9880437,5.63232242 6.13609966,5.82296606 L6.13609966,5.82296606 Z M11.8754009,0 L8.83472748,18.5139527 L4.78059694,18.5139527 L4.92490213,17.5701303 C3.87672719,18.3984754 2.69058683,19.1689303 1.30670609,18.6218527 C-0.364879341,17.9608133 -0.0264564999,16.2144085 0.159510021,14.7868543 C0.49280067,12.2327145 0.97703817,9.34941881 1.48512527,6.82286014 C1.76558452,5.42773664 1.97872148,4.25720286 3.31128028,3.49947773 C4.67463225,2.72387029 6.20251628,2.97573812 7.16887802,4.21083008 L7.82127032,0 L11.8754009,0 Z" id="Fill-1" fill="#122130" mask="url(#mask-3)"></path>
            </g>
            <path d="M68.266891,27.5894387 L64.2127605,27.5894387 L66.1663146,15.645266 C66.1805037,15.2939846 66.2324294,14.8669307 65.7690225,14.8808729 C65.0967053,14.9005737 65.1151208,15.68588 64.9596455,16.177189 L63.0546963,27.5894387 L59.0005657,27.5894387 L61.4619051,12.4152353 L65.6606427,12.4152353 C65.6035848,12.7692445 65.4142974,13.1426514 65.4795065,13.5039348 C66.3332619,12.4776718 67.5532143,11.8511847 68.9050943,12.2470203 C70.2370493,12.6367941 70.4024871,13.928867 70.2968243,15.1409241 C69.7063202,19.3029567 68.95702,23.443773 68.266891,27.5894387" id="Fill-3" fill="#122130"></path>
            <path d="M55.289477,14.8963304 C54.9326386,14.9690721 54.8324099,15.4391647 54.7505967,15.7401332 C54.1803195,17.8375163 53.7054407,21.2881965 53.4382648,23.4992385 C53.3929807,23.8735547 53.1520696,25.0480286 53.6112499,25.1213764 C54.1766968,25.2116972 54.2769255,24.7303902 54.3907394,24.3093982 C55.1016991,21.6788796 55.1647949,18.6049403 55.8060171,15.9271397 C55.8153758,15.4634119 55.9847382,14.7547874 55.289477,14.8963304 M55.366158,12.1460913 C58.6106096,11.949689 60.0569823,13.7264029 59.7152387,16.8709621 C59.5319892,18.5576583 59.1609618,20.5538093 58.8328034,22.2302004 C58.1538444,25.6999753 56.7892849,28.0977207 52.8115335,27.8791928 C49.552289,27.7000666 49.1423174,25.8760706 49.4538717,22.9882286 C49.6549329,21.124831 50.07215,18.6798036 50.5074807,16.8573231 C51.1381367,14.2171056 52.4441288,12.3230959 55.366158,12.1460913" id="Fill-5" fill="#122130"></path>
            <path d="M26.478976,14.97377 C26.4204086,14.9152736 26.254367,14.8792059 26.1698368,14.8809587 C25.7012978,14.8919356 25.6031823,15.3741519 25.5035574,15.7399816 C24.7983337,18.3347355 24.7204451,21.4189799 24.1079028,24.0691993 C24.0909968,24.5477785 23.985334,25.3200519 24.706558,25.1072827 C25.089963,24.993927 25.2279284,24.0976898 25.3040057,23.7439837 C25.7879413,21.500208 26.3162553,18.4896146 26.5592797,16.2179546 C26.5915823,15.91638 26.6915091,15.1868423 26.478976,14.97377 L26.478976,14.97377 Z M26.5683365,9.07533447 L25.9174537,13.2864676 C27.6563614,11.4424678 31.3295021,11.7128241 30.8301699,14.9107272 C30.0899265,18.1762194 30.0011698,22.0142488 29.0656012,25.1933603 C28.3214332,27.7226468 25.3764602,29.0638203 23.7091012,26.5733293 L23.2019198,27.5892872 L19.4738345,27.5892872 L22.514206,9.07533447 L26.5683365,9.07533447 Z" id="Fill-7" fill="#122130"></path>
            <path d="M35.3279031,17.7878702 L36.3775875,17.7878702 L36.472684,17.6654218 C36.4557779,17.1056144 36.9756389,15.4252832 36.7090667,15.0045942 C36.5816676,14.8039486 36.1161475,14.8942694 35.9582571,15.0245982 C35.6337214,15.2922267 35.5135677,17.2977735 35.3279031,17.7878702 L35.3279031,17.7878702 Z M39.9610657,21.200361 C39.6673231,23.1519579 39.4381858,24.9877743 38.0084172,26.4662476 C35.8139519,28.7357859 30.6056817,28.4693697 30.3300528,24.6516475 C30.204465,22.9131229 31.0313519,18.6565262 31.4413235,16.8304087 C32.1580192,13.6376581 34.2190475,11.6627233 37.6606357,12.2173781 C41.8309953,12.8896318 40.5980614,17.3753646 40.0984273,20.3213999 L34.8931761,20.3286741 L34.2447084,24.6398269 C34.2776149,25.1702345 34.7675883,25.2757099 35.1479744,24.9768631 C35.7581016,24.4979808 35.8691985,21.9974879 36.0518442,21.200361 L39.9610657,21.200361 Z" id="Fill-9" fill="#122130"></path>
            <path d="M45.3181695,12.4151747 L44.9924262,21.9997914 L47.236704,12.4151747 L50.8923348,12.4151747 C49.8284614,16.1813716 48.9052705,19.9930321 47.8314346,23.7571075 C47.1322487,26.2075905 46.600312,29.6949447 43.3274824,29.6949447 L39.7440041,29.6949447 L40.1132201,27.2341565 C40.673233,27.1926332 41.6139337,27.3626667 41.6918223,26.6025169 L41.6260095,12.4151747 L45.3181695,12.4151747 Z" id="Fill-11" fill="#122130"></path>
            <g>
                <mask id="mask-5" fill="white">
                    <use xlink:href="#path-4"></use>
                </mask>
                <g id="Clip-14"></g>
                <path d="M3.47479652,-0.00012123602 C6.64739745,0.608786677 8.88593926,3.68909087 8.37936163,6.91518137 L5.06185172,26.3493154 C2.81244174,26.0777468 0.880925826,24.3070947 0.253590711,22.143941 C0.149135489,21.78387 0.104455221,21.4128878 0,21.0549384 L0,19.7483172 L3.32988755,-0.00012123602 L3.47479652,-0.00012123602 Z" id="Fill-13" fill="#122130" mask="url(#mask-5)"></path>
            </g>
            <path d="M8.10814032,27.8794959 L11.3987817,8.43808764 C14.5855716,9.02608234 16.6828272,11.8187541 16.4319535,15.0639392 C16.2164014,17.8544893 15.2738893,20.9726798 14.9152395,23.7802029 C13.9546138,26.5886354 11.0730384,28.4020231 8.10814032,27.8794959" id="Fill-15" fill="#122130"></path>
        </g>
    </g>
</svg>