<?xml version="1.0" encoding="UTF-8"?>
<svg width="59px" height="14px" viewBox="0 0 59 14" version="1.1" xmlns="http://www.w3.org/2000/svg" xmlns:xlink="http://www.w3.org/1999/xlink">
    <title>Grupo</title>
    <g id="Página-1" stroke="none" stroke-width="1" fill="none" fill-rule="evenodd">
        <g id="Tratramientos_landing" transform="translate(-879, -1482.8889)" fill="#FFFFFF">
            <g id="Captura-de-pantalla-2025-12-03-a-la(s)-3.40.28-p.m." transform="translate(90, 1281)">
                <g id="Grupo" transform="translate(789, 202)">
                    <path d="M44.989776,8.75074811 C45.6715463,8.86026494 45.908223,9.23827465 45.908223,9.61981716 C45.908223,10.2345245 45.4772594,10.6690591 43.8947045,10.6690591 C43.103427,10.6690591 42.5452938,10.5772062 42.1673175,10.3970334 C41.8070037,10.1991965 41.6445092,9.90950684 41.6268467,9.47497232 L35.5121088,9.47497232 C35.5297713,13.2727334 39.7934851,13.8167848 43.6968851,13.8167848 C49.3983219,13.8167848 51.9523112,12.3330083 51.9523112,9.18528263 C51.9523112,6.994946 50.3697563,5.80439206 47.8157669,5.42284955 L41.7540163,4.5184525 C41.2488705,4.44426367 41.0899085,4.21109881 41.0899085,3.8507531 C41.0899085,3.30670175 41.6127168,2.92869204 43.1210895,2.92869204 C43.6792227,2.92869204 44.2550183,2.99934806 44.7036444,3.20071772 C45.1699329,3.38089057 45.4772594,3.70590826 45.4772594,4.23229561 L51.3765155,4.23229561 C51.1963586,1.50144043 48.8401887,0 43.1210895,0 C38.9492203,0 35.6922657,0.904397059 35.6922657,4.24995962 C35.6922657,6.05875374 36.7166875,7.50720215 39.200027,7.88521186 L44.9933085,8.75428091 L44.989776,8.75074811 Z M5.08325123,0.24376327 L0,0.24376327 L0,13.5553575 L14.7552053,13.5553575 L14.7552053,10.1108765 L5.08325123,10.1108765 L5.08325123,8.62003447 L14.06637,8.62003447 L14.06637,5.17555348 L5.08325123,5.17555348 L5.08325123,3.68824426 L14.7552053,3.68824426 L14.7552053,0.24376327 L5.08325123,0.24376327 Z M15.7372371,13.5518247 L20.4849019,13.5518247 L20.4849019,4.04505716 L20.5202268,4.04505716 L23.3038279,13.5518247 L27.2708127,13.5518247 L30.0508813,4.04505716 L30.0862062,4.04505716 L30.0862062,13.5518247 L34.833871,13.5518247 L34.833871,0.24376327 L27.4721646,0.24376327 L25.3032165,7.98059749 L25.2678916,7.98059749 L23.0989436,0.24376327 L15.7372371,0.24376327 L15.7372371,13.5518247 Z M52.2278453,6.92782279 L58.9148464,6.92782279 L58.9148464,0.240230469 L52.2278453,0.240230469 L52.2278453,6.92782279 Z M57.6608129,4.21109881 L56.1983626,4.21109881 L56.1983626,5.67367843 L54.9443291,5.67367843 L54.9443291,4.21109881 L53.4818788,4.21109881 L53.4818788,2.95695445 L54.9443291,2.95695445 L54.9443291,1.49437483 L56.1983626,1.49437483 L56.1983626,2.95695445 L57.6608129,2.95695445 L57.6608129,4.21109881 Z" id="Forma-combinada"></path>
                </g>
            </g>
        </g>
    </g>
</svg>