<?xml version="1.0" encoding="UTF-8"?>
<svg width="152px" height="91px" viewBox="0 0 152 91" version="1.1" xmlns="http://www.w3.org/2000/svg" xmlns:xlink="http://www.w3.org/1999/xlink">
    <title>ems_logo</title>
    <g id="ems_logo" stroke="none" fill="none" fill-rule="evenodd" stroke-width="1">
        <g id="Grupo" transform="translate(26.7144, 36.9376)" fill="#122130">
            <path d="M72.7791632,14.2199657 C73.882051,14.3979305 74.2649188,15.0121963 74.2649188,15.6322029 C74.2649188,16.6311024 73.5677565,17.337221 71.0076855,17.337221 C69.7276499,17.337221 68.8247677,17.1879601 68.2133222,16.8951792 C67.6304489,16.5736944 67.3675844,16.1029486 67.3390122,15.39683 L57.447309,15.39683 C57.4758813,21.5681918 64.3732156,22.4522752 70.6876766,22.4522752 C79.9107898,22.4522752 84.042333,20.0411385 84.042333,14.9260843 C84.042333,11.3667873 81.482262,9.4321371 77.3507187,8.81213053 L67.5447322,7.3424853 C66.7275667,7.22192847 66.4704167,6.84303556 66.4704167,6.25747379 C66.4704167,5.37339034 67.3161544,4.75912456 69.7562222,4.75912456 C70.6591044,4.75912456 71.5905588,4.8739406 72.3162932,5.20116629 C73.0705999,5.49394717 73.5677565,6.02210093 73.5677565,6.87748037 L83.1108786,6.87748037 C82.8194419,2.4398407 79.0079076,0 69.7562222,0 C63.0074634,0 57.7387457,1.46964522 57.7387457,6.90618438 C57.7387457,9.84547482 59.3959346,12.1992035 63.4131889,12.8134693 L72.7848777,14.2257065 L72.7791632,14.2199657 Z M8.22308542,0.396115314 L0,0.396115314 L0,22.0274559 L23.869234,22.0274559 L23.869234,16.4301743 L8.22308542,16.4301743 L8.22308542,14.007556 L22.7549174,14.007556 L22.7549174,8.41027441 L8.22308542,8.41027441 L8.22308542,5.99339692 L23.869234,5.99339692 L23.869234,0.396115314 L8.22308542,0.396115314 Z M25.4578496,22.0217151 L33.1380628,22.0217151 L33.1380628,6.57321788 L33.1952072,6.57321788 L37.6981894,22.0217151 L44.1155104,22.0217151 L48.6127781,6.57321788 L48.6699225,6.57321788 L48.6699225,22.0217151 L56.3501357,22.0217151 L56.3501357,0.396115314 L44.4412337,0.396115314 L40.9325649,12.9684709 L40.8754204,12.9684709 L37.3667516,0.396115314 L25.4578496,0.396115314 L25.4578496,22.0217151 Z M84.4880597,11.257712 L95.3055028,11.257712 L95.3055028,0.390374512 L84.4880597,0.390374512 L84.4880597,11.257712 Z M93.2768751,6.84303556 L90.9110951,6.84303556 L90.9110951,9.21972744 L88.8824674,9.21972744 L88.8824674,6.84303556 L86.5166874,6.84303556 L86.5166874,4.80505098 L88.8824674,4.80505098 L88.8824674,2.4283591 L90.9110951,2.4283591 L90.9110951,4.80505098 L93.2768751,4.80505098 L93.2768751,6.84303556 Z" id="Forma-combinada"></path>
        </g>
    </g>
</svg>