<?xml version="1.0" encoding="UTF-8"?>
<svg width="152px" height="91px" viewBox="0 0 152 91" version="1.1" xmlns="http://www.w3.org/2000/svg" xmlns:xlink="http://www.w3.org/1999/xlink">
    <title>gbt_logo</title>
    <defs>
        <polygon id="path-1" points="0 0 5.62477335 0 5.62477335 8.52831098 0 8.52831098"></polygon>
    </defs>
    <g id="gbt_logo" stroke="none" fill="none" fill-rule="evenodd" stroke-width="1">
        <g id="Grupo" transform="translate(51.7524, 20.1765)">
            <path d="M37.2575587,5.59460703 L33.9189056,10.0001987 C34.4118716,10.3805508 34.9331077,10.8938355 35.4557998,11.2187273 C35.8594666,11.469713 36.102977,11.5639095 36.5016693,11.1932721 C36.8845885,10.8371455 38.6711811,8.39664496 38.966985,7.88397507 C39.1806481,7.51395259 39.2858417,7.22939559 38.9793607,6.8519948 C38.8846015,6.73517149 37.6396286,5.77340818 37.4704938,5.6744158 C37.4064313,5.63678639 37.3337543,5.57923554 37.2575587,5.59460703 M31.9488612,10.3559564 L37.0118643,3.51687364 C37.8572957,4.30659925 38.9114156,4.88358345 39.757211,5.66580776 C40.4348422,6.29271856 40.765104,7.05539034 40.4831317,7.98850119 C40.2973746,8.60262291 38.1278628,11.4794278 37.5983762,12.0661267 C35.5822263,14.3002804 33.7030585,11.2954618 31.9488612,10.3559564" id="Fill-1" fill="#122130"></path>
            <path d="M27.0849979,45.0424339 C27.1825477,45.1371223 29.1328152,44.6808965 29.3228189,44.4931184 C29.6773468,44.1428944 29.3834841,42.9860976 28.9443888,42.7977046 C28.5136653,42.6128779 27.2189469,43.1914607 26.6888536,43.2170389 L27.0849979,45.0424339 Z M31.9487763,48.7049063 L30.5321206,48.9845444 C30.238258,48.6739173 28.4857593,46.1542229 28.3075247,46.1593877 C28.1876501,46.1629539 27.4239955,46.3604468 27.402884,46.4440677 L28.1002921,49.577146 L26.847918,49.8182939 L25.1975797,42.1818613 C26.9344267,42.0415504 29.7363134,40.340111 30.5592986,42.8342273 C30.82113,43.6276421 30.9133412,44.4825428 30.4130953,45.1999609 C30.2751425,45.3978227 29.6565992,45.8308068 29.6777108,45.9504585 L31.9487763,48.7049063 Z" id="Fill-3" fill="#122130"></path>
            <path d="M24.4801278,42.2728113 L24.4124253,43.5340113 L21.1942535,43.215637 L21.0372517,45.2055684 L24.104003,45.4785661 C24.3301632,45.6392903 24.0308407,46.5225976 24.0985432,46.7960871 L20.88025,46.4775899 L20.7232482,48.4673983 L23.9416627,48.7062098 L23.7810211,49.9744191 L19.3101111,49.5799252 L20.017711,41.7842439 L24.4801278,42.2728113 Z" id="Fill-5" fill="#122130"></path>
            <path d="M16.9456696,44.001366 C17.0784053,43.9174992 17.9328151,41.4121924 18.1342238,41.0679941 L19.3083397,41.5900098 L16.405506,48.7854652 C16.1760699,48.694097 15.2307834,48.4049901 15.2275075,48.1924946 L16.4064766,45.2058758 L14.0899121,44.2528435 L12.7983483,47.2389704 L11.6178019,46.7949189 L14.5975592,39.5903636 L15.775679,40.0727824 L14.5246396,43.0178367 C14.8358524,43.182742 16.7800534,44.1058921 16.9456696,44.001366" id="Fill-7" fill="#122130"></path>
            <path d="M13.7372163,39.0807557 L12.9837535,40.1074482 C12.7730023,40.1598342 11.810123,39.1310512 11.5354306,39.0364858 C11.4808318,39.0176711 11.4411567,38.9774593 11.3818261,39.0325507 L7.5356472,44.0566911 C7.33969834,44.157651 6.67747612,43.4101048 6.51877575,43.255775 L10.4390876,38.1640001 L8.95509347,36.96072 C8.94126179,36.8814031 9.56769149,36.0550319 9.65589881,36.010639 C9.88339362,35.8959062 13.1812797,38.8345659 13.7372163,39.0807557" id="Fill-9" fill="#122130"></path>
            <path d="M35.4809759,44.0105889 C35.5541382,43.909383 35.1764362,43.5773588 35.0898062,43.493492 C34.5244057,42.946513 33.8040662,42.2222084 33.2052998,41.7436017 C33.126435,41.6805171 33.1045955,41.5897639 32.9691906,41.6256717 L33.8323362,44.9277134 L35.4809759,44.0105889 Z M38.6993904,45.1244684 C38.4199662,45.1279117 37.7456109,45.7551914 37.5600964,45.7396969 C37.3680302,45.7235876 36.8136708,44.7591189 36.3680237,44.9476348 C35.6390696,45.2560484 34.8445971,46.0225323 34.074876,46.3272567 C34.103146,46.5506967 34.4076857,47.5479988 34.3470204,47.6710937 C34.2618464,47.8439922 33.4047673,48.2218849 33.2055425,48.3875281 L31.4834978,40.280236 C31.779787,40.2486322 32.5091051,39.5599895 32.731504,39.6715251 L38.6993904,45.1244684 Z" id="Fill-11" fill="#122130"></path>
            <path d="M37.9716376,36.7076315 C37.4518575,36.7780944 36.680923,37.9773165 36.2675498,38.3231135 L37.6397985,39.6344859 C37.9473715,39.2210544 39.093096,38.3791887 39.1552172,37.9073454 C39.209452,37.4956355 38.3699658,36.6536468 37.9716376,36.7076315 M37.6588474,35.4384384 C38.6374997,35.2793128 39.4186259,35.7707085 39.9880302,36.5398978 C41.2804434,38.2863449 39.6475767,39.410677 38.5452885,40.5561604 L40.974569,43.0171972 L40.0732043,43.9307555 L34.4663976,38.312169 C34.4479553,38.215882 34.5307028,38.1814498 34.5758378,38.1220544 C34.8746749,37.7274375 36.8289463,35.7718153 37.1900261,35.5997776 C37.30893,35.5432105 37.5339982,35.4587288 37.6588474,35.4384384" id="Fill-13" fill="#122130"></path>
            <path d="M37.9930646,34.8622781 C38.1453344,34.6229748 38.5363828,33.672279 38.7541712,33.6043985 L41.8394861,33.6680979 L40.2256683,30.9704631 L40.5986384,30.2236547 L40.9359374,29.7698884 L43.27604,33.803613 L46.3922942,35.5794503 C46.2652611,35.8352319 45.9525922,36.7227202 45.6654028,36.6807867 L42.5851838,34.8622781 L37.9930646,34.8622781 Z" id="Fill-15" fill="#122130"></path>
            <path d="M15.528286,22.3935537 C15.2057893,22.409663 14.170597,22.6005154 13.8937206,22.7287751 C13.4580226,22.930572 13.4825313,23.2434125 13.512136,23.6739372 C13.614903,25.1643567 14.2102721,26.8634596 14.3669098,28.376506 C14.4693128,28.6509793 14.7432772,28.8808138 15.0339853,28.9003663 C15.250075,28.915 16.476727,28.6900843 16.7223001,28.6188836 C16.9948085,28.5400586 17.2449921,28.2778825 17.2753248,27.9816432 L16.3857291,22.829735 C16.1515611,22.4374546 15.9592521,22.3720336 15.528286,22.3935537 M12.7396243,21.6781031 C13.205291,21.2358961 15.1714528,20.8190213 15.8198433,20.855421 C17.1985225,20.9327703 17.6947645,21.9686857 17.9551399,23.1484782 C18.2261924,24.3769676 18.6691703,26.4527334 18.7641721,27.658473 C18.9234791,29.6827136 16.9603506,30.2772828 15.336705,30.3963196 C13.2819719,30.5468372 12.9753696,28.9135243 12.6594248,27.3225137 C12.4765796,26.4017001 11.8772066,23.5995392 12.0486467,22.8478119 C12.1168345,22.5487442 12.517468,21.8891229 12.7396243,21.6781031" id="Fill-17" fill="#122130"></path>
            <path d="M24.5694028,19.2682349 C24.5493833,19.5380352 24.9177429,20.6174827 24.7291952,20.7421762 L21.2045423,21.426023 C21.1312586,21.5106276 21.4829959,23.553314 21.5475438,23.64542 C21.5872189,23.70211 21.626166,23.7307625 21.697023,23.7204329 L25.1612533,23.0196159 C25.2967795,23.0336347 25.4114369,24.2924982 25.511292,24.5192584 L21.8223575,25.1564988 L22.5170963,28.8580763 C22.4986541,29.0351558 21.3287848,29.0670055 21.1169416,29.2140799 L19.5051864,20.2983706 L24.5694028,19.2682349 Z" id="Fill-19" fill="#122130"></path>
            <path d="M44.3445255,15.6162397 L45.910903,24.5090763 C45.6769777,24.5437544 44.6593783,24.8613908 44.5436289,24.6824667 L43.4080962,18.3933143 L43.1785387,18.3966346 L41.7600631,21.9733955 C41.3545764,21.5838205 40.9242169,21.1893266 40.5408123,20.7820437 C40.4107459,20.6439462 39.107777,19.0048536 38.9354876,19.1893115 L40.1125154,25.6325477 L38.6956171,25.8397553 L37.0841045,16.9586011 C37.4068438,16.9203568 38.3897427,16.5771422 38.6179655,16.6814224 L41.0872851,19.2718256 C41.4232495,19.4908386 41.3361341,19.2815404 41.4313786,19.0566248 C41.882607,17.9916881 42.3191544,16.9178974 42.801686,15.8679632 L44.3445255,15.6162397 Z" id="Fill-21" fill="#122130"></path>
            <path d="M31.7911921,17.915716 L33.1292256,25.3911784 L36.7657452,24.7517245 C36.907338,24.7795161 37.0207821,25.9760328 37.0490521,26.1876675 L31.9866557,27.0681463 L30.3998945,18.2722116 C30.4925911,18.0659877 31.5393099,18.0167989 31.7911921,17.915716" id="Fill-23" fill="#122130"></path>
            <polygon id="Fill-25" fill="#122130" points="28.1872861 18.5918402 29.7986773 27.5924002 28.3385853 27.8609708 26.7273154 18.8604108"></polygon>
            <path d="M5.31524935,28.6790292 C4.80287038,28.0772046 3.13930701,28.9050515 2.4330418,28.815405 L2.74753062,31.043656 C3.29958469,30.9777431 5.01908144,30.83362 5.37870523,30.487823 C5.7013232,30.1776878 5.57089285,28.9794495 5.31524935,28.6790292 L5.31524935,28.6790292 Z M2.12510483,27.2981776 C2.83355399,27.1365925 4.90660801,27.1967258 4.95028701,26.2290598 C4.95865882,26.044356 4.73856518,25.0950129 4.63349291,24.9550708 C4.52745,24.8137761 4.22703552,24.6547734 4.04491834,24.6708827 L1.72677659,25.076813 L2.12510483,27.2981776 Z M5.54978133,23.7485934 C6.1102072,24.2565904 6.43852771,25.5597237 6.40783108,26.2969403 C6.39399939,26.6304401 6.07502134,27.2857574 6.11748704,27.4886611 C6.13301735,27.5621983 6.29414434,27.5783076 6.35772156,27.659592 C6.68786202,28.0821235 6.8437718,28.439111 6.95127067,28.9708415 C7.71965714,32.7720262 4.07961889,32.1505262 1.64961035,32.8738469 L0,23.8836166 L3.88257805,23.163616 C4.40939536,23.0994247 5.16479945,23.3994762 5.54978133,23.7485934 L5.54978133,23.7485934 Z" id="Fill-27" fill="#122130"></path>
            <polygon id="Fill-29" fill="#122130" points="9.34019668 22.1285123 10.9508599 31.1162832 9.49040392 31.3850998 7.87974068 22.3973289"></polygon>
            <g transform="translate(19.5458, 0)">
                <mask id="mask-2" fill="white">
                    <use xlink:href="#path-1"></use>
                </mask>
                <g id="Clip-32"></g>
                <path d="M1.49224461,7.09544229 C2.10023206,6.85466329 3.46653555,7.21866015 3.93038229,6.90200748 C4.49978663,6.51329327 4.16782621,5.12014451 4.15751311,4.51340111 C4.1447734,3.76388732 4.26331336,2.65738607 4.1562998,1.96862041 C3.99226088,0.912906565 2.11369976,1.58347239 1.41289442,1.44660465 L1.49224461,7.09544229 Z M0.15700175,8.52831098 L0,0.0144737938 C1.05970115,0.0189007825 2.1218289,0.00832519828 3.18262203,0.0186548387 C3.7299442,0.0240656027 3.96120025,-0.102472492 4.5302406,0.237175922 C5.96861444,1.09551985 5.57926466,3.35500572 5.5699222,4.83140646 C5.56616096,5.42929589 5.65910017,6.30670046 5.56883023,6.89204675 C5.46327264,7.57749218 4.62851836,8.35528951 3.94409265,8.42759699 L0.15700175,8.52831098 Z" id="Fill-31" fill="#122130" mask="url(#mask-2)"></path>
            </g>
            <path d="M29.2010879,4.15086762 L32.4799251,5.38243129 L31.9814991,6.6116585 C30.9032344,6.28713563 29.8642808,5.77323602 28.7805562,5.510691 C28.6649281,5.54942715 28.1071715,7.2105317 28.1122674,7.48316043 L31.3209755,8.60823043 C31.2629795,8.81765159 30.9247099,9.92267717 30.8041073,9.9531742 L26.2967982,8.36806629 L29.0450568,0.333081714 L33.6652033,2.04116154 C33.5196067,2.23189097 33.3067929,3.2325134 33.1590122,3.2701428 L29.95722,2.16868341 C29.8020382,2.21602759 29.3538431,3.88438749 29.2010879,4.15086762" id="Fill-33" fill="#122130"></path>
            <path d="M6.12284985,10.7565374 C5.940854,10.9342318 5.53269799,11.8503725 5.40615021,11.9428474 C5.35446339,11.9805998 4.87144641,11.6828848 4.47445281,12.0681558 C4.38284823,12.1570645 3.63872788,13.2848399 3.5939569,13.4028929 C3.25787124,14.2887825 4.46268374,14.7735378 5.0778297,15.1961922 C5.57079578,15.5348569 6.96209336,16.5681898 7.40058202,16.7398586 C7.79939558,16.8960329 8.01512133,16.7767502 8.28314054,16.4854297 C8.62941797,16.1091357 9.37681425,15.0368206 9.09702597,14.5432114 C9.03951528,14.4420055 7.81577521,13.5777589 7.71337221,13.5516889 C7.3647895,13.4633951 7.08123997,14.4803728 6.79065327,14.6465078 L5.81321425,14.0111119 C5.73459204,13.8950265 7.11145129,11.9257543 7.26857437,11.6243502 C7.36309088,11.6102084 7.42642543,11.6671444 7.50237836,11.7046508 C7.93783376,11.9196057 9.96223422,13.328126 10.1917916,13.6728162 C10.8959942,14.7304976 10.5275133,15.5498595 9.95495438,16.5089174 C9.09059545,17.9565427 8.16605655,18.7600412 6.49278674,17.819675 C5.85228269,17.4596132 2.88259581,15.4985802 2.55645925,15.0466584 C2.30372769,14.6965574 2.09346182,14.0144322 2.11554398,13.5829238 C2.14187271,13.0677944 3.1485524,11.3932859 3.5296517,11.0310107 C4.22317721,10.3716353 5.31333233,10.3224465 6.12284985,10.7565374" id="Fill-35" fill="#122130"></path>
            <path d="M11.454042,3.36109283 L15.0568318,8.66241185 C15.997629,10.3899212 14.6405466,11.5934473 13.2599262,12.3800986 C12.3489763,12.8991631 11.2442615,12.759344 10.5572878,11.9498199 L6.82989158,6.57816095 C7.07716327,6.49970488 7.82407422,5.7558478 8.0074047,5.85619287 L11.6149264,11.0371224 C12.0866596,11.5031859 12.2925576,11.3106119 12.7738759,11.0122821 C13.2418479,10.7220684 14.1075415,10.2338699 13.9698313,9.60769692 C12.8363612,7.75155892 11.4794001,6.01199828 10.2916952,4.17836414 L10.2898753,4.0813393 C10.5132448,4.03928291 11.3159679,3.26566663 11.454042,3.36109283" id="Fill-37" fill="#122130"></path>
            <polygon id="Fill-39" fill="#122130" points="15.7490591 0.992678443 18.4914938 9.07931122 17.1398713 9.55017066 14.3975579 1.46353788"></polygon>
            <path d="M48.0483836,29.3415895 C48.0483836,28.1943846 47.1308819,27.264471 45.998989,27.264471 C44.8672175,27.264471 43.9495945,28.1943846 43.9495945,29.3415895 C43.9495945,30.4887945 44.8672175,31.418708 45.998989,31.418708 C47.1308819,31.418708 48.0483836,30.4887945 48.0483836,29.3415895 M48.3747628,29.3449098 C48.3747628,30.6743591 47.3114217,31.7520849 45.999717,31.7520849 C44.6880123,31.7520849 43.6246712,30.6743591 43.6246712,29.3449098 C43.6246712,28.0153375 44.6880123,26.9376117 45.999717,26.9376117 C47.3114217,26.9376117 48.3747628,28.0153375 48.3747628,29.3449098" id="Fill-41" fill="#122130"></path>
            <path d="M45.2929422,29.1343573 C47.0712843,29.3727998 47.0977344,28.0868825 45.2929422,28.3379912 L45.2929422,29.1343573 Z M46.3530074,28.0201088 C46.7902827,28.0679449 46.9520163,28.3379912 46.9480124,28.7761401 C46.9426739,29.3606256 46.6335236,29.1959662 46.3140602,29.5306957 C46.760678,29.6810904 46.8929284,30.229914 47.1773272,30.5652584 C46.5472576,30.7423379 46.5066118,30.0260266 46.1566945,29.673958 C45.8914659,29.407109 45.6480768,29.4350236 45.2933062,29.4522396 L45.2933062,30.5659962 L44.9009232,30.5652584 C45.0849816,29.9155978 44.7946376,28.7665483 44.9254319,28.1792344 C44.937201,28.1263565 44.9602538,28.0201088 45.0186138,28.0201088 C45.4351416,28.0201088 45.9549218,27.9765767 46.3530074,28.0201088 L46.3530074,28.0201088 Z" id="Fill-43" fill="#122130"></path>
        </g>
    </g>
</svg>