<?xml version="1.0" encoding="UTF-8"?>
<svg width="152px" height="91px" viewBox="0 0 152 91" version="1.1" xmlns="http://www.w3.org/2000/svg" xmlns:xlink="http://www.w3.org/1999/xlink">
    <title>philips_zoom_logo</title>
    <defs>
        <path d="M0,0 L152,0 L152,91 L0,91 L0,0 Z" id="path-1"></path>
        <polygon id="path-2" points="0 34.0405463 77.9772296 34.0405463 77.9772296 0 0 0"></polygon>
    </defs>
    <g id="philips_zoom_logo" stroke="none" fill="none" xlink:href="#path-1" fill-rule="evenodd">
        <use fill="#FFFFFF" xlink:href="#path-1"></use>
        <g id="Grupo" stroke-width="1" transform="translate(37.167, 28.592)">
            <path d="M18.6368964,5.68984665 L22.8636669,5.68984665 L22.8636669,0.432575609 C22.8636669,0.424295476 22.9729109,0.315733734 22.9812313,0.315733734 L26.9731813,0.315733734 C26.9815017,0.315733734 27.0905916,0.424295476 27.0905916,0.432575609 L27.0905916,13.8678579 L22.9812313,13.8678579 C22.9729109,13.8678579 22.8636669,13.7592962 22.8636669,13.7511694 L22.8636669,8.57163957 L18.6368964,8.57163957 L18.6368964,13.8678579 L14.4883994,13.8678579 L14.4883994,0.315733734 L18.5194861,0.315733734 C18.5278065,0.315733734 18.6368964,0.424295476 18.6368964,0.432575609 L18.6368964,5.68984665 Z" id="Fill-1" fill="#122130"></path>
            <path d="M58.3222843,8.18221265 L59.6137975,8.18221265 C59.7537037,8.18221265 60.45909,7.94116878 60.6222625,7.86143417 C62.3217842,7.03158085 62.4619986,3.80968914 60.7000738,2.97339572 C60.4902145,2.87388079 59.8139497,2.65231057 59.6137975,2.65231057 L58.3222843,2.65231057 L58.3222843,8.18221265 Z M58.3222843,10.6745327 L58.3222843,13.751062 C58.3222843,13.7593422 58.2131944,13.8679039 58.204874,13.8679039 L54.212924,13.8679039 C54.2046036,13.8679039 54.0955137,13.7593422 54.0955137,13.751062 L54.0955137,0.432468274 C54.0955137,0.376040702 54.226175,0.32835327 54.2918139,0.316393078 C55.2366432,0.145883675 56.3093603,0.246165284 57.2623559,0.0788759326 C61.8385839,-0.351077635 67.3134166,0.856901753 65.8917043,6.71816249 C65.0527292,10.176498 61.4256448,10.8473421 58.3222843,10.6745327 L58.3222843,10.6745327 Z" id="Fill-3" fill="#122130"></path>
            <path d="M5.09532938,8.18221265 L6.3868426,8.18221265 C8.94891394,8.18221265 9.70807472,3.83268951 7.31580147,2.89611448 C7.1686534,2.83861356 6.57620907,2.65231057 6.46511613,2.65231057 L5.09532938,2.65231057 L5.09532938,8.18221265 Z M5.09532938,10.6745327 L5.09532938,13.8679039 L0.946832351,13.8679039 L0.946832351,0.315626399 L4.11367455,0.0788759326 C8.75446277,-0.364264513 14.211422,0.95104993 12.6493412,6.85861808 C11.7692263,10.1870782 8.09776635,10.8525555 5.09532938,10.6745327 L5.09532938,10.6745327 Z" id="Fill-5" fill="#122130"></path>
            <path d="M76.7044373,0.48454111 L77.0292416,3.43104173 C76.4312504,3.19536462 75.8019805,3.01948846 75.165777,2.91046671 C74.1414415,2.73505056 71.2487107,2.31736386 71.4692017,4.01893117 C71.5405416,4.56879333 72.2787472,4.90352536 72.7274333,5.10316857 C74.8918196,6.06611736 77.7190656,6.33736838 77.959125,9.32143627 C78.3934814,14.7211563 70.8933982,14.6978492 67.3724761,13.4863431 L66.8546074,10.3635063 C68.5277811,10.9987765 70.4024937,11.5333051 72.2189635,11.3784359 C73.9249566,11.2329203 74.3523794,9.77991029 72.7779721,8.94729693 C70.5875459,7.78869167 67.4983609,7.76937136 67.2559903,4.47280512 C66.8968258,-0.414006644 73.4260399,-0.355892378 76.7044373,0.48454111" id="Fill-7" fill="#122130"></path>
            <path d="M41.4149093,0.393566983 L41.4149093,11.0251043 C41.4149093,11.0333844 41.5239992,11.1419462 41.5323196,11.1419462 L45.4068593,11.1419462 C45.1957673,12.0461673 45.0598672,13.0138695 44.7415343,13.8679499 L37.3446858,13.8679499 L37.3446858,0.393566983 L41.4149093,0.393566983 Z" id="Fill-9" fill="#122130"></path>
            <mask id="mask-3" fill="white">
                <use xlink:href="#path-2"></use>
            </mask>
            <g id="Clip-12"></g>
            <polygon id="Fill-11" fill="#122130" mask="url(#mask-3)" points="30.0650473 13.8679959 34.2918179 13.8679959 34.2918179 0.3157184 30.0650473 0.3157184"></polygon>
            <polygon id="Fill-13" fill="#122130" mask="url(#mask-3)" points="46.8941642 13.8679959 51.0426612 13.8679959 51.0426612 0.393612984 46.8941642 0.393612984"></polygon>
            <path d="M48.3031031,34.0405463 L47.8334619,34.0405463 C46.2943393,33.43671 47.4726025,31.2976756 48.6958575,32.2087969 C49.4599489,32.7778261 49.1490119,33.7643886 48.3031031,34.0405463" id="Fill-14" fill="#122130" mask="url(#mask-3)"></path>
            <path d="M36.5618581,24.7720416 L39.145809,31.236372 L41.8149672,24.7810884 L43.6736553,24.7829284 L44.4676386,33.8068932 L42.5890739,33.8068932 L42.0406969,26.6416649 C41.8434723,26.586464 41.8374631,26.815701 41.7718243,26.9561566 C40.7490296,29.1462518 39.9635208,31.5375235 38.9972742,33.7608925 L38.2831053,33.7687126 L35.2703448,26.4848024 L34.605328,33.8073532 L33.8218223,33.8073532 L34.5267463,24.7720416 L36.5618581,24.7720416 Z" id="Fill-15" fill="#122130" mask="url(#mask-3)"></path>
            <path d="M11.0442254,23.2143186 L11.0275846,23.6261785 C8.63669809,26.6522604 5.77617041,29.4205848 3.33227977,32.4031194 C3.25446849,32.4980342 3.17973884,32.6003092 3.13844493,32.7165377 L10.4180372,32.7165377 L10.4180372,33.6511194 L0.124914074,33.6511194 C-0.17662391,33.6511194 0.139243677,32.9393347 0.322909123,32.8356797 L7.9915578,24.1489002 L1.06419642,24.1489002 C0.878219748,24.1489002 0.962194302,23.3805346 0.946786127,23.2143186 L11.0442254,23.2143186 Z" id="Fill-16" fill="#122130" mask="url(#mask-3)"></path>
            <path d="M26.8352781,25.1799915 C24.0254433,25.6545657 23.9661219,32.6072707 26.7137076,33.2860882 C30.9675966,34.3372051 31.1826947,24.4458197 26.8352781,25.1799915 M31.9774484,29.2496768 C31.9774484,31.8189713 29.8840937,33.9018848 27.3018377,33.9018848 C24.7197357,33.9018848 22.6263811,31.8189713 22.6263811,29.2496768 C22.6263811,26.6802289 24.7197357,24.5973154 27.3018377,24.5973154 C29.8840937,24.5973154 31.9774484,26.6802289 31.9774484,29.2496768" id="Fill-17" fill="#122130" mask="url(#mask-3)"></path>
            <path d="M14.7509084,25.7343157 C12.8441468,27.5668318 13.2393665,34.0403623 16.8410274,33.3051172 C19.759952,32.7092543 19.8681174,24.4792622 15.7203908,25.1801601 C15.447512,25.2263142 14.951677,25.5414193 14.7509084,25.7343157 M15.4886519,24.6379648 C19.0351515,24.214758 21.5513065,27.0983909 20.711715,30.5361794 C19.8254368,34.1654843 14.9099208,35.0891792 12.6116374,32.2083063 C10.4990226,29.5601971 11.9694247,25.0581048 15.4886519,24.6379648" id="Fill-18" fill="#122130" mask="url(#mask-3)"></path>
            <polygon id="Fill-19" fill="#122130" mask="url(#mask-3)" points="49.1641273 23.2921978 48.5296187 30.7607244 47.5981945 30.7697712 47.050742 23.2921978"></polygon>
        </g>
    </g>
</svg>