<?xml version="1.0" encoding="UTF-8"?>
<svg width="152px" height="91px" viewBox="0 0 152 91" version="1.1" xmlns="http://www.w3.org/2000/svg" xmlns:xlink="http://www.w3.org/1999/xlink">
    <title>therabody_logo</title>
    <defs>
        <path d="M0,0 L152,0 L152,91 L0,91 L0,0 Z" id="path-1"></path>
    </defs>
    <g id="therabody_logo" stroke="none" fill="none" xlink:href="#path-1" fill-rule="evenodd">
        <use fill="#FFFFFF" xlink:href="#path-1"></use>
        <g id="Grupo" stroke-width="1" transform="translate(17.4734, 33.9376)" fill="#122130">
            <path d="M110.611915,7.28847728 L113.338166,13.8150877 L116.065158,7.28847728 L117.687856,7.28847728 L111.35355,22.4522752 L109.730852,22.4522752 L112.121142,16.7287137 L108.177868,7.28847728 L110.611915,7.28847728 Z M10.1203531,0 C15.7071283,0.00607940418 20.2345753,4.49541837 20.2407063,10.0351691 C20.2407063,15.57744 15.7096699,20.0703382 10.1203531,20.0703382 C4.53103644,20.0703382 0,15.57744 0,10.0351691 C0,4.49289825 4.53103644,0 10.1203531,0 Z M9.37278493,8.43789611 L3.58803082,15.6050336 C5.05435674,17.3006223 7.13088218,18.3565439 9.37278493,18.5495461 L9.37278493,8.43789611 Z M10.8694046,8.43789611 L10.8694046,18.5466045 C13.1113297,18.3536791 15.1878827,17.2977435 16.6541588,15.6050336 L10.8694046,8.43789611 Z M100.426298,8.67028021 L100.426298,13.6805108 C100.426298,14.9119461 101.433047,15.9102216 102.674936,15.9102216 L104.353256,15.9102216 C103.528375,17.1355491 101.991805,17.6810057 100.570079,17.2531854 C99.1483541,16.8253651 98.1766519,15.5251283 98.1776593,14.0518842 L98.1776593,11.8221734 C98.1780336,10.4052447 99.0789908,9.14238199 100.426298,8.67028021 Z M79.8288651,1.93628904 L79.8288651,13.6805108 C79.8322409,14.9125133 80.8387506,15.9105511 82.0804693,15.910957 L83.7558231,15.910957 C82.9309425,17.1362845 81.394372,17.6817411 79.9726466,17.2539208 C78.5509213,16.8261005 77.5792191,15.5258637 77.5802265,14.0526195 L77.5802265,1.93628904 L79.8288651,1.93628904 Z M90.1279523,8.67028021 L90.1279523,13.6805108 C90.1283616,14.9117779 91.1348713,15.9098157 92.37659,15.9102216 L94.0549104,15.9102216 C93.2300297,17.1355491 91.6934592,17.6810057 90.2717339,17.2531854 C88.8500085,16.8253651 87.8783063,15.5251283 87.8793137,14.0518842 L87.8793137,11.8221734 C87.879688,10.4052447 88.7806452,9.14238199 90.1279523,8.67028021 Z M56.0839327,6.99064292 C57.7399204,6.99064292 59.0823636,8.32178698 59.0823636,9.96383601 L59.0823636,12.1200075 L53.1248085,12.1200075 L53.1248085,12.5656555 C53.1248085,14.4132145 54.6352647,15.910957 56.4985068,15.910957 L58.1686691,15.910957 C57.0613955,17.24117 55.2313834,17.7393354 53.5943706,17.1561711 C51.9573578,16.5730069 50.8654534,15.0339472 50.8650462,13.3091375 L50.8650462,11.4508001 C50.8662143,10.0965389 51.7910552,8.91452818 53.113684,8.57688533 L53.1203587,10.930142 L56.8285344,10.930142 L56.8285344,10.3352093 C56.8285344,9.30887792 55.9894659,8.47687192 54.9544224,8.47687192 L53.4845015,8.47687192 C54.0194758,7.55685386 55.009215,6.99016056 56.0802245,6.99064292 Z M71.5848488,6.98990784 C72.5789396,6.98990784 73.5323151,7.38148495 74.2352434,8.07849669 C74.9381718,8.77550842 75.3330728,9.72085921 75.3330728,10.7065827 L75.3330728,17.0993516 L73.0844351,17.0993516 L73.0844351,12.6391947 L69.5987499,12.6391947 C69.2280134,13.3297147 69.2501616,14.1625479 69.6570843,14.8327337 C70.064007,15.5029194 70.7959322,15.9120153 71.5848488,15.9102216 L72.6795023,15.9102216 C71.9517404,17.1597199 70.4242788,17.7107125 69.0569627,17.2169596 C67.6896467,16.7232068 66.877233,15.3272595 67.1302364,13.9063206 C67.3832397,12.4853817 68.6286156,11.4496893 70.0837793,11.4500647 L73.0822102,11.4500647 L73.0822102,10.7065827 C73.0822102,9.47514742 72.0754608,8.47687192 70.8335724,8.47687192 L68.5849347,8.47687192 C69.2923262,7.54055918 70.4035222,6.98977399 71.5833655,6.99064323 Z M42.7285671,1.93628904 L42.7285671,17.100087 L40.4799293,17.100087 L40.4799293,1.93628904 L42.7285671,1.93628904 Z M39.7323611,2.23412309 L39.1116125,3.72035179 L35.2350856,3.72035179 L35.2350856,17.100087 L32.9864478,17.100087 L32.9864478,3.72035179 L28.4862058,3.72035179 L29.1069544,2.23412309 L39.7323611,2.23412309 Z M106.977161,1.93628904 L106.977161,17.100087 L104.728523,17.100087 L104.728523,10.7073181 C104.728523,9.47588281 103.721774,8.47760731 102.479886,8.47760731 L100.801565,8.47760731 C101.657581,7.20589218 103.274728,6.67228904 104.728523,7.18184534 L104.728523,1.93628904 L106.977161,1.93628904 Z M45.7996782,6.98696626 C47.5609314,6.98696626 48.9887093,8.40272637 48.9887093,10.149155 L48.9887093,17.0993516 L46.7400716,17.0993516 L46.7400716,10.7065827 C46.7400716,9.47514742 45.7333221,8.47687192 44.4914338,8.47687192 L43.1038345,8.47687192 C43.6845902,7.55256709 44.705123,6.99071637 45.8033864,6.99064323 Z M62.8268794,7.28774189 L62.8268794,17.0993516 L60.5782417,17.0993516 L60.5782417,7.28774189 L62.8268794,7.28774189 Z M93.3051172,6.99064307 C95.1676177,6.9935848 96.6780738,8.4913273 96.6780738,10.3388863 L96.6780738,12.5649201 C96.6777004,13.9818488 95.7767432,15.2447115 94.4294361,15.7168133 L94.4294361,10.7065827 C94.4290266,9.47502847 93.4220651,8.47687185 92.1800567,8.47687192 L90.502478,8.47687192 C91.1273674,7.54801689 92.1790765,6.99029965 93.3051172,6.99064307 Z M83.0067716,6.99064307 C84.8692721,6.9935848 86.3797283,8.4913273 86.3797283,10.3388863 L86.3797283,12.5649201 C86.3793548,13.9818488 85.4783976,15.2447115 84.1310905,15.7168133 L84.1310905,10.7065827 C84.1306812,9.47531559 83.1241715,8.47727781 81.8824528,8.47687192 L80.2041324,8.47687192 C80.8290218,7.54801689 81.8807309,6.99029965 83.0067716,6.99064307 Z M8.55921117,7.06197632 L2.03727174,7.06197632 C1.1368695,9.46351898 1.3732447,12.1392413 2.68101104,14.3489828 L8.55921117,7.06197632 Z M18.2019513,7.06197632 L11.6800119,7.06197632 L17.5589536,14.3482474 C18.3342938,13.0409993 18.7424846,11.5517346 18.7411234,10.0351691 C18.7417804,9.02014061 18.5591771,8.01319248 18.2019513,7.06197632 Z M63.0174797,8.47687192 C63.4264176,7.43753958 64.5228824,6.83339487 65.628904,7.03799462 C66.7349257,7.24259437 67.5379525,8.1981205 67.541454,9.31374884 L65.2935579,10.7999775 L65.2935579,9.77778165 C65.2935579,9.05930905 64.7061767,8.47687192 63.9816053,8.47687192 Z M10.1203531,1.48696409 C7.11955346,1.488497 4.3353489,3.03683421 2.76926562,5.57501224 L17.4714407,5.57501224 C15.9053574,3.03683421 13.1211528,1.488497 10.1203531,1.48696409 Z" id="Forma-combinada" fill-rule="nonzero"></path>
        </g>
    </g>
</svg>