<?xml version="1.0" encoding="UTF-8"?>
<svg width="121px" height="19px" viewBox="0 0 121 19" version="1.1" xmlns="http://www.w3.org/2000/svg" xmlns:xlink="http://www.w3.org/1999/xlink">
    <title>Grupo</title>
    <defs>
        <polygon id="path-1" points="0 0 12.3165836 0 12.3165836 12.5523205 0 12.5523205"></polygon>
    </defs>
    <g id="Página-1" stroke="none" stroke-width="1" fill="none" fill-rule="evenodd">
        <g id="Small" transform="translate(-156, -48)">
            <g id="Grupo" transform="translate(129, 30)">
                <g transform="translate(27, 18)">
                    <path d="M22.1302318,6.92465164 L20.5941216,3.88969384 C20.1028294,2.91843709 19.1167033,2.3150084 18.0212887,2.3150084 C16.9405471,2.3150084 15.9412659,2.9397641 15.475019,3.90675544 L12.7380004,9.58299967 C12.5282778,10.0183214 12.0782218,10.2995869 11.5914833,10.2995869 C11.0961434,10.2995869 10.6503881,10.0266013 10.4287754,9.58701417 L7.4926595,3.76574633 C7.04133857,2.87101588 6.13439601,2.3150084 5.12550146,2.3150084 C4.11812481,2.3150084 3.20207487,2.86474323 2.73456306,3.74943744 L0.154899645,8.63056087 C-0.0469804573,9.01269056 -0.0517871264,9.47159745 0.141997533,9.85799254 L2.2458007,14.051132 C2.51674505,14.5913324 3.06293445,14.9270445 3.67135757,14.9270445 C4.2780098,14.9270445 4.84393185,14.6302228 5.18571132,14.1334291 L6.89587359,11.6474534 C7.18123794,11.2324551 7.65406239,10.9848109 8.16078651,10.9848109 C8.64853693,10.9848109 9.08594382,11.254033 9.30224393,11.6881002 L12.0458401,17.1912193 C12.6021488,18.306747 13.7271623,19 14.9822089,19 C16.2195467,19 17.3602452,18.28266 17.8882199,17.1726523 L22.1461697,8.21907519 C22.3429902,7.80533135 22.3371716,7.33362826 22.1302318,6.92465164" id="Fill-1" fill="#18273A"></path>
                    <polygon id="Fill-3" fill="#18273A" points="33.4506459 14.0099583 29.8805557 4.73672708 27.3256846 4.73672708 32.0298957 16.578482 34.8713961 16.578482 39.5518269 4.73672708 37.0207361 4.73672708"></polygon>
                    <path d="M42.1763947,9.71020896 C42.2613969,9.28617799 42.404332,8.8869867 42.608742,8.51414053 C42.9586169,7.87483229 43.4402957,7.3735223 44.0532725,7.01021055 C44.6659963,6.64714971 45.3548679,6.46549384 46.1188753,6.46549384 C46.7875083,6.46549384 47.3764517,6.61177198 47.8859587,6.90382645 C48.3952126,7.19613182 48.8012497,7.5905559 49.1038168,8.0878514 C49.406131,8.5851469 49.6052283,9.12635093 49.7008557,9.71020896 L42.1763947,9.71020896 Z M49.4382598,5.36426783 C48.4986825,4.70940342 47.3923897,4.38146941 46.1188753,4.38146941 C44.9566733,4.38146941 43.886304,4.65796772 42.9072614,5.21046251 C41.9279658,5.76320821 41.1520682,6.52094404 40.5788097,7.48392089 C40.0058042,8.44714865 39.7191749,9.50521884 39.7191749,10.6576297 C39.7191749,11.8102914 40.0058042,12.8681107 40.5788097,13.8310875 C41.1520682,14.7943153 41.9279658,15.552302 42.9072614,16.1047968 C43.886304,16.6572916 44.9566733,16.9337899 46.1188753,16.9337899 C47.0741376,16.9337899 47.9775384,16.744105 48.8293307,16.3652371 C49.6806171,15.9863692 50.408954,15.4652376 51.0143413,14.8020933 L49.3426324,13.4996408 C48.9606287,13.941737 48.49084,14.2809618 47.9337724,14.517817 C47.3764517,14.7546721 46.7715704,14.8653216 46.1188753,14.8495146 C45.3548679,14.8339584 44.6659963,14.6405099 44.0532725,14.2691692 C43.4402957,13.8985812 42.9586169,13.3970203 42.608742,12.7652392 C42.4149573,12.41648 42.2768288,12.0448884 42.1903088,11.6522206 L51.9933839,11.6522206 C52.1206342,10.3417391 51.9612551,9.12986361 51.5157528,8.01684503 C51.0697445,6.90382645 50.3773312,6.01963405 49.4382598,5.36426783 L49.4382598,5.36426783 Z" id="Fill-5" fill="#18273A"></path>
                    <polygon id="Fill-7" fill="#18273A" points="53.999131 0 53.999131 16.5783566 55.1691755 16.5783566 56.3632533 16.5783566 56.3632533 0 55.1691755 0"></polygon>
                    <polygon id="Fill-9" fill="#18273A" points="63.8493874 14.0099583 60.2792972 4.73672708 57.7244261 4.73672708 62.4286372 16.578482 65.2701376 16.578482 69.9505684 4.73672708 67.4194777 4.73672708"></polygon>
                    <path d="M72.5752121,9.71020896 C72.6602143,9.28617799 72.8031494,8.8869867 73.0075594,8.51414053 C73.3574343,7.87483229 73.8391131,7.3735223 74.4520899,7.01021055 C75.0648137,6.64714971 75.7536853,6.46549384 76.5176927,6.46549384 C77.1863257,6.46549384 77.7752692,6.61177198 78.2847761,6.90382645 C78.79403,7.19613182 79.2000671,7.5905559 79.5026342,8.0878514 C79.8049484,8.5851469 80.0040457,9.12635093 80.0996731,9.71020896 L72.5752121,9.71020896 Z M79.8370772,5.36426783 C78.8974999,4.70940342 77.7912071,4.38146941 76.5176927,4.38146941 C75.3554907,4.38146941 74.2851214,4.65796772 73.3060788,5.21046251 C72.3267832,5.76320821 71.5508856,6.52094404 70.9776271,7.48392089 C70.4046216,8.44714865 70.1179923,9.50521884 70.1179923,10.6576297 C70.1179923,11.8102914 70.4046216,12.8681107 70.9776271,13.8310875 C71.5508856,14.7943153 72.3267832,15.552302 73.3060788,16.1047968 C74.2851214,16.6572916 75.3554907,16.9337899 76.5176927,16.9337899 C77.472955,16.9337899 78.3763558,16.744105 79.2281481,16.3652371 C80.0794345,15.9863692 80.8077714,15.4652376 81.4131587,14.8020933 L79.7414498,13.4996408 C79.3594461,13.941737 78.8896574,14.2809618 78.3325898,14.517817 C77.7752692,14.7546721 77.1703878,14.8653216 76.5176927,14.8495146 C75.7536853,14.8339584 75.0648137,14.6405099 74.4520899,14.2691692 C73.8391131,13.8985812 73.3574343,13.3970203 73.0075594,12.7652392 C72.8137747,12.41648 72.6756462,12.0448884 72.5891262,11.6522206 L82.3922013,11.6522206 C82.5194516,10.3417391 82.3600725,9.12986361 81.9145702,8.01684503 C81.4685619,6.90382645 80.7761486,6.01963405 79.8370772,5.36426783 L79.8370772,5.36426783 Z" id="Fill-11" fill="#18273A"></path>
                    <path d="M92.9230315,5.03274586 C92.2700834,4.59867865 91.5220139,4.38139414 90.678317,4.38139414 C89.7233077,4.38139414 88.8712624,4.64609987 88.1231929,5.1747586 C87.56992,5.56617181 87.1084797,6.05267835 86.7381132,6.63352552 L86.7381132,4.7366769 L84.374244,4.7366769 L84.374244,16.5784319 L86.7381132,16.5784319 L86.7381132,10.0892525 C86.7381132,9.4893365 86.8893968,8.92078372 87.191964,8.38384509 C87.4942782,7.84740827 87.8962675,7.42111915 88.397932,7.10497771 C88.8993435,6.78933808 89.4604588,6.63151827 90.0812781,6.63151827 C90.590532,6.63151827 91.0403351,6.74969495 91.4304342,6.98655012 C91.8205334,7.22340529 92.1190528,7.56313189 92.3259926,8.00497718 C92.5326793,8.44732429 92.6364022,8.97598302 92.6364022,9.59170611 L92.6364022,16.5784319 L95.0005244,16.5784319 L95.0005244,9.59170611 C95.0005244,8.54969389 94.817365,7.63790185 94.4512992,6.85632996 C94.0849805,6.07475807 93.5757265,5.46731488 92.9230315,5.03274586" id="Fill-13" fill="#18273A"></path>
                    <path d="M101.280893,7.17613462 C101.885774,6.82913176 102.554407,6.65500306 103.286792,6.65500306 C103.891673,6.65500306 104.456836,6.77343065 104.982281,7.01028582 C105.507473,7.24714099 105.945133,7.57858769 106.295514,8.00512772 L108.110411,6.58399669 C107.505276,5.88948916 106.78883,5.34878694 105.961324,4.96163913 C105.133312,4.57499313 104.242054,4.38154468 103.286792,4.38154468 C102.140528,4.38154468 101.081543,4.66205748 100.110849,5.22207946 C99.1396484,5.78285415 98.3713403,6.54485537 97.8064302,7.50758132 C97.2412671,8.47105998 96.9586855,9.52085028 96.9586855,10.657454 C96.9586855,11.7943087 97.2412671,12.8446008 97.8064302,13.8075776 C98.3713403,14.7708054 99.1396484,15.5325557 100.110849,16.0928286 C101.081543,16.6531015 102.140528,16.9336143 103.286792,16.9336143 C104.242054,16.9336143 105.133312,16.7401658 105.961324,16.3532689 C106.78883,15.9666229 107.505276,15.4261716 108.110411,14.7311622 L106.295514,13.3100312 C105.945133,13.7207642 105.507473,14.0484473 104.982281,14.2928296 C104.456836,14.5379647 103.891673,14.6601559 103.286792,14.6601559 C102.554407,14.6601559 101.885774,14.486529 101.280893,14.1390243 C100.675759,13.7917706 100.198128,13.3100312 99.8482526,12.6943081 C99.4978717,12.078585 99.3228078,11.3998846 99.3228078,10.657454 C99.3228078,9.91552526 99.4978717,9.23657389 99.8482526,8.62085081 C100.198128,8.00512772 100.675759,7.5236393 101.280893,7.17613462" id="Fill-15" fill="#18273A"></path>
                    <g transform="translate(108.6834, 4.3815)">
                        <mask id="mask-2" fill="white">
                            <use xlink:href="#path-1"></use>
                        </mask>
                        <g id="Clip-18"></g>
                        <path d="M2.45721984,5.32873955 C2.54247497,4.90470858 2.68515715,4.50551729 2.88956708,4.13267112 C3.23944199,3.49336288 3.72112083,2.99205289 4.33409763,2.62874114 C4.94682145,2.2656803 5.63569303,2.08402443 6.39970044,2.08402443 C7.06833341,2.08402443 7.65727686,2.23030257 8.16678379,2.52235704 C8.67603773,2.81466241 9.08207478,3.20908649 9.38464195,3.70638199 C9.68695614,4.20367749 9.88605343,4.74488152 9.98168085,5.32873955 L2.45721984,5.32873955 Z M11.7965779,3.63537562 C11.3505696,2.52235704 10.6581563,1.63816464 9.71908492,0.98279842 C8.77950761,0.327934014 7.67321477,0 6.39970044,0 C5.23749844,0 4.16712913,0.276498304 3.18808653,0.828993101 C2.20879094,1.3817388 1.43289336,2.13947463 0.859634822,3.10245148 C0.286629268,4.06567924 0,5.12374943 0,6.27616024 C0,7.42882196 0.286629268,8.48664124 0.859634822,9.44961809 C1.43289336,10.4128459 2.20879094,11.1708326 3.18808653,11.7233274 C4.16712913,12.2758222 5.23749844,12.5523205 6.39970044,12.5523205 C7.35496267,12.5523205 8.25836348,12.3626356 9.11015584,11.9837677 C9.96169522,11.6048998 10.6897791,11.0837682 11.2951664,10.4206239 L9.62345751,9.1181714 C9.24145381,9.5602676 8.77166515,9.89949238 8.2145975,10.1363475 C7.65727686,10.3732027 7.0523955,10.4838522 6.39970044,10.4680452 C5.63569303,10.452489 4.94682145,10.2590405 4.33409763,9.8876998 C3.72112083,9.51711178 3.23944199,9.01555088 2.88956708,8.38376982 C2.69578242,8.03501062 2.55765393,7.66341898 2.47113388,7.27075124 L12.274209,7.27075124 C12.4014593,5.96026971 12.2420802,4.7483942 11.7965779,3.63537562 L11.7965779,3.63537562 Z" id="Fill-17" fill="#18273A" mask="url(#mask-2)"></path>
                    </g>
                </g>
            </g>
        </g>
    </g>
</svg>